<?xml version="1.0" encoding="utf-8"?>
<!-- Generator: Adobe Illustrator 17.1.0, SVG Export Plug-In . SVG Version: 6.00 Build 0)  -->
<!DOCTYPE svg PUBLIC "-//W3C//DTD SVG 1.1//EN" "http://www.w3.org/Graphics/SVG/1.1/DTD/svg11.dtd">
<svg version="1.1" id="Layer_1" xmlns="http://www.w3.org/2000/svg" xmlns:xlink="http://www.w3.org/1999/xlink" x="0px" y="0px"
	 viewBox="0 0 512 512" enable-background="new 0 0 512 512" xml:space="preserve">
<g>
	<path fill="#96C93F" d="M476.4,0H35.6C15.9,0,0,15.9,0,35.6v135.1c0,0,30.5-19.2,90.9-24.9c60.3-5.7,191.9,33.1,254.2,40
		c62.3,6.8,166.9-15,166.9-15V35.6C512,15.9,496.1,0,476.4,0z"/>
	<path fill="#FDF172" d="M345.1,185.7c-62.3-6.8-193.9-45.7-254.2-40C30.5,151.5,0,170.7,0,170.7v35.6v135.1c0,0,25.1-27.2,100-24.9
		c74.9,2.3,184.6,43.4,259.9,37.4c75.3-6,152.1-16,152.1-16V206.2v-35.6C512,170.7,407.4,192.5,345.1,185.7z"/>
	<path fill="#49B5C1" d="M100,316.4C25.1,314.1,0,341.3,0,341.3v35.6v99.5C0,496.1,15.9,512,35.6,512h440.9
		c19.6,0,35.6-15.9,35.6-35.6v-99.5v-39.1c0,0-76.8,10-152.1,16C284.6,359.8,174.9,318.7,100,316.4z"/>
	<g>
		<path fill-rule="evenodd" clip-rule="evenodd" fill="#737577" d="M189.2,138.6c-5.3-4.7-21-2.7-26.8,2.1
			c-36.8,30.7-73.4,61.2-108.2,94c-6.4,6.1-9.2,20.3-4.2,26.4c5.1,6,23.8-4,26.3-5.9c2.9-1.7,56-38.8,79.6-55.4
			c11.7-8.2,21.2-8.1,30.1,4.5c8.6,12.2,18.3,23.6,28.3,36.3c-32.4,32.7-93.3,101.3-92,103.6c72.4-4.2,123-62.3,191.4-80.8
			c-1.9-6.3-2.8-9.6-4.5-11.2C269.4,214.1,230,175.5,189.2,138.6z"/>
		<path fill-rule="evenodd" clip-rule="evenodd" fill="#737577" d="M378,287.9c-43.3,14-81.8,32-122.2,53.1
			c-75.1,39.3-151.8,58-238.8,31.1c21.4,27.4,60.6,46.6,96.4,49.5c61.7,4.9,117.6-14.5,168.1-46.3c51.1-32.3,103.8-57.9,163.5-65.7
			c18.9-2.5,38.6-2.3,57.4-5.4C463.3,285.7,418.6,274.9,378,287.9z"/>
		<path fill-rule="evenodd" clip-rule="evenodd" fill="#737577" d="M348.7,120.2c-28.6,7.1-46.2,36.4-39.2,65.5
			c7.3,30.3,36.6,47.9,66.4,39.9c28.9-7.7,45.6-36.6,38.1-65.9C406.6,130.8,377.3,113.1,348.7,120.2z"/>
	</g>
</g>
</svg>
