<?xml version="1.0" encoding="utf-8" standalone="no"?>
<!-- Creator: Esri ArcMap 10.1.0.3035 -->
<!DOCTYPE svg PUBLIC "-//W3C//DTD SVG 1.1//EN"  "http://www.w3.org/Graphics/SVG/1.1/DTD/svg11.dtd">
<svg width="538.49764pt" height="409.49291pt" viewBox="0 0 538.49764 409.49291" enable-background="new 0 0 538.49764 409.49291"
	version="1.1" xmlns="http://www.w3.org/2000/svg" xmlns:xlink="http://www.w3.org/1999/xlink" >
	<g id="SE_States">
		<g id="States">
			<g id="FL_State">
				<clipPath id="SVG_CP_1">
					<path d="M0,409.49291L0,0L538.49764,0L538.49764,409.49291L0,409.49291z"/>
				</clipPath>
				<path clip-path="url(#SVG_CP_1)" fill="none" stroke="#000000" stroke-width="0.4799" stroke-miterlimit="10" stroke-linecap="round" stroke-linejoin="round" d="
					M437.1901,251.28796L438.62981,254.64807L433.11094,251.28796L439.58961,278.88884L455.6663,316.81004L454.7065,319.93014L456.38616,318.49009
					L461.42512,328.81042L471.743,360.0114L474.86236,365.53158L472.7028,363.37151L466.22413,361.21144L468.62364,363.61152L472.94275,364.33154
					L477.50181,371.05175L481.10107,380.65206L479.66137,380.65206L483.74053,393.13245L481.58098,426.2535L481.10107,430.09363M
					372.40343,430.09363L372.40343,429.13359L370.24387,425.77349L369.28407,418.33325L364.2451,416.41319L362.56545,412.81308L365.20491,411.61304
					L367.84436,403.9328L374.80293,399.13264L367.12451,402.49275L364.2451,410.413L359.20614,412.33306L355.36693,398.89264L357.28653,388.09229
					L354.40713,384.25217L361.12574,381.37208L361.8456,376.57193L359.92599,380.41205L351.04782,383.05213L342.88949,377.05194L
					349.36816,384.73219L350.80787,393.61247L342.40959,389.29233L335.45102,378.732L339.05028,385.45221L336.65078,382.33211L328.73241,361.93147
					L327.05275,360.25141L328.2525,363.85153L324.65324,359.29138L327.05275,355.21125L324.89319,351.37113L317.45472,345.13093L
					320.33413,342.97087L318.65448,343.69089L317.69467,341.53082L329.93216,344.65092L328.2525,342.25084L333.77137,341.53082L324.41329,342.25084
					L320.33413,340.57079L324.65324,339.37075L325.61305,337.45069L321.05398,339.37075L326.57285,335.53063L325.853,332.89055L335.21107,322.33021
					L335.45102,314.16995L331.61181,311.76988L330.17211,320.17014L328.49245,319.69013L326.57285,312.24989L319.85423,305.52968
					L319.61428,306.96972L316.49492,304.32964L318.17458,306.72972L316.49492,309.3698L319.85423,309.84982L314.81527,311.76988L
					325.13315,316.33002L321.29393,318.25008L319.85423,327.85039L317.93463,328.57041L310.49616,319.69013L314.57532,327.61038L
					313.85546,330.01045L307.3768,318.25008L311.45596,295.20935L318.17458,276.96877L320.57408,257.76817L317.69467,249.60791L320.57408,249.12789
					L320.33413,244.08773L312.89566,235.20745L310.01625,224.40711L295.13931,222.72706L292.73981,216.48686L288.66065,214.08678
					L290.58025,211.92671L286.50109,210.96668L282.66188,204.24647L273.54375,198.00627L271.8641,187.20593L262.74597,182.40578L
					256.26731,169.68538L236.11145,157.44499L229.63278,156.00494L225.07372,157.20498L219.79481,155.28492L212.11638,158.16501L
					211.63648,164.88522L206.83747,163.68519L207.07742,166.08526L213.07619,167.04529L212.59629,169.68538L205.15782,168.24533L
					180.20295,181.68576L175.88383,179.28568L172.04462,183.60582L148.28951,186.2459L145.4101,179.52569L145.17015,173.28549L146.60985,172.32546
					L145.89,178.08564L148.76941,185.76589L151.88877,184.80585L152.36867,177.12561L147.08976,168.72535L131.73291,156.48496L135.33217,156.00494
					L141.57089,161.52512L145.17015,160.80509L143.9704,159.84506L147.08976,161.52512L146.3699,158.88503L142.05079,159.36505L137.97163,153.60487
					L126.454,150.24476L129.33341,144.72459L133.41257,144.96459L135.33217,140.40445L125.9741,143.76455L123.81454,141.60449L117.57582,142.80452
					L119.01553,146.16463L123.57459,146.40464L125.4942,153.84487L108.9376,143.28454L76.30431,133.20422L93.10086,133.92424L92.86091,132.00418
					L101.01923,135.12428L100.53933,132.00418L94.30061,127.44404L83.74278,129.3641L79.66362,126.48401L69.58569,132.24419L58.30801,132.7242
					L32.87324,137.28435L49.42984,129.3641L44.15092,125.52398L46.07053,120.0038L43.91097,120.24381L40.79161,130.32413L37.19235,121.92386
					L34.31294,122.40388L35.0328,129.12409L27.83428,137.04434L18.23625,139.68443L19.19605,133.92424L23.27521,131.76417L23.27521,129.84411
					L18.71615,127.92405L17.0365,124.32394L20.39581,117.84373L19.91591,114.24362L11.75758,108.48344L6.23872,101.0432L7.43847,89.76284
					L171.32477,89.76284L175.16398,97.68309L175.88383,106.32337L179.963,111.12352L346.7287,121.68386L345.52895,124.32394L348.16841,127.44404
					L347.68851,132.24419L350.32796,136.80433L358.24634,135.6043L357.76644,131.52417L360.16594,121.44385L357.76644,115.68367L
					359.68604,105.36334L361.8456,106.32337L363.52525,103.20327L366.88456,102.48325L374.80293,107.52341L385.60071,110.88351L390.39973,110.4035
					L392.31933,119.52379L391.11958,122.64389L394.95879,130.08412L393.27913,135.36429L395.67864,137.04434L396.39849,145.2046L
					404.55681,169.44537L403.83696,175.68557L408.39602,182.16577L408.87593,187.20593L416.7943,204.72649L417.51415,210.24666L437.1901,251.28796
					M55.66855,133.92424L69.10579,132.96421L75.10456,133.92424L61.66732,133.68424L29.75388,139.68443L26.87447,138.9644L55.66855,133.92424
					M440.30946,251.04795L435.2705,243.36771L429.03178,230.64731L440.30946,251.04795M441.02931,251.28796L450.14744,265.2084L453.7467,274.32869
					L449.66754,278.16881L447.50798,277.9288L450.38739,268.3285L448.94769,264.24837L445.10848,263.28834L443.18887,265.44841L437.67001,263.28834
					L437.1901,258.24818L440.54941,256.80814L439.34966,254.64807L446.30823,260.40825L441.02931,251.28796M443.42882,265.92842L
					445.58838,264.48838L448.46778,266.40844L445.10848,276.96877L444.62857,285.84906L448.70774,297.12941L441.26927,279.84887L
					443.42882,265.92842M354.16718,408.01293L356.32673,414.25312L354.40713,414.49313L352.00762,403.9328L349.12821,401.05271L352.48752,400.33268
					L354.16718,408.01293"/>
			</g>
		</g>
	</g>
</svg>
