<?xml version="1.0" encoding="utf-8" standalone="no"?>
<!-- Creator: Esri ArcMap 10.1.0.3035 -->
<!DOCTYPE svg PUBLIC "-//W3C//DTD SVG 1.1//EN"  "http://www.w3.org/Graphics/SVG/1.1/DTD/svg11.dtd">
<svg width="538.49764pt" height="409.49291pt" viewBox="0 0 538.49764 409.49291" enable-background="new 0 0 538.49764 409.49291"
	version="1.1" xmlns="http://www.w3.org/2000/svg" xmlns:xlink="http://www.w3.org/1999/xlink" >
	<g id="SE_States">
		<g id="States">
			<g id="GA_State">
				<clipPath id="SVG_CP_1">
					<path d="M0,409.49291L0,0L538.49764,0L538.49764,409.49291L0,409.49291z"/>
				</clipPath>
				<path clip-path="url(#SVG_CP_1)" fill="#FFFFFF" fill-rule="evenodd" stroke="#6E6E6E" stroke-width="0.4799" stroke-miterlimit="10" stroke-linecap="round" stroke-linejoin="round" d="
					M-26.87447,67.20213L7.67842,67.20213L29.03403,67.20213L84.70258,66.2421L83.26288,69.84221L84.22268,71.28226L76.06436,75.6024
					L74.14475,80.64256L71.0254,82.80262L69.10579,87.36277L69.82564,91.20289L76.30431,96.00304L80.86337,97.20308L87.82194,105.60335
					L99.57952,108.00342L101.49913,114.72363L106.05819,121.44385L107.9778,130.08412L116.37607,140.16444L118.05573,145.92462L132.21281,155.52493
					L137.49173,161.0451L142.29074,171.60544L150.20911,175.20555L158.36744,183.1258L159.80714,187.20593L158.12749,187.92595L158.36744,192.24609
					L162.20665,195.36619L164.3662,195.36619L163.16645,196.32622L165.32601,198.24628L163.64635,200.16634L169.64512,204.00646L
					170.84487,207.60658L184.04216,215.28682L186.44166,218.16691L185.24191,222.48705L188.12132,226.32717L186.92156,228.00722L
					190.76078,231.36733L191.48063,246.72782L194.36004,250.08792L200.11885,252.00798L205.15782,258.7282L206.11762,265.68842L209.23698,268.56851
					L209.71688,272.88865L208.27717,276.72877L210.19678,279.36885L210.91663,285.60905L224.11392,293.04928L219.07495,297.36942
					L219.3149,301.68956L208.75708,303.60962L206.11762,300.48952L204.43796,300.96953L204.67791,298.80947L202.27841,300.72953L
					199.63895,297.12941L202.03846,301.20954L204.43796,299.28948L203.71811,301.44955L206.11762,300.96953L208.51712,304.32964L
					214.99579,306.48971L213.55609,310.08982L208.75708,313.68994L206.59752,308.40977L205.15782,309.3698L206.35757,313.20992L199.15905,308.40977
					L208.99703,319.69013L205.63772,323.05023L202.27841,320.17014L202.51836,326.41034L205.15782,330.25046L204.43796,333.13055
					L197.71934,342.49085L194.36004,342.01083L191.72058,344.41091L192.68038,348.01102L192.92033,345.61095L198.4392,347.05099L
					193.40023,356.41129L184.04216,357.85134L184.28211,361.21144L187.40147,364.33154L183.80221,361.93147L186.44166,368.41167L
					184.04216,370.33173L186.92156,371.53177L184.04216,377.53196L185.96176,385.2122L184.04216,387.85229L179.24314,388.3323L168.44536,384.9722
					L160.76694,380.17204L157.40763,380.65206L155.48803,383.77216L153.32847,382.81213L151.64882,393.13245L154.04832,398.89264
					L151.40887,408.97296L151.88877,413.05309L143.9704,414.25312L141.33094,409.69298L141.81084,404.89283L139.41133,402.01274L
					140.37114,399.37265L-26.15462,388.57231L-26.87447,387.85229L-26.87447,67.20213zM186.92156,374.65187L191.24068,369.61171L
					191.96053,372.01179L188.84117,388.3323L187.16152,386.89226L187.88137,377.77197L185.72181,376.09191L186.92156,374.65187z"/>
			</g>
		</g>
	</g>
</svg>
