<?xml version="1.0" encoding="utf-8"?>
<!-- Generator: Adobe Illustrator 16.0.0, SVG Export Plug-In . SVG Version: 6.00 Build 0)  -->
<!DOCTYPE svg PUBLIC "-//W3C//DTD SVG 1.1//EN" "http://www.w3.org/Graphics/SVG/1.1/DTD/svg11.dtd">
<svg version="1.1" id="Layer_1" xmlns="http://www.w3.org/2000/svg" xmlns:xlink="http://www.w3.org/1999/xlink" x="0px" y="0px"
	 width="249.973px" height="233.426px" viewBox="0 0 249.973 233.426" enable-background="new 0 0 249.973 233.426"
	 xml:space="preserve">
<g>
	<path fill="#FFFFFF" d="M201.318,146.185c0.063,0,0.129,0.006,0.192,0C201.857,146.177,202.426,146.151,201.318,146.185z"/>
	<path fill="#FFFFFF" d="M201.512,146.185c-0.063,0.006-0.129,0-0.192,0C201.275,146.19,201.379,146.19,201.512,146.185z"/>
	<path fill="#FFFFFF" d="M199.322,150.753c-0.518-1.637,2.393-1.914,3.352-1.627c1.769,0.389,1.777,2.059,3.658,2.059
		c1.5,0,2.914,0.115,1.982-1.854c-1.267-2.625-4.115-3.193-6.803-3.146c-0.134,0.006-0.236,0.006-0.193,0
		c-2.256,0.266-4.885,0.539-5.961,2.92c-0.637,1.443-0.594,3.371,0.529,4.572c1.504,1.611,4.291,1.824,6.327,2.316
		c2.078,0.485,4.144,2.733,1.048,3.828c-1.367,0.534-3.761-0.013-4.337-1.437c-0.719-1.437-2.104-1.047-3.53-1.047
		c-2.009,0,0.104,3.27,1.227,4.09c1.41,1.025,3.475,1.437,5.215,1.437c3.728,0,8.551-2.166,7.224-6.666
		C207.844,151.71,200.559,154.353,199.322,150.753z"/>
	<path fill="#FFFFFF" d="M184.396,146.274c-5.39,0-8.011,4.162-8.011,8.453c0,5.521,4.138,8.137,7.642,8.137
		c1.258,0,3.205,0.111,5.27-1.377c0,0,0.562-0.371,1.346-1.323c0.634-0.804,0.74-1.175,0.74-1.572c0-0.676-0.215-1.047-1.018-1.047
		h-1.486c-0.758,0-0.795,0.604-1.283,1.047c-0.481,0.428-0.975,0.981-2.807,0.981c-1.846,0-3.262-0.729-3.812-2.698
		c-0.111-0.402-0.095-0.873,0.024-1.039c0.236-0.312,0.967-0.295,0.967-0.295h9.105c0.521,0,0.953-0.437,0.953-0.968v-0.684
		C192.027,150.903,189.627,146.274,184.396,146.274z M187.066,152.983h-5.119c-0.604,0-1.018-0.41-0.885-0.918
		c0,0,0.256-1.123,0.914-1.709c0.645-0.567,1.487-0.858,2.53-0.858c1.047,0,1.888,0.291,2.533,0.858
		c0.646,0.586,0.928,1.709,0.928,1.709C188.084,152.573,187.67,152.983,187.066,152.983z"/>
	<path fill="#FFFFFF" d="M167.076,149.573c1.842,0,2.328,0.539,2.814,0.976c0.483,0.444,0.526,1.039,1.278,1.039h1.47
		c0.821,0,1.049-0.363,1.049-1.039c0-0.396-0.215-0.904-0.859-1.709c-0.777-0.965-1.236-1.195-1.236-1.195
		c-1.879-1.352-3.651-1.377-4.899-1.369c-0.011,0-0.021,0-0.031,0c-0.104,0-0.228,0-0.336,0c-3.506,0-7.644,2.615-7.644,8.125
		c0,0.048,0.015,0.115,0.015,0.175c0,0.053-0.015,0.11-0.015,0.153c0,5.521,4.138,8.138,7.644,8.138c0.108,0,0.229,0,0.336,0
		c0.01,0,0.021,0,0.031,0c1.248,0.01,3.021-0.019,4.899-1.377c0,0,0.535-0.289,1.31-1.261c0.645-0.78,0.787-1.237,0.787-1.637
		c0-0.676-0.228-1.047-1.05-1.047h-1.469c-0.752,0-0.795,0.604-1.279,1.047c-0.485,0.428-0.973,0.982-2.813,0.982
		c-1.838,0-3.262-0.73-3.805-2.699c-0.041-0.189-0.343-1.121-0.343-2.301c0-1.188,0.277-2.099,0.343-2.304
		C163.814,150.296,165.238,149.573,167.076,149.573z"/>
	<path fill="#FFFFFF" d="M126.5,146.292h-2.693c-0.465,0-0.846,0.371-0.846,0.842v7.439c0,0,0.185,4.881-3.432,4.854
		c-3.051,0.086-2.924-4.201-2.924-4.201v-8.154c0-0.446-0.383-0.842-0.842-0.842h-2.705c-0.457,0-0.836,0.396-0.836,0.842v10.101
		c0,0-0.064,2.041,0.823,3.399c0.918,1.355,2.188,2.244,4.867,2.273c2.676,0.01,3.766-1.191,4.082-1.504
		c0.264-0.267,0.482-0.449,0.789-0.449c0.283,0,0.363,0.723,0.363,0.723c0,0.472,0.381,0.839,0.848,0.839h2.504
		c0.465,0,0.832-0.367,0.832-0.839v-14.481C127.332,146.663,126.965,146.292,126.5,146.292z"/>
	<path fill="#FFFFFF" d="M150.023,146.185c-2.67-0.047-3.308,0.902-4.029,1.299c0,0-0.816,0.869-1.332,0.57
		c-0.553-0.305-0.77-0.646-1.232-0.959c-0.914-0.588-2.08-0.889-3.241-0.91c-2.673-0.047-3.414,0.979-3.716,1.27
		c-0.272,0.273-0.493,0.439-0.803,0.439c-0.281,0-0.371-0.713-0.371-0.713c0-0.457-0.373-0.838-0.834-0.838h-2.496
		c-0.465,0-0.846,0.381-0.846,0.838v14.496c0,0.457,0.381,0.838,0.846,0.838h2.688c0.453,0,0.844-0.381,0.844-0.838v-7.445
		c0,0-0.18-4.889,3.439-4.854c2.684,0.119,2.102,4.19,2.102,4.19v8.162c0,0.449,0.381,0.842,0.843,0.842h2.696
		c0.468,0,0.847-0.393,0.847-0.842v-7.5c0,0-0.265-4.889,3.348-4.854c2.264,0.118,2.113,4.19,2.113,4.19v8.162
		c0,0.449,0.377,0.842,0.834,0.842h2.696c0.47,0,0.851-0.393,0.851-0.842v-10.098c0,0,0.061-2.051-0.838-3.406
		C153.529,146.882,151.785,146.216,150.023,146.185z"/>
	<path fill="#FFFFFF" d="M100.111,65.737h-8.248c-1.41,0-2.564,1.164-2.564,2.582v5.752c0,1.424,1.154,2.564,2.564,2.564h8.248
		c1.414,0,2.572-1.141,2.572-2.564v-5.752C102.684,66.901,101.525,65.737,100.111,65.737z"/>
	<path fill="#FFFFFF" d="M100.111,84.567h-8.248c-1.41,0-2.564,1.162-2.564,2.568v44.371c0,1.418,1.154,2.58,2.564,2.58h8.248
		c1.414,0,2.572-1.162,2.572-2.58V87.136C102.684,85.729,101.525,84.567,100.111,84.567z"/>
	<path fill="#FFFFFF" d="M187.998,83.216c-8.201-0.047-11.543,3.676-12.479,4.604c-0.832,0.828-1.509,1.347-2.449,1.347
		c-0.854,0-1.123-2.197-1.123-2.197c0-1.418-1.158-2.568-2.568-2.568h-7.662c-1.42,0-2.571,1.15-2.571,2.568v44.375
		c0,1.416,1.151,2.563,2.571,2.563h8.244c1.418,0,2.572-1.147,2.572-2.563v-22.793c0,0-0.557-14.957,10.512-14.863
		c9.377-0.272,8.976,12.854,8.976,12.854v24.967c0,1.418,1.157,2.58,2.571,2.58h8.24c1.414,0,2.572-1.162,2.572-2.58V100.61
		c0,0,0.252-6.285-2.518-10.426C200.113,86.042,196.189,83.284,187.998,83.216z"/>
	<path fill="#FFFFFF" d="M152.811,127.681c-0.162-1.414-0.072-6.465-0.072-6.465c0-7.547,0-14.99,0-19.59
		c0-13.076-10.414-18.512-20.953-18.512c-11.658,0-16.824,3.436-21.436,9.461c-1.638,2.733-1.939,3.838-1.979,4.528
		c-0.008,0.188,0.021,0.402,0.068,0.578c0.272,1.142,1.291,1.99,2.504,1.99h8.244c1.409,0,1.948-1.854,2.571-2.568
		c3.525-5.233,9.693-5,9.693-5c5.836,0,7.896,4.062,7.814,5.941c-0.064,1.871-0.171,3.357-2.494,4.383
		c-2.32,1-4.621,1.22-6.849,1.562c-9.789,1.914-23.174,3.047-23.555,16.33c-0.26,9.012,7.932,14.647,15.996,14.647
		c4.27,0,9.733-0.889,13.448-2.676c1.138-0.539,2.423-1.642,2.832-1.89c0.41-0.243,0.777-0.307,1.324,0.076
		c0.547,0.396,0.607,1.177,0.607,1.177c0,1.413,1.162,2.577,2.572,2.577h8.094c1.42,0,2.582-1.163,2.582-2.577
		c0,0,0.004-0.457-0.125-0.867C153.541,130.259,152.965,129.087,152.811,127.681z M139.203,118.062
		c-0.473,2.42-1.572,4.607-3.221,6.094c-1.74,1.574-4.586,1.992-7.453,1.992c-4.449,0-8.047-2.479-8.047-6.795v-0.129
		c0.104-4.025,6.295-8.281,16.508-8.242c0.492,0.012,0.855-0.057,1.5,0.037C140.52,111.413,139.662,115.64,139.203,118.062z"/>
	<path fill="#FFFFFF" d="M230.924,123.069c-0.785-0.631-1.166-0.856-1.562-0.856c-0.668-0.011-1.031,0.227-1.039,1.024l-0.01,1.496
		c0,0.73,0.59,0.781,1.03,1.271c0.423,0.485,0.97,0.981,0.966,2.811c-0.017,1.826-0.746,3.24-2.718,3.777
		c-0.397,0.1-0.877,0.09-1.028-0.037c-0.31-0.228-0.291-0.967-0.291-0.967l0.036-6.004l0.019-3.076c0-0.521-0.433-0.949-0.961-0.957
		h-0.688c-2.975-0.021-7.61,2.342-7.649,7.565c-0.025,5.381,4.114,8.019,8.409,8.047c5.486,0.019,8.134-4.094,8.158-7.588
		c0-1.248,0.123-3.172-1.346-5.252C232.25,124.323,231.873,123.853,230.924,123.069z M223.719,131.601
		c-0.008,0.603-0.418,1-0.914,0.885c0,0-1.127-0.272-1.709-0.928c-0.561-0.654-0.846-1.488-0.846-2.529
		c0.021-1.043,0.308-1.873,0.879-2.518c0.578-0.654,1.715-0.91,1.715-0.91c0.496-0.121,0.91,0.281,0.902,0.896L223.719,131.601z"/>
	<path fill="#FFFFFF" d="M232.326,89.294c-0.26-0.283-0.428-0.51-0.428-0.812c0.01-0.283,0.719-0.358,0.719-0.358
		c0.457,0.01,0.838-0.363,0.842-0.843l0.015-2.491c0-0.457-0.373-0.837-0.834-0.837l-14.453-0.09c-0.468,0-0.843,0.371-0.847,0.843
		l-0.014,2.684c0,0.461,0.373,0.842,0.83,0.842l6.576,0.029l0.85,0.01c0,0,4.877-0.146,4.826,3.443
		c0.072,3.061-4.209,2.906-4.209,2.906h-0.596l-7.537-0.043c-0.461-0.009-0.842,0.37-0.842,0.829l-0.019,2.688
		c-0.008,0.465,0.375,0.842,0.828,0.85h10.082c0,0,2.039,0.138,3.396-0.743c1.354-0.896,2.258-2.181,2.295-4.847
		C233.84,90.679,232.629,89.583,232.326,89.294z"/>
	<path fill="#FFFFFF" d="M232.523,108.524c-0.32-0.444-0.728-0.949-1.193-1.389h0.91c0.625,0,1.129-0.434,1.133-1.047l0.01-1.873
		c0.005-0.615-0.491-1.252-1.12-1.252h-19.5c-0.615,0-1.123,0.508-1.127,1.133l-0.015,1.867c0,0.61,0.504,1.172,1.125,1.172h6.576
		c-0.68,0.662-1.227,1.346-1.576,2.037c-0.406,0.803-0.61,1.787-0.615,2.975c-0.014,2.039,0.685,3.676,2.103,4.939
		c1.414,1.258,3.402,1.881,5.967,1.901c1.199,0,2.32-0.145,3.371-0.457c1.029-0.303,1.937-0.752,2.705-1.366
		c0.777-0.607,1.367-1.32,1.785-2.15c0.42-0.828,0.633-1.738,0.643-2.713c0-0.744-0.104-1.42-0.295-2.043
		C233.197,109.636,232.908,109.046,232.523,108.524z M229.949,112.985c-0.396,0.595-0.986,1.052-1.768,1.406
		c-0.787,0.338-1.728,0.508-2.83,0.5c-1.052-0.014-1.97-0.18-2.756-0.5c-0.8-0.334-1.396-0.791-1.816-1.389
		c-0.428-0.586-0.633-1.258-0.627-2.01c0.008-0.714,0.213-1.382,0.627-1.976c0.42-0.604,1.021-1.084,1.809-1.426
		c0.781-0.353,1.717-0.527,2.808-0.527c1.157,0.011,2.118,0.207,2.897,0.558c0.771,0.362,1.332,0.834,1.705,1.436
		c0.367,0.594,0.551,1.252,0.551,1.971C230.545,111.733,230.344,112.386,229.949,112.985z"/>
	<path fill="#FFFFFF" d="M97.529,151.267h-3.076c-0.852,0-1.547,0.691-1.547,1.551v3.058c0,0.85,0.695,1.555,1.547,1.555h3.076
		c0.852,0,1.543-0.705,1.543-1.555v-3.058C99.072,151.958,98.381,151.267,97.529,151.267z"/>
	<path fill="#FFFFFF" d="M227.062,151.267h-3.074c-0.85,0-1.547,0.691-1.547,1.551v3.058c0,0.85,0.697,1.555,1.547,1.555h3.074
		c0.85,0,1.541-0.705,1.541-1.555v-3.058C228.604,151.958,227.912,151.267,227.062,151.267z"/>
	<path fill="#FFFFFF" d="M116.676,184.397c-17.641-12.379-44.971,7.168-61.547-2.662c-16.576-9.828,27.285-12.375,27.812-25.08
		c0.565-14.233-28.65-10.5-35.068-16.2c-6.41-5.701,10.728-4.572,15.824-12.685c5.102-8.11-18.4-7.051-17.812-11.289
		c0.511-3.643,5.021-5.633,4.349-5.979c-0.783-0.391-14.043,4.307-9.521,8.91c4.533,4.59,17.252,2.889,14.836,8.033
		c-2.413,5.166-31.969,6.377-17.516,16.436c14.449,10.061,31.281,3.238,30.559,14.307c-0.76,11.701-54.721,7.41-35.123,27.052
		c17.548,17.577,57.939,1.62,71.025,7.812c13.088,6.18-3.279,15.691-3.279,15.691s9.881-0.221,15.273-4.504
		C121.879,199.944,125.389,190.513,116.676,184.397z"/>
	<path fill="#FFFFFF" d="M229.387,52.038c-5.295-2.324-9.309-7.09-12.799-11.271c-5.858-6.901-12.803-11.914-19.315-13.875
		c-13.666-4.104-29.799,6.238-41.371,12.303c-14.08,7.363-26.642-29.063-50.939-38.174c-24.299-9.09-41.465,44.617-65.104,76.183
		C16.212,108.775,0.537,89.878,0,89.089c0,0,10.142,32.977,33.221,16.426c25.188-18.051,27.119-55.461,50.73-85.031
		c17.303-21.668,35.4,24.357,49.648,29.191c22.76,7.713,43.213-25.213,59.78-13.496c7.363,5.205,14.289,14.535,19.021,18.191
		c16.838,13.047,30.338,4.18,37.572-3.685C249.971,50.687,236.848,55.319,229.387,52.038z"/>
	<path fill="#FFFFFF" d="M177.268,196.095c-21.23,2.385-45.465,26.631-69.388,26.777c-23.909,0.157-35.014-11.24-35.014-11.24
		s13.941,23.441,42.303,21.701c23.283-1.748,38.658-20.599,62.099-27.728c26.614-6.647,43.252,5.547,43.252,5.547
		S207.686,191.663,177.268,196.095z"/>
</g>
</svg>
