<?xml version="1.0" encoding="utf-8" standalone="no"?>
<!-- Creator: Esri ArcMap 10.1.0.3035 -->
<!DOCTYPE svg PUBLIC "-//W3C//DTD SVG 1.1//EN"  "http://www.w3.org/Graphics/SVG/1.1/DTD/svg11.dtd">
<svg width="538.49764pt" height="409.49291pt" viewBox="0 0 538.49764 409.49291" enable-background="new 0 0 538.49764 409.49291"
	version="1.1" xmlns="http://www.w3.org/2000/svg" xmlns:xlink="http://www.w3.org/1999/xlink" >
	<g id="SE_States">
		<g id="States">
			<g id="NC_State">
				<clipPath id="SVG_CP_1">
					<path d="M0,409.49291L0,0L538.49764,0L538.49764,409.49291L0,409.49291z"/>
				</clipPath>
				<path clip-path="url(#SVG_CP_1)" fill="#FFFFFF" fill-rule="evenodd" stroke="#6E6E6E" stroke-width="0.4799" stroke-miterlimit="10" stroke-linecap="round" stroke-linejoin="round" d="
					M145.89,-20.40065L146.8498,-18.72059L149.48926,-18.9606L151.88877,-20.40065L485.66014,-20.40065L489.2594,-10.56034L486.37999,-6.2402
					L507.2557,-9.3603L509.6552,-6.00019L519.49318,-9.3603L527.41155,-8.40027L531.49071,-5.04016L528.37135,7.68024L530.29096,13.44043
					L522.37259,12.4804L526.45175,14.88047L531.73066,14.64046L533.89022,-2.88009L544.44805,-5.28017L548.76716,-0.96003L550.20686,14.88047
					L547.08751,21.60068L539.88899,17.52056L529.81106,34.32109L521.65274,39.84126L501.49688,34.08108L499.33732,31.441L504.13634,27.36087
					L504.85619,23.76075L500.29713,21.60068L501.97678,24.48078L492.85866,26.16083L493.33856,32.40103L488.53955,34.5611L463.34473,23.76075
					L471.02315,32.64103L489.2594,39.36125L494.29836,45.36144L495.73807,42.24134L498.85742,42.96136L501.01698,47.04149L492.61871,53.04168
					L494.77826,55.68176L493.57851,61.44195L490.2192,64.56205L479.42142,67.68214L473.6626,64.08203L473.42265,60.96193L466.94399,59.28188
					L463.34473,59.52189L462.86482,61.20194L469.82339,62.16197L475.34226,71.28226L492.13881,73.44233L490.6991,68.64217L499.57728,68.16216
					L504.85619,65.04206L506.29589,70.56224L510.1351,70.80224L512.29466,68.16216L513.25446,70.32223L503.41649,82.80262L493.57851,87.84278
					L466.70404,89.52284L460.46532,84.48268L461.66507,90.48287L459.98542,92.40293L432.87099,110.88351L431.43129,109.68348L431.91119,111.36353
					L422.55311,119.52379L415.35459,128.16406L413.43499,137.52436L411.51538,138.24438L409.35583,128.40407L409.35583,143.52455
					L404.55681,149.52474L370.24387,151.92481L301.61798,81.60259L230.11268,80.40255L231.07249,70.80224L221.95436,58.56186L214.99579,63.36201
					L213.31614,61.20194L215.71564,58.08184L214.51589,54.72173L156.20788,51.84164L131.01306,52.32166L129.81331,50.16159L126.69395,53.28169
					L111.09716,56.8818L110.3773,59.28188L84.70258,66.2421L29.03403,67.20213L7.67842,67.20213L9.83798,50.16159L13.91714,46.08146
					L16.79655,47.76151L21.83551,47.2815L25.43477,45.36144L27.35438,34.8011L30.95364,31.20099L42.23132,23.52075L52.5492,22.0807
					L59.26781,23.04073L69.58569,15.8405L72.4651,15.60049L75.82441,10.80034L82.30308,7.20023L92.14105,6.48021L97.18002,-1.20004
					L96.70012,-5.52018L97.89987,-7.20023L103.41874,-5.04016L106.29814,-11.28036L113.73661,-15.36049L117.09592,-12.96041L116.61602,-8.40027
					L119.49543,-7.68024L124.53439,-10.80034L128.61355,-17.04054L134.37237,-20.40065L145.89,-20.40065zM545.40785,-20.40065L545.6478,-19.92063
					L545.6478,-16.80053L542.28849,-19.44062L541.80859,-20.40065L545.40785,-20.40065zM515.65397,-20.40065L515.65397,-19.92063
					L502.69663,-17.52056L506.53584,-15.8405L500.05718,-11.76037L495.49811,-12.00038L492.13881,-16.32052L493.09861,-14.16045L
					489.49935,-15.12048L488.05964,-20.40065L515.65397,-20.40065zM550.92672,-20.40065L561.7245,5.28017L551.88652,-15.12048L549.48701,-15.12048
					L548.04731,-20.40065L550.92672,-20.40065zM565.32376,31.92101L562.92425,48.72154L548.76716,51.60164L552.60637,48.24153L563.1642,44.64141
					L565.32376,28.56091L565.32376,31.92101zM565.32376,16.32052L565.08381,14.40046L562.44435,6.72021L565.32376,13.92044L565.32376,16.32052
					zM531.97061,60.96193L534.61007,57.36182L548.04731,51.36163L531.97061,60.96193zM498.61747,97.9231L497.89762,96.24305L505.81599,84.72268
					L514.93412,75.8424L498.61747,97.9231z"/>
			</g>
		</g>
	</g>
</svg>
