<?xml version="1.0" encoding="utf-8" standalone="no"?>
<!-- Creator: Esri ArcMap 10.1.0.3035 -->
<!DOCTYPE svg PUBLIC "-//W3C//DTD SVG 1.1//EN"  "http://www.w3.org/Graphics/SVG/1.1/DTD/svg11.dtd">
<svg width="538.49764pt" height="409.49291pt" viewBox="0 0 538.49764 409.49291" enable-background="new 0 0 538.49764 409.49291"
	version="1.1" xmlns="http://www.w3.org/2000/svg" xmlns:xlink="http://www.w3.org/1999/xlink" >
	<g id="SE_States">
		<g id="States">
			<g id="SC_State">
				<clipPath id="SVG_CP_1">
					<path d="M0,409.49291L0,0L538.49764,0L538.49764,409.49291L0,409.49291z"/>
				</clipPath>
				<path clip-path="url(#SVG_CP_1)" fill="none" stroke="#000000" stroke-width="0.4799" stroke-miterlimit="10" stroke-linecap="round" stroke-linejoin="round" d="
					M169.64512,204.00646L163.64635,200.16634L165.32601,198.24628L163.16645,196.32622L164.3662,195.36619L162.20665,195.36619L
					158.36744,192.24609L158.12749,187.92595L159.80714,187.20593L158.36744,183.1258L150.20911,175.20555L142.29074,171.60544L137.49173,161.0451
					L132.21281,155.52493L118.05573,145.92462L116.37607,140.16444L107.9778,130.08412L106.05819,121.44385L101.49913,114.72363L
					99.57952,108.00342L87.82194,105.60335L80.86337,97.20308L76.30431,96.00304L69.82564,91.20289L69.10579,87.36277L71.0254,82.80262
					L74.14475,80.64256L76.06436,75.6024L84.22268,71.28226L83.26288,69.84221L84.70258,66.2421L110.3773,59.28188L111.09716,56.8818
					L126.69395,53.28169L129.81331,50.16159L131.01306,52.32166L156.20788,51.84164L214.51589,54.72173L215.71564,58.08184L213.31614,61.20194
					L214.99579,63.36201L221.95436,58.56186L231.07249,70.80224L230.11268,80.40255L301.61798,81.60259L370.24387,151.92481L367.60441,153.12485
					L369.76397,154.08488L352.96742,164.40521L343.60935,175.44556L336.17088,186.00589L334.25127,194.64617L333.77137,192.72611
					L326.57285,196.32622L330.89196,204.72649L329.21231,207.84658L321.77384,206.88655L324.89319,208.08659L325.61305,210.72668
					L317.69467,217.6869L306.8969,217.44689L304.73734,220.08697L306.65694,224.1671L305.45719,226.08716L296.33907,234.00741L286.50109,234.24742
					L293.21971,223.92709L286.50109,229.20726L285.06139,225.12713L282.90183,225.84715L283.86163,232.80738L287.46089,238.56756
					L287.22094,242.88769L280.74227,248.16786L267.30504,251.52797L262.26607,255.84811L258.66681,255.12808L256.02736,244.56775
					L254.3477,243.36771L255.3075,255.84811L250.26854,255.36809L245.94943,251.76798L246.66928,255.36809L239.71071,254.64807L239.95066,256.32812
					L250.02859,261.36828L252.66805,265.68842L251.46829,269.76855L241.15041,273.12865L237.79111,272.16862L230.11268,258.24818
					L231.07249,255.84811L225.79357,253.68804L231.31244,275.04871L224.35387,288.48914L210.91663,285.60905L210.19678,279.36885
					L208.27717,276.72877L209.71688,272.88865L209.23698,268.56851L206.11762,265.68842L205.15782,258.7282L200.11885,252.00798L
					194.36004,250.08792L191.48063,246.72782L190.76078,231.36733L186.92156,228.00722L188.12132,226.32717L185.24191,222.48705L
					186.44166,218.16691L184.04216,215.28682L170.84487,207.60658L169.64512,204.00646M232.03229,274.08868L235.15165,273.12865L
					238.51096,276.96877L228.91293,285.60905L232.03229,274.08868"/>
			</g>
		</g>
	</g>
</svg>
