<?xml version="1.0" encoding="utf-8"?>
<!-- Generator: Adobe Illustrator 17.1.0, SVG Export Plug-In . SVG Version: 6.00 Build 0)  -->
<!DOCTYPE svg PUBLIC "-//W3C//DTD SVG 1.1//EN" "http://www.w3.org/Graphics/SVG/1.1/DTD/svg11.dtd">
<svg version="1.1" id="Layer_1" xmlns="http://www.w3.org/2000/svg" xmlns:xlink="http://www.w3.org/1999/xlink" x="0px" y="0px"
	 viewBox="0 0 25 25" enable-background="new 0 0 25 25" xml:space="preserve">
<path fill="#F4EC53" d="M5,0C2.2,0,0,2.2,0,5v15c0,2.8,2.2,5,5,5h15c2.8,0,5-2.2,5-5V5c0-2.8-2.2-5-5-5H5z"/>
<g>
	<path fill-rule="evenodd" clip-rule="evenodd" fill="#333333" d="M15.3,12.9C12,13.8,9.5,16.6,6,16.8c-0.1-0.1,2.9-3.5,4.5-5.1
		c-0.5-0.6-1-1.2-1.4-1.8C8.6,9.4,8.2,9.4,7.6,9.8c-1.2,0.8-3.7,2.6-3.9,2.7c-0.1,0.1-1,0.6-1.3,0.3c-0.2-0.3-0.1-1,0.2-1.3
		c1.7-1.6,3.5-3.1,5.3-4.6C8.2,6.6,9,6.5,9.2,6.8c2,1.8,3.9,3.7,5.9,5.6C15.2,12.4,15.2,12.6,15.3,12.9z"/>
	<path fill-rule="evenodd" clip-rule="evenodd" fill="#333333" d="M0.8,18.2c4.2,1.3,8,0.4,11.7-1.5c2-1,3.9-1.9,6-2.6
		c2-0.6,4.2-0.1,6.1,0.8c-0.9,0.2-1.9,0.1-2.8,0.3c-2.9,0.4-5.5,1.6-8,3.2c-2.5,1.6-5.2,2.5-8.2,2.3C3.8,20.4,1.9,19.5,0.8,18.2z"/>
	<path fill-rule="evenodd" clip-rule="evenodd" fill="#333333" d="M20.2,7.8c0.4,1.4-0.4,2.8-1.9,3.2c-1.5,0.4-2.9-0.5-3.2-1.9
		c-0.3-1.4,0.5-2.9,1.9-3.2C18.4,5.5,19.9,6.4,20.2,7.8z"/>
</g>
</svg>
