<?xml version="1.0" encoding="utf-8"?>
<!-- Generator: Adobe Illustrator 16.0.0, SVG Export Plug-In . SVG Version: 6.00 Build 0)  -->
<!DOCTYPE svg PUBLIC "-//W3C//DTD SVG 1.1//EN" "http://www.w3.org/Graphics/SVG/1.1/DTD/svg11.dtd">
<svg version="1.1" id="Layer_1" xmlns="http://www.w3.org/2000/svg" xmlns:xlink="http://www.w3.org/1999/xlink" x="0px" y="0px"
	 width="511.48px" height="167.311px" viewBox="0 0 511.48 167.311" enable-background="new 0 0 511.48 167.311"
	 xml:space="preserve">
<path fill="#A6A8AB" d="M511.48,144.699c0,12.486-10.121,22.611-22.605,22.611H22.61C10.125,167.311,0,157.186,0,144.699V22.61
	C0,10.125,10.125,0,22.61,0h466.265c12.484,0,22.605,10.125,22.605,22.61V144.699z"/>
<g>
	<path fill="#FFFFFF" d="M64.44,51.221c-1.267-1.143-5.069-0.651-6.469,0.516c-8.855,7.386-17.682,14.739-26.077,22.652
		c-1.553,1.465-2.229,4.897-1.005,6.353c1.222,1.458,5.721-0.954,6.33-1.415c0.706-0.413,13.5-9.339,19.187-13.336
		c2.813-1.979,5.11-1.951,7.241,1.088c2.064,2.948,4.415,5.695,6.814,8.751c-7.811,7.879-22.468,24.403-22.168,24.97
		c17.442-1.012,29.632-15.021,46.115-19.467c-0.467-1.515-0.674-2.312-1.081-2.705C83.766,69.415,74.292,60.108,64.44,51.221z"/>
	<path fill="#FFFFFF" d="M109.95,87.203C99.506,90.57,90.25,94.901,80.511,100c-18.083,9.467-36.57,13.97-57.525,7.48
		c5.158,6.611,14.605,11.233,23.23,11.928c14.859,1.191,28.34-3.484,40.502-11.158c12.319-7.771,25.002-13.951,39.389-15.822
		c4.551-0.593,9.3-0.547,13.828-1.295C130.493,86.652,119.723,84.052,109.95,87.203z"/>
	<path fill="#FFFFFF" d="M102.873,46.783c-6.896,1.71-11.12,8.781-9.435,15.789c1.754,7.291,8.81,11.53,15.999,9.613
		c6.957-1.856,10.983-8.819,9.175-15.876C116.833,49.354,109.762,45.075,102.873,46.783z"/>
</g>
<g>
	<path fill="#FFFFFF" d="M185.206,103.799l-14.584-40.801h8.934l10.326,30.198l9.992-30.198h8.739l-14.612,40.801H185.206z"/>
	<path fill="#FFFFFF" d="M211.73,70.234v-7.236h7.821v7.236H211.73z M211.73,103.799V74.242h7.821v29.557H211.73z"/>
	<path fill="#FFFFFF" d="M244.683,94.393l7.793,1.308c-1.002,2.857-2.584,5.033-4.745,6.526c-2.162,1.494-4.867,2.24-8.113,2.24
		c-5.14,0-8.944-1.679-11.411-5.037c-1.948-2.689-2.922-6.086-2.922-10.187c0-4.898,1.28-8.734,3.841-11.508
		s5.798-4.161,9.713-4.161c4.397,0,7.867,1.452,10.409,4.355c2.542,2.904,3.757,7.352,3.646,13.346H233.3
		c0.056,2.319,0.686,4.123,1.893,5.412c1.206,1.291,2.709,1.936,4.509,1.936c1.225,0,2.254-0.334,3.089-1.002
		S244.256,95.877,244.683,94.393z M245.128,86.488c-0.056-2.264-0.64-3.985-1.753-5.164c-1.113-1.178-2.468-1.767-4.063-1.767
		c-1.708,0-3.117,0.622-4.23,1.865c-1.113,1.243-1.661,2.932-1.642,5.066H245.128z"/>
	<path fill="#FFFFFF" d="M264.777,103.799l-9.351-29.557h7.598l5.538,19.372l5.094-19.372h7.543l4.926,19.372l5.65-19.372h7.709
		l-9.49,29.557h-7.516l-5.093-19.009l-5.01,19.009H264.777z"/>
	<path fill="#FFFFFF" d="M317.826,83.649c0-4.156,0.621-7.644,1.865-10.465c0.928-2.078,2.193-3.942,3.799-5.594
		c1.604-1.651,3.363-2.876,5.273-3.674c2.543-1.076,5.475-1.614,8.795-1.614c6.012,0,10.822,1.865,14.432,5.594
		c3.607,3.729,5.414,8.916,5.414,15.558c0,6.587-1.791,11.741-5.373,15.46c-3.58,3.721-8.367,5.581-14.361,5.581
		c-6.066,0-10.891-1.851-14.473-5.552C319.617,95.24,317.826,90.144,317.826,83.649z M326.314,83.371
		c0,4.62,1.066,8.123,3.201,10.506c2.133,2.385,4.844,3.576,8.127,3.576c3.285,0,5.979-1.182,8.086-3.549
		c2.105-2.365,3.158-5.914,3.158-10.645c0-4.676-1.025-8.164-3.076-10.465c-2.049-2.3-4.771-3.451-8.168-3.451
		c-3.395,0-6.133,1.165-8.211,3.493S326.314,78.677,326.314,83.371z"/>
	<path fill="#FFFFFF" d="M390.662,103.799h-7.82V88.715c0-3.191-0.168-5.256-0.502-6.193s-0.877-1.666-1.627-2.185
		c-0.752-0.519-1.656-0.779-2.715-0.779c-1.354,0-2.57,0.372-3.645,1.113c-1.078,0.742-1.814,1.726-2.213,2.95
		c-0.4,1.225-0.6,3.488-0.6,6.791v13.387h-7.82V74.242h7.264v4.342c2.58-3.34,5.826-5.01,9.742-5.01c1.725,0,3.303,0.311,4.73,0.933
		c1.43,0.622,2.51,1.415,3.242,2.379c0.734,0.965,1.244,2.06,1.531,3.284s0.432,2.978,0.432,5.26V103.799z"/>
	<path fill="#FFFFFF" d="M398.596,103.799V62.998h7.82v40.801H398.596z"/>
	<path fill="#FFFFFF" d="M414.432,70.234v-7.236h7.82v7.236H414.432z M414.432,103.799V74.242h7.82v29.557H414.432z"/>
	<path fill="#FFFFFF" d="M457.152,103.799h-7.82V88.715c0-3.191-0.168-5.256-0.502-6.193s-0.877-1.666-1.627-2.185
		c-0.752-0.519-1.656-0.779-2.715-0.779c-1.354,0-2.57,0.372-3.645,1.113c-1.078,0.742-1.814,1.726-2.213,2.95
		c-0.4,1.225-0.6,3.488-0.6,6.791v13.387h-7.82V74.242h7.264v4.342c2.58-3.34,5.826-5.01,9.742-5.01c1.725,0,3.303,0.311,4.73,0.933
		c1.43,0.622,2.51,1.415,3.242,2.379c0.734,0.965,1.244,2.06,1.531,3.284s0.432,2.978,0.432,5.26V103.799z"/>
	<path fill="#FFFFFF" d="M482.201,94.393l7.793,1.308c-1.002,2.857-2.584,5.033-4.744,6.526c-2.162,1.494-4.867,2.24-8.113,2.24
		c-5.141,0-8.943-1.679-11.412-5.037c-1.947-2.689-2.922-6.086-2.922-10.187c0-4.898,1.281-8.734,3.842-11.508
		s5.797-4.161,9.713-4.161c4.396,0,7.867,1.452,10.408,4.355c2.543,2.904,3.758,7.352,3.646,13.346h-19.594
		c0.057,2.319,0.686,4.123,1.893,5.412c1.205,1.291,2.709,1.936,4.51,1.936c1.225,0,2.254-0.334,3.088-1.002
		C481.145,96.953,481.775,95.877,482.201,94.393z M482.646,86.488c-0.055-2.264-0.639-3.985-1.752-5.164
		c-1.113-1.178-2.469-1.767-4.064-1.767c-1.707,0-3.117,0.622-4.23,1.865c-1.113,1.243-1.66,2.932-1.643,5.066H482.646z"/>
</g>
</svg>
