<?xml version="1.0" encoding="utf-8"?>
<!-- Generator: Adobe Illustrator 16.0.0, SVG Export Plug-In . SVG Version: 6.00 Build 0)  -->
<!DOCTYPE svg PUBLIC "-//W3C//DTD SVG 1.1//EN" "http://www.w3.org/Graphics/SVG/1.1/DTD/svg11.dtd">
<svg version="1.1" id="Layer_1" xmlns="http://www.w3.org/2000/svg" xmlns:xlink="http://www.w3.org/1999/xlink" x="0px" y="0px"
	 width="511.48px" height="167.311px" viewBox="0 0 511.48 167.311" enable-background="new 0 0 511.48 167.311"
	 xml:space="preserve">
<path fill="#A7A9AC" d="M511.48,144.7c0,12.486-10.121,22.611-22.605,22.611H22.61C10.125,167.311,0,157.186,0,144.7V22.61
	C0,10.125,10.125,0,22.61,0h466.264c12.484,0,22.605,10.125,22.605,22.61V144.7z"/>
<g id="PLAY">
	<defs>
		<path id="SVGID_1_" d="M110.844,73.207L87.781,59.892c0,0-42.016-24.261-44.486-25.686c-2.47-1.426-4.931-0.562-4.931,2.417
			c0,4.965,0,51.8,0,51.8s0,50.615,0,52.85c0,2.234,1.759,3.198,3.905,1.959c2.145-1.24,45.512-26.279,45.512-26.279l23.062-13.314
			c0,0,19.568-11.297,22.169-12.798c2.601-1.502,2.351-3.563,0.156-4.746S110.844,73.207,110.844,73.207z"/>
	</defs>
	<clipPath id="SVGID_2_">
		<use xlink:href="#SVGID_1_"  overflow="visible"/>
	</clipPath>
	<linearGradient id="SVGID_3_" gradientUnits="userSpaceOnUse" x1="66.9316" y1="31.771" x2="66.9316" y2="145.0747">
		<stop  offset="0" style="stop-color:#257CB0"/>
		<stop  offset="0.2863" style="stop-color:#4A93B5"/>
		<stop  offset="0.767" style="stop-color:#78BCBB"/>
		<stop  offset="1" style="stop-color:#89CFBD"/>
	</linearGradient>
	<polygon clip-path="url(#SVGID_2_)" fill="url(#SVGID_3_)" points="38.365,31.771 38.365,88.423 38.365,145.075 95.499,88.424 	"/>
	<linearGradient id="SVGID_4_" gradientUnits="userSpaceOnUse" x1="38.3647" y1="59.8916" x2="110.8442" y2="59.8916">
		<stop  offset="0" style="stop-color:#52C1AD"/>
		<stop  offset="1" style="stop-color:#DEE89A"/>
	</linearGradient>
	<polygon clip-path="url(#SVGID_2_)" fill="url(#SVGID_4_)" points="110.844,73.207 87.781,59.892 38.365,31.359 38.365,31.771 
		95.499,88.424 	"/>
	<linearGradient id="SVGID_5_" gradientUnits="userSpaceOnUse" x1="74.604" y1="88.4238" x2="74.604" y2="145.4858">
		<stop  offset="0" style="stop-color:#EC413D"/>
		<stop  offset="0.1668" style="stop-color:#DA4452"/>
		<stop  offset="0.5748" style="stop-color:#B0487A"/>
		<stop  offset="0.8619" style="stop-color:#954A92"/>
		<stop  offset="1" style="stop-color:#8A4A9D"/>
	</linearGradient>
	<polygon clip-path="url(#SVGID_2_)" fill="url(#SVGID_5_)" points="38.365,145.075 38.365,145.486 87.781,116.953 110.843,103.639 
		95.499,88.424 	"/>
	<linearGradient id="SVGID_6_" gradientUnits="userSpaceOnUse" x1="116.3496" y1="73.207" x2="116.3496" y2="103.6387">
		<stop  offset="0" style="stop-color:#F58879"/>
		<stop  offset="0.1194" style="stop-color:#F69079"/>
		<stop  offset="0.7128" style="stop-color:#FCB877"/>
		<stop  offset="1" style="stop-color:#FEC874"/>
	</linearGradient>
	<polygon clip-path="url(#SVGID_2_)" fill="url(#SVGID_6_)" points="110.844,73.207 95.499,88.424 110.843,103.639 137.2,88.423 	
		"/>
</g>
<g>
	<path fill="#F9F9F9" d="M398.058,110.571c-2.146,0-4.104-0.396-5.877-1.187c-1.773-0.792-3.263-2.01-4.466-3.652h-0.36
		c0.24,1.924,0.36,3.749,0.36,5.472v13.559h-4.988V77.02h4.058l0.69,4.51h0.24c1.284-1.804,2.778-3.106,4.481-3.909
		c1.703-0.801,3.658-1.203,5.861-1.203c4.37,0,7.743,1.494,10.117,4.48c2.375,2.987,3.563,7.176,3.563,12.567
		c0,5.412-1.208,9.615-3.621,12.614C405.701,109.074,402.349,110.571,398.058,110.571z M397.336,80.657
		c-3.367,0-5.802,0.932-7.305,2.796c-1.503,1.864-2.275,4.831-2.316,8.9v1.111c0,4.63,0.772,7.943,2.316,9.938
		c1.544,1.994,4.02,2.991,7.425,2.991c2.848,0,5.078-1.152,6.692-3.457c1.612-2.304,2.419-5.481,2.419-9.532
		c0-4.108-0.807-7.261-2.419-9.455C402.535,81.754,400.263,80.657,397.336,80.657z"/>
	<path fill="#F9F9F9" d="M423.293,109.97h-4.99v-46.78h4.99V109.97z"/>
	<path fill="#F9F9F9" d="M451.986,109.97l-0.993-4.69h-0.24c-1.644,2.066-3.282,3.464-4.916,4.194
		c-1.633,0.733-3.673,1.098-6.117,1.098c-3.267,0-5.827-0.842-7.682-2.525s-2.781-4.077-2.781-7.185
		c0-6.653,5.322-10.141,15.964-10.463l5.594-0.181v-2.044c0-2.586-0.557-4.496-1.67-5.727c-1.111-1.234-2.893-1.85-5.336-1.85
		c-2.747,0-5.854,0.842-9.32,2.525l-1.534-3.818c1.625-0.881,3.402-1.573,5.338-2.074c1.934-0.5,3.872-0.752,5.817-0.752
		c3.928,0,6.839,0.872,8.734,2.616c1.893,1.744,2.84,4.54,2.84,8.388v22.488H451.986z M440.712,106.453
		c3.105,0,5.545-0.852,7.32-2.554c1.772-1.703,2.661-4.089,2.661-7.158v-2.976l-4.993,0.209c-3.968,0.142-6.827,0.756-8.583,1.851
		c-1.753,1.092-2.63,2.791-2.63,5.096c0,1.804,0.545,3.177,1.639,4.118C437.219,105.982,438.746,106.453,440.712,106.453z"/>
	<path fill="#F9F9F9" d="M458.581,77.02h5.35l7.216,18.791c1.583,4.291,2.566,7.386,2.948,9.292h0.24
		c0.261-1.024,0.808-2.772,1.638-5.249c0.832-2.475,3.554-10.085,8.162-22.833h5.354l-14.162,37.521
		c-1.402,3.708-3.041,6.339-4.917,7.895c-1.873,1.552-4.174,2.328-6.897,2.328c-1.524,0-3.027-0.171-4.512-0.51v-3.998
		c1.102,0.24,2.336,0.361,3.699,0.361c3.428,0,5.871-1.924,7.336-5.773l1.833-4.69L458.581,77.02z"/>
</g>
<g>
	<path fill="#F9F9F9" d="M305.609,80.081c1.584,1.311,4.892,4.066,4.892,9.306c0,5.097-2.895,7.514-5.79,9.785
		c-0.896,0.894-1.93,1.864-1.93,3.381c0,1.513,1.033,2.341,1.794,2.962l2.482,1.926c3.032,2.551,5.786,4.896,5.786,9.654
		c0,6.477-6.272,13.023-18.124,13.023c-9.995,0-14.817-4.754-14.817-9.857c0-2.481,1.235-5.994,5.307-8.409
		c4.27-2.619,10.063-2.96,13.163-3.171c-0.968-1.24-2.068-2.549-2.068-4.683c0-1.169,0.346-1.86,0.689-2.69
		c-0.761,0.07-1.518,0.138-2.208,0.138c-7.303,0-11.438-5.445-11.438-10.817c0-3.171,1.449-6.688,4.409-9.236
		c3.93-3.239,8.616-3.792,12.341-3.792h14.194l-4.411,2.481H305.609z M300.714,110.684c-0.551-0.072-0.897-0.072-1.583-0.072
		c-0.62,0-4.347,0.14-7.238,1.108c-1.516,0.547-5.928,2.201-5.928,7.097c0,4.89,4.758,8.411,12.133,8.411
		c6.612,0,10.131-3.177,10.131-7.447C308.229,116.26,305.954,114.406,300.714,110.684z M302.714,97.587
		c1.583-1.587,1.719-3.79,1.719-5.032c0-4.961-2.962-12.681-8.681-12.681c-1.794,0-3.722,0.895-4.825,2.275
		c-1.17,1.448-1.518,3.306-1.518,5.101c0,4.616,2.688,12.267,8.618,12.267C299.75,99.517,301.607,98.69,302.714,97.587z"/>
	<path fill="#F9F9F9" d="M262.22,109.58c-10.939,0-16.788-8.533-16.788-16.241c0-9.015,7.361-16.718,17.824-16.718
		c10.11,0,16.441,7.911,16.441,16.239C279.698,100.976,273.439,109.58,262.22,109.58z M270.82,104.007
		c1.654-2.204,2.067-4.954,2.067-7.641c0-6.056-2.89-17.614-11.423-17.614c-2.27,0-4.54,0.896-6.191,2.343
		c-2.684,2.405-3.168,5.434-3.168,8.396c0,6.807,3.372,18.021,11.7,18.021C266.488,107.512,269.241,106.207,270.82,104.007z"/>
	<path fill="#F9F9F9" d="M224.925,109.58c-10.941,0-16.79-8.533-16.79-16.241c0-9.015,7.364-16.718,17.824-16.718
		c10.114,0,16.444,7.911,16.444,16.239C242.402,100.976,236.142,109.58,224.925,109.58z M233.526,104.007
		c1.652-2.204,2.066-4.954,2.066-7.641c0-6.056-2.892-17.614-11.425-17.614c-2.269,0-4.541,0.896-6.191,2.343
		c-2.684,2.405-3.165,5.434-3.165,8.396c0,6.807,3.37,18.021,11.699,18.021C229.194,107.512,231.944,106.207,233.526,104.007z"/>
	<path fill="#F9F9F9" d="M202.878,108.501l-9.894,2.283c-4.014,0.625-7.61,1.173-11.413,1.173
		c-19.096,0-26.357-14.043-26.357-25.043c0-13.419,10.306-25.869,27.949-25.869c3.737,0,7.331,0.552,10.582,1.452
		c5.188,1.453,7.609,3.25,9.132,4.289l-5.744,5.466l-2.42,0.551l1.729-2.769c-2.351-2.281-6.644-6.499-14.804-6.499
		c-10.931,0-19.165,8.304-19.165,20.409c0,13.002,9.41,25.248,24.488,25.248c4.432,0,6.71-0.898,8.787-1.73V96.326l-10.444,0.553
		l5.532-2.978h14.667l-1.797,1.729c-0.488,0.417-0.555,0.557-0.693,1.105c-0.072,0.625-0.137,2.632-0.137,3.323V108.501z"/>
	<path fill="#F9F9F9" d="M327.474,106.51c-2.284-0.208-2.762-0.621-2.762-3.323v-0.761V64.033c0.014-0.149,0.023-0.302,0.037-0.446
		c0.279-2.42,0.97-2.835,3.117-4.082h-9.896l-5.19,2.491h5.289v0.032l-0.004-0.025v40.424v2.285c0,1.381-0.273,1.59-1.866,3.664
		h12.246l2.56-1.519C329.83,106.715,328.652,106.647,327.474,106.51z"/>
	<path fill="#F9F9F9" d="M355.624,107.146c-0.753,0.414-1.509,0.896-2.262,1.238c-2.271,1.03-4.606,1.305-6.671,1.305
		c-2.193,0-5.631-0.142-9.138-2.681c-4.874-3.437-7.004-9.345-7.004-14.497c0-10.647,8.656-15.868,15.732-15.868
		c2.474,0,5.019,0.617,7.08,1.924c3.432,2.263,4.325,5.217,4.803,6.797l-16.141,6.529l-5.291,0.413
		c1.715,8.725,7.623,13.805,14.152,13.805c3.503,0,6.046-1.235,8.381-2.401L355.624,107.146z M349.168,86.67
		c1.303-0.48,1.99-0.893,1.99-1.854c0-2.747-3.09-5.909-6.803-5.909c-2.751,0-7.9,2.131-7.9,9.55c0,1.168,0.138,2.404,0.209,3.644
		L349.168,86.67z"/>
	<g>
		<path fill="#F9F9F9" d="M362.255,77.112v4.533h-0.551v-4.533h-1.5v-0.469h3.55v0.469H362.255z"/>
		<path fill="#F9F9F9" d="M368.435,81.646V77.07h-0.025l-1.396,4.576h-0.431l-1.408-4.576h-0.018v4.576h-0.5v-5.002h0.857
			l1.274,4.043h0.018l1.255-4.043h0.869v5.002H368.435z"/>
	</g>
</g>
<g>
	<path fill="#F9F9FA" d="M168.954,47.575h-3.438c0-0.473-0.326-1.812-0.978-4.018h-4.963c-0.673,2.17-1.01,3.509-1.01,4.018h-3.233
		c0-0.279,0.836-2.571,2.508-6.875c1.672-4.304,2.508-6.674,2.508-7.111h4.061c0,0.408,0.757,2.745,2.272,7.009
		S168.954,47.188,168.954,47.575z M163.991,41.506c-1.225-3.695-1.837-5.693-1.837-5.994h-0.172c0,0.279-0.634,2.277-1.901,5.994
		H163.991z"/>
	<path fill="#F9F9FA" d="M182.806,47.575h-2.653c0-0.293-0.985-1.844-2.954-4.651c-2.062-2.958-3.237-4.98-3.523-6.069h-0.172
		c0.179,1.568,0.269,2.986,0.269,4.254c0,1.769,0.05,3.925,0.15,6.467h-2.643c0.107-2.22,0.161-4.658,0.161-7.315
		c0-2.614-0.054-4.837-0.161-6.671h3.19c0,0.38,0.884,1.895,2.653,4.544c1.883,2.814,2.965,4.723,3.244,5.726h0.161
		c-0.172-1.597-0.258-3.029-0.258-4.297c0-1.94-0.05-3.932-0.15-5.973h2.686c-0.101,1.776-0.15,4-0.15,6.671
		C182.655,42.953,182.705,45.391,182.806,47.575z"/>
	<path fill="#F9F9FA" d="M198.375,40.099c0,2.034-0.652,3.81-1.955,5.328c-1.304,1.519-3.13,2.277-5.479,2.277
		c-1.06,0-2.521-0.043-4.383-0.129c0.093-2.163,0.14-4.601,0.14-7.315c0-2.606-0.047-4.83-0.14-6.671h1.88
		c0.308,0,0.766-0.011,1.375-0.032c0.608-0.021,1.006-0.032,1.192-0.032c2.585,0,4.459,0.645,5.624,1.934
		C197.793,36.747,198.375,38.294,198.375,40.099z M195.443,40.561c0-1.375-0.401-2.533-1.203-3.475
		c-0.802-0.941-2.027-1.413-3.674-1.413c-0.308,0-0.73,0.032-1.268,0.097c0.071,1.433,0.107,2.929,0.107,4.49
		c0,1.712,0.036,3.409,0.107,5.092c0.465,0.093,0.931,0.14,1.396,0.14c1.54,0,2.68-0.478,3.421-1.434S195.443,41.936,195.443,40.561
		z"/>
	<path fill="#F9F9FA" d="M212.732,47.575h-3.18c-0.831-2.535-1.468-4.1-1.912-4.694c-0.444-0.594-1.16-0.892-2.148-0.892
		c-0.416,0-0.813,0.004-1.192,0.011c0,1.841,0.032,3.699,0.097,5.575h-2.986c0.093-2.163,0.14-4.601,0.14-7.315
		c0-2.606-0.047-4.83-0.14-6.671h1.858c0.215,0,0.664-0.011,1.348-0.032c0.684-0.021,1.316-0.032,1.896-0.032
		c3.287,0,4.931,1.125,4.931,3.373c0,1.783-0.938,3.026-2.814,3.728v0.161c0.723,0.201,1.357,0.765,1.901,1.692
		C211.074,43.406,211.808,45.104,212.732,47.575z M208.704,37.692c0-1.425-0.917-2.138-2.75-2.138c-0.673,0-1.268,0.05-1.783,0.15
		c0.079,1.11,0.118,2.557,0.118,4.34c0.394,0.015,0.727,0.021,0.999,0.021C207.565,40.066,208.704,39.275,208.704,37.692z"/>
	<path fill="#F9F9FA" d="M228.13,40.324c0,2.199-0.673,4.021-2.02,5.468c-1.347,1.447-3.012,2.17-4.995,2.17
		c-1.891,0-3.474-0.664-4.748-1.993c-1.275-1.328-1.912-3.017-1.912-5.065c0-2.198,0.673-4.021,2.02-5.468
		c1.346-1.446,3.011-2.17,4.995-2.17c1.891,0,3.473,0.663,4.748,1.987C227.493,36.579,228.13,38.269,228.13,40.324z M225.166,40.636
		c0-1.497-0.383-2.71-1.149-3.642c-0.767-0.931-1.712-1.396-2.836-1.396c-1.046,0-1.934,0.469-2.664,1.407
		c-0.73,0.938-1.096,2.124-1.096,3.556c0,1.49,0.385,2.702,1.155,3.636c0.77,0.935,1.713,1.402,2.831,1.402
		c1.045,0,1.934-0.471,2.664-1.413C224.8,43.245,225.166,42.061,225.166,40.636z"/>
	<path fill="#F9F9FA" d="M234.204,47.575h-3.04c0.093-2.22,0.14-4.658,0.14-7.315c0-2.614-0.047-4.837-0.14-6.671h3.04
		c-0.093,1.805-0.14,4.028-0.14,6.671C234.064,42.96,234.111,45.398,234.204,47.575z"/>
	<path fill="#F9F9FA" d="M249.774,40.099c0,2.034-0.652,3.81-1.955,5.328c-1.304,1.519-3.13,2.277-5.479,2.277
		c-1.06,0-2.521-0.043-4.383-0.129c0.093-2.163,0.14-4.601,0.14-7.315c0-2.606-0.047-4.83-0.14-6.671h1.88
		c0.308,0,0.766-0.011,1.375-0.032c0.608-0.021,1.006-0.032,1.192-0.032c2.585,0,4.459,0.645,5.624,1.934
		C249.192,36.747,249.774,38.294,249.774,40.099z M246.842,40.561c0-1.375-0.401-2.533-1.203-3.475
		c-0.802-0.941-2.027-1.413-3.674-1.413c-0.308,0-0.73,0.032-1.268,0.097c0.071,1.433,0.107,2.929,0.107,4.49
		c0,1.712,0.036,3.409,0.107,5.092c0.465,0.093,0.931,0.14,1.396,0.14c1.54,0,2.68-0.478,3.421-1.434S246.842,41.936,246.842,40.561
		z"/>
	<path fill="#F9F9FA" d="M270.43,47.575h-3.438c0-0.473-0.326-1.812-0.979-4.018h-4.963c-0.673,2.17-1.01,3.509-1.01,4.018h-3.232
		c0-0.279,0.836-2.571,2.508-6.875c1.672-4.304,2.508-6.674,2.508-7.111h4.061c0,0.408,0.758,2.745,2.272,7.009
		S270.43,47.188,270.43,47.575z M265.467,41.506c-1.225-3.695-1.838-5.693-1.838-5.994h-0.172c0,0.279-0.633,2.277-1.9,5.994
		H265.467z"/>
	<path fill="#F9F9FA" d="M282.96,37.252c0,1.712-0.636,2.976-1.907,3.792c-1.271,0.816-2.83,1.225-4.678,1.225
		c-0.337,0-0.576-0.007-0.72-0.021c0,1.347,0.039,3.123,0.118,5.328h-3.019c0.093-2.069,0.14-4.508,0.14-7.315
		c0-2.578-0.047-4.802-0.14-6.671h1.869c0.265,0,0.773-0.011,1.525-0.032s1.403-0.032,1.955-0.032c1.36,0,2.51,0.308,3.448,0.924
		C282.492,35.064,282.96,35.999,282.96,37.252z M280.189,37.843c0-1.532-1.017-2.299-3.051-2.299c-0.509,0-1.046,0.054-1.611,0.161
		c0.079,1.354,0.118,2.886,0.118,4.598c0.179,0.015,0.387,0.021,0.623,0.021C278.882,40.324,280.189,39.497,280.189,37.843z"/>
	<path fill="#F9F9FA" d="M295.844,37.252c0,1.712-0.636,2.976-1.906,3.792c-1.271,0.816-2.831,1.225-4.679,1.225
		c-0.337,0-0.576-0.007-0.72-0.021c0,1.347,0.039,3.123,0.118,5.328h-3.019c0.093-2.069,0.14-4.508,0.14-7.315
		c0-2.578-0.047-4.802-0.14-6.671h1.869c0.265,0,0.773-0.011,1.525-0.032s1.403-0.032,1.955-0.032c1.36,0,2.51,0.308,3.448,0.924
		C295.375,35.064,295.844,35.999,295.844,37.252z M293.073,37.843c0-1.532-1.017-2.299-3.051-2.299
		c-0.509,0-1.046,0.054-1.611,0.161c0.079,1.354,0.118,2.886,0.118,4.598c0.179,0.015,0.387,0.021,0.623,0.021
		C291.766,40.324,293.073,39.497,293.073,37.843z"/>
	<path fill="#F9F9FA" d="M316.909,40.324c0,2.199-0.673,4.021-2.02,5.468c-1.347,1.447-3.012,2.17-4.995,2.17
		c-1.891,0-3.474-0.664-4.748-1.993c-1.274-1.328-1.912-3.017-1.912-5.065c0-2.198,0.673-4.021,2.02-5.468
		c1.347-1.446,3.012-2.17,4.995-2.17c1.891,0,3.474,0.663,4.748,1.987C316.271,36.579,316.909,38.269,316.909,40.324z
		 M313.944,40.636c0-1.497-0.383-2.71-1.149-3.642c-0.767-0.931-1.712-1.396-2.836-1.396c-1.046,0-1.934,0.469-2.664,1.407
		c-0.73,0.938-1.096,2.124-1.096,3.556c0,1.49,0.385,2.702,1.155,3.636c0.77,0.935,1.713,1.402,2.83,1.402
		c1.046,0,1.934-0.471,2.664-1.413C313.579,43.245,313.944,42.061,313.944,40.636z"/>
	<path fill="#F9F9FA" d="M331.469,47.575h-2.653c0-0.293-0.984-1.844-2.954-4.651c-2.062-2.958-3.237-4.98-3.523-6.069h-0.172
		c0.179,1.568,0.269,2.986,0.269,4.254c0,1.769,0.05,3.925,0.15,6.467h-2.643c0.107-2.22,0.161-4.658,0.161-7.315
		c0-2.614-0.054-4.837-0.161-6.671h3.19c0,0.38,0.885,1.895,2.653,4.544c1.884,2.814,2.965,4.723,3.244,5.726h0.161
		c-0.172-1.597-0.258-3.029-0.258-4.297c0-1.94-0.05-3.932-0.15-5.973h2.686c-0.101,1.776-0.15,4-0.15,6.671
		C331.319,42.953,331.369,45.391,331.469,47.575z"/>
</g>
</svg>
