<?xml version="1.0" encoding="utf-8"?>
<!-- Generator: Adobe Illustrator 16.0.0, SVG Export Plug-In . SVG Version: 6.00 Build 0)  -->
<!DOCTYPE svg PUBLIC "-//W3C//DTD SVG 1.1//EN" "http://www.w3.org/Graphics/SVG/1.1/DTD/svg11.dtd">
<svg version="1.1" id="Layer_1" xmlns="http://www.w3.org/2000/svg" xmlns:xlink="http://www.w3.org/1999/xlink" x="0px" y="0px"
	 width="510.035px" height="164.798px" viewBox="0 0 510.035 164.798" enable-background="new 0 0 510.035 164.798"
	 xml:space="preserve">
<g>
	<path fill="#626567" d="M389.255,45.761c-10.82-1.025-19.166,3.838-23.889,13.701c-2.324,4.863-2.889,10.014-3.09,15.082
		c0.185,2.32,0.277,4.49,0.534,6.627c1.551,12.863,9.495,21.281,20.538,21.828c14.184,0.701,23.559-6.273,26.521-19.734
		c1.416-6.426,1.339-12.863-0.11-19.246C407.307,53.207,400.016,46.789,389.255,45.761z M398.577,85.333
		c-2.39,6.352-7.334,9.18-14.184,8.692c-5.21-0.385-8.778-3.819-10.547-10.077c-0.938-3.304-1.129-6.662-1.068-10.06
		c-0.129-3.729,0.304-7.377,1.719-10.863c2.4-5.896,6.233-8.461,12.427-8.315c6.114,0.137,10.071,2.949,12.021,8.906
		C401.315,70.861,401.26,78.207,398.577,85.333z"/>
	<path fill="#626567" d="M335.098,45.728c-13.055-0.971-22.854,6.889-25.688,20.777c-0.552,2.697-0.543,5.496-0.709,7.385
		c0.162,2.889,0.184,4.889,0.401,6.885c1.29,11.842,8.052,20.115,17.896,21.969c14.471,2.728,26.433-5.479,29.32-19.989
		c0.85-4.283,1.008-8.572,0.709-12.881C356.038,55.523,347.965,46.681,335.098,45.728z M344.946,85.373
		c-2.201,6.063-7.106,8.965-13.766,8.67c-5.346-0.242-9.1-3.533-10.889-9.666c-0.957-3.273-1.338-6.631-1.192-9.572
		c-0.124-4.188,0.248-7.828,1.603-11.346c2.32-6.015,6.129-8.799,12.138-8.771c6.396,0.029,10.396,2.767,12.465,8.953
		C347.722,70.89,347.543,78.222,344.946,85.373z"/>
	<path fill="#626567" d="M445.071,75.873c7.056-5.043,9.277-11.58,6.986-18.881c-1.973-6.298-7.512-10.123-15.857-10.505
		c-5.076-0.233-10.188,0.216-15.266,0c-3.576-0.155-4.713,0.949-4.657,4.658c0.223,14.812,0.025,29.629,0.119,44.443
		c0.043,7.137-1.572,6.309,6.68,6.547c2.91,0.09,3.728-0.89,3.619-3.688c-0.2-5.241,0.192-10.508-0.141-15.729
		c-0.252-3.879,1.748-3.836,4.487-3.576c2.08,0.197,2.756,1.816,3.657,3.184c3.73,5.677,7.457,11.339,11.037,17.103
		c1.185,1.902,2.492,2.889,4.826,2.701c2.404-0.195,4.842-0.047,8.396-0.047c-5.224-7.929-9.767-14.875-14.351-21.799
		C443.516,78.632,442.721,77.539,445.071,75.873z M430.995,70.804c-7.51,0.273-3.03-5.324-4.611-8.025
		c1.538-2.571-2.688-7.756,4.119-7.709c8.158,0.062,11.953,2.355,11.961,7.658C442.463,68.505,439.225,70.488,430.995,70.804z"/>
	<path fill="#626567" d="M256.204,93.039c-2.735,0.33-5.551,0.184-8.315,0.039c-3.945-0.205-9.312,1.795-11.432-0.89
		c-1.979-2.51-0.509-7.658-0.787-11.619c-0.191-2.727,0.5-3.944,3.514-3.715c3.529,0.267,7.098-0.084,10.636,0.111
		c2.679,0.146,3.671-0.49,3.843-3.486c0.237-4.256-1.073-5.932-5.326-5.248c-1.205,0.197-2.466,0.043-3.696,0.043
		c-9.277,0-9.158,0-9-9.358c0.043-2.701,0.923-3.367,3.457-3.3c6.013,0.166,12.047-0.184,18.043,0.146
		c3.824,0.207,3.88-1.764,3.7-4.486c-0.153-2.346,0.747-4.877-3.457-4.74c-9.397,0.306-18.815,0.22-28.222,0.023
		c-2.987-0.061-3.59,1.012-3.538,3.738c0.157,8.018,0.056,16.033,0.056,24.062c0,7.859,0.137,15.73-0.068,23.59
		c-0.077,3.078,0.542,4.324,3.97,4.23c9.098-0.246,18.204-0.234,27.298,0c3.372,0.086,3.987-1.076,4.061-4.188
		C261.023,94.337,260.276,92.548,256.204,93.039z"/>
	<path fill="#626567" d="M488.86,48.761c-0.647-1.648-1.221-3.055-3.475-3c-2.051,0.061-2.529,1.402-3.103,2.855
		c-6.532,16.633-13.086,33.27-19.59,49.932c-0.396,1.016-1.619,2.178-0.285,3.281c2.205,1.846,10.033-0.334,11.044-2.982
		c3.012-7.936,3.012-7.936,11.34-7.936c0.616,0,1.235,0,1.854,0c8.295,0,8.414-0.039,11.142,7.684
		c0.905,2.568,2.047,3.85,4.901,3.533c2.238-0.23,4.533-0.047,7.346-0.047c-1.389-3.533-2.547-6.513-3.733-9.492
		C500.489,77.98,494.655,63.369,488.86,48.761z M490.612,83.207c-3.504,0.067-7.024,0.119-10.512-0.181
		c-1.039-0.086-0.564-1.53-0.295-2.358c1.76-5.386,3.547-10.744,5.748-17.394c2.166,6.552,3.936,11.906,5.701,17.256
		c0.094,0.291,0.166,0.595,0.213,0.898C491.604,82.232,491.557,83.185,490.612,83.207z"/>
	<path fill="#626567" d="M213.131,74.804c-2.252-1.812-4.957-3.094-7.518-4.5c-2.842-1.559-5.727-3.055-8.017-5.41
		c-1.867-1.922-2.646-4.133-1.606-6.756c0.965-2.461,2.974-3.479,5.401-3.73c3.146-0.334,6.094,0.479,8.974,1.738
		c1.257,0.547,3.227,2.838,3.757-0.295c0.44-2.594,4.91-5.9-0.32-8.055c-6.154-2.539-12.599-3.154-18.944-0.625
		c-5.056,2.01-8.414,5.686-9.141,11.266c-0.782,5.949,0.829,11.094,5.896,14.633c2.774,1.922,5.881,3.359,8.821,5.037
		c2.542,1.459,5.162,2.842,6.927,5.306c3.637,5.059,1.457,9.932-4.718,10.555c-3.62,0.371-7.184-0.008-10.261-2
		c-2.547-1.641-3.692-1.437-4.837,1.598c-2.3,6.104-2.338,6.429,3.769,8.334c2.662,0.828,5.389,1.347,8.209,1.111
		c3.282,0.174,6.449-0.342,9.509-1.563C220.511,96.855,222.776,82.57,213.131,74.804z"/>
	<path fill="#626567" d="M299.877,91.406c-8.402,5.82-19.266,2.521-22.859-7.036c-1.152-3.062-1.628-6.263-1.443-9.064
		c0.056-16.594,9.82-23.662,24.705-18.576c3.641,1.252,2.936-2.838,4.277-4.393c1.641-1.896,0.688-3.125-1.406-4.189
		c-9.119-4.657-22.029-2.811-29.316,4.326c-8.457,8.281-9.733,18.691-8.06,29.572c2.902,18.807,23.696,27.682,38.939,17.066
		c4.68-3.261,0.5-5.486-0.505-7.986C302.723,87.437,301.198,90.488,299.877,91.406z"/>
	<path fill="#626567" d="M195.119,156.759c0.004-0.004,0.004-0.008,0.004-0.008c-0.017-0.015-0.029-0.021-0.042-0.033
		L195.119,156.759z"/>
	<path fill="#626567" d="M220.883,155.949c0.106-1.692,0.034-3.389,0.008-5.077c-0.013-0.947-0.141-1.761-1.234-2.209
		c-3.436-1.39-11.23,0.312-13.799,3.106c-3.496-4.248-7.757-4.401-10.025-0.428c-1,1.752-0.39,3.623-0.71,5.41
		c1.915,1.438,3.624,3.316,6.423,2.77c1.061-0.196,2.561-0.146,2.599-1.393c0.052-1.582-1.401-1.117-2.448-1.07
		c-1.398,0.07-2.851,0.113-3.219-1.768c6.056-0.932,6.043-0.924,8.966,3.188c0.573,0.812,1.505,0.949,2.466,1.025
		c1.052,0.078,2.359-0.539,3.218,0.83c-1.547,1.486-2.961,0.516-4.414,0.273c-1.025-0.168-1.944,0.604-1.239,1.647
		c0.982,1.467,2.739,1.146,4.256,1.111c1.8-0.025,3.389-0.595,4.142-2.39c0.649-1.551-0.013-2.598-1.444-3.389
		c-0.561-0.316-2.18-0.932-0.658-1.728c2.389-1.266,1.063-3.87,2.234-5.547c3.094,1.162,1.787,3.666,2.137,5.615
		c0.214,1.209-0.748,3.271,1.334,3.299C221.536,159.248,220.801,157.197,220.883,155.949z M211.144,154.453
		c-1.291-0.382-1.983-0.982-1.863-2.062c0.115-1.033,0.851-1.728,1.885-1.623c1.021,0.111,1.56,0.871,1.508,1.957
		C212.614,153.898,211.75,154.154,211.144,154.453z"/>
	<path fill="#626567" d="M397.836,130.294c0.453-2.637,0.137-5.479-3.386-5.979c-1.319-0.194-3.602-0.991-3.76,1.172
		c-0.137,1.896,1.976,0.343,2.939,0.89c0.556,0.315,1.082,0.547,0.991,1.307c-3.086,0.658-6.176,2.826-8.308-2.145
		c-0.979-2.256-4.368-1.914-6.599-0.304c-2.476,1.789-2.816,4.404-1.701,7.013c1.111,2.606,3.467,3.33,6.15,2.979
		c0.913-0.115,2.184-0.41,2.204-1.338c0.042-1.662-1.385-1.145-2.405-1.115c-1.219,0.031-2.5,0.168-3.521-2.256
		c3.039,1.094,6.744-2.252,8.299,1.748c1.91,4.914,5.876,2.539,8.604,2.629C399.755,134.974,397.555,131.931,397.836,130.294z"/>
	<path fill="#626567" d="M505.741,132.128c4.252-1.324,3.761-4.668,2.961-7c-0.69-2.035-3.571-0.976-5.37-0.734
		c-2.437,0.332-3.658,2.103-3.201,4.691c0.61,3.444,0.606,7.449,6.406,6.375c-1.367,1.463-2.421,1.197-3.479,1.006
		c-0.91-0.176-2.025-0.381-2.154,0.9c-0.11,1.137,1.047,1.444,1.894,1.59c2.514,0.428,5.153,0.524,6.42-2.195
		C510.569,133.83,507.874,133.23,505.741,132.128z"/>
	<path fill="#626567" d="M424.11,120.009c-3.812-0.115-6.709,3.242-6.688,7.764c0.024,4.568,2.465,7.543,6.238,7.578
		c3.939,0.051,6.666-3.094,6.691-7.711C430.379,123.154,427.909,120.136,424.11,120.009z M423.597,132.615
		c-3.099-0.145-3.243-2.799-3.248-5.084c-0.004-2.395,0.564-4.854,3.577-4.848c3.043,0.014,3.346,2.531,3.628,4.711
		C427.268,130.097,426.926,132.765,423.597,132.615z"/>
	<path fill="#626567" d="M359.915,120.009c-3.842-0.018-6.561,3.281-6.514,7.9c0.043,4.672,2.463,7.521,6.305,7.44
		c3.942-0.078,6.656-3.291,6.641-7.838C366.325,123.136,363.667,120.031,359.915,120.009z M359.569,132.615
		c-3.09-0.102-3.281-2.69-3.295-5.047c-0.009-2.438,0.518-4.842,3.533-4.885c3.056-0.033,3.385,2.496,3.71,4.867
		C363.163,130,362.906,132.744,359.569,132.615z"/>
	<path fill="#626567" d="M192.576,151.572c1.214-1.893,1.415-3.807-0.146-5.479c-1.914-2.051-4.572-1.666-6.944-1.299
		c-2.508,0.393-1.405,2.666-1.513,4.162c-0.166,2.28-0.128,4.598-0.013,6.893c0.064,1.232-0.748,3.201,1.231,3.398
		c2.2,0.213,1.384-1.847,1.594-3.058c0.145-0.828-0.295-2.08,0.966-2.188c0.542-0.039,1.247,0.766,1.722,1.312
		c0.594,0.691,1.025,1.521,1.534,2.281c0.599,0.906,1.196,1.787,2.466,1.795c2.068,0.021,0.44-2.141,1.577-2.658
		C192.375,155.921,190.615,154.623,192.576,151.572z M188.764,150.939c-1.043,0.205-1.863-0.08-1.932-1.307
		c-0.056-1.094-0.149-2.271,1.47-2.309c1.137,0.077,2.218,0.258,2.175,1.762C190.452,150.166,189.751,150.744,188.764,150.939z"/>
	<path fill="#626567" d="M195.08,156.718c-0.014,0.008-0.018,0.012-0.03,0.016c0.025,0.01,0.047,0.019,0.068,0.025L195.08,156.718z"
		/>
	<path fill="#626567" d="M272.352,143.828c-2.056,5.086-3.809,9.401-5.543,13.719c-0.23,0.572-0.436,1.256,0.248,1.615
		c0.915,0.471,1.714,0.243,2.352-0.646c2.141-2.996,4.281-3.031,6.404,0.047c0.604,0.871,1.487,1.103,2.395,0.646
		c0.705-0.363,0.428-1.142,0.201-1.642C276.523,153.312,275.429,148.691,272.352,143.828z"/>
	<path fill="#626567" d="M480.266,124.769c-2.645-1.195-2.047,3.385-4.273,4.781c-0.342-0.652-0.741-1.162-0.889-1.738
		c-1.469-5.846-6.119-3.299-9.453-3.248c-3.453,0.047-1.756,3.256-1.832,5.025c-0.078,1.77-1.176,5.129,1.017,5.145
		c2.967,0.035,1.368-3.313,1.518-5.151c0.185-2.353,1.433-2.843,3.385-3.505c2.724-0.932,2.273,1.4,2.894,2.41
		c1.299,2.103,1.637,4.771,3.877,6.974c0.928-1.943,1.881-3.39,2.299-4.974C479.334,128.478,482.319,125.683,480.266,124.769z"/>
	<path fill="#626567" d="M437.045,124.291c-1.551-0.119-2.685-0.267-2.654-2.201c0.009-0.828,0.086-2.047-1.286-1.894
		c-1.115,0.119-1.314,1.134-1.319,2.091c-0.01,3.518-0.01,7.028,0.018,10.547c0.004,0.752,0.109,1.481,0.896,1.936
		c3.894,2.188,8.9-0.744,8.89-6.229C441.506,126.556,440.194,124.521,437.045,124.291z M436.196,132.833
		c-2.367-0.047-1.82-1.924-1.954-3.33c0.026-1.562-0.047-3.281,2.188-3.162c1.871,0.104,2.49,1.471,2.508,3.162
		C438.959,131.376,438.409,132.871,436.196,132.833z"/>
	<path fill="#626567" d="M459.643,124.855c-2.223-1.133-4.504-1.078-6.428,0.685c-2.105,1.913-2.142,4.422-1.178,6.803
		c0.985,2.463,3.229,3.119,5.717,2.924c1.08-0.078,2.551-0.272,2.598-1.428c0.068-1.611-1.428-1.08-2.447-1.064
		c-1.211,0.021-2.506,0.168-3.244-1.961c1.519-0.086,2.728-0.106,3.929-0.223c1.272-0.119,3,0.504,3.299-1.539
		C462.165,127.171,461.262,125.683,459.643,124.855z"/>
	<path fill="#626567" d="M246.895,129.931l0.056-0.061c-0.021,0.014-0.038,0.022-0.06,0.034
		C246.891,129.914,246.895,129.923,246.895,129.931z"/>
	<path fill="#626567" d="M239.785,124.453c-3.064,0.92-4.329,3.448-3.718,6.534c0.641,3.191,2.948,4.513,6.132,4.277
		c1.077-0.078,2.547-0.272,2.624-1.406c0.115-1.662-1.414-1.047-2.401-1.071c-1.308-0.054-2.821,0.237-3.129-1.787
		c2.475-0.961,5.235,0.219,7.599-1.095c-0.146-0.743-0.218-1.504-0.466-2.223C245.292,124.435,242.742,123.574,239.785,124.453z"/>
	<path fill="#626567" d="M229.669,124.222c-0.885-0.137-1.766,0.162-2.103-1.145c-0.273-1.043,0.867-3.31-1.581-2.812
		c-1.77,0.359-1.107,2.273-1.188,3.572c-0.081,1.223-0.018,2.461-0.018,3.692c0.009,0,0.018,0,0.018,0
		c0.009,2-0.013,4.005,0.021,6.009c0.013,0.846,0.461,1.504,1.367,1.504c0.924-0.012,1.316-0.685,1.338-1.547
		c0.038-1.529,0.038-3.076,0.034-4.607c0-1.443,0.59-2.453,2.124-2.4c1.32,0.025,1.799,1.109,1.897,2.222
		c0.146,1.686,0.098,3.395,0.222,5.067c0.047,0.629,0.444,1.137,1.158,1.23c0.761,0.104,1.107-0.426,1.389-0.974
		C236.31,130.197,233.801,124.884,229.669,124.222z"/>
	<path fill="#626567" d="M252.762,149.162c-1.529-0.986-3.222-0.949-4.884-0.433c-0.577,0.177-1.081,0.767-0.676,1.449
		c0.885,1.479,2.701,0.018,3.962,1.346c-0.354,0.252-0.568,0.519-0.82,0.576c-2.214,0.428-4.266,1.111-4.649,3.728
		c-0.188,1.301,0.333,2.453,1.525,3.129c2.32,1.324,4.786,0.137,7.166,0.184C255.69,159.169,254.413,150.226,252.762,149.162z"/>
	<path fill="#626567" d="M246.895,129.931c0.021-0.004,0.043-0.018,0.064-0.018c-0.004-0.017-0.009-0.025-0.009-0.043
		L246.895,129.931z"/>
	<path fill="#626567" d="M256.366,129.171c0.063-0.121,0.014-0.306-0.004-0.449c-0.381-4.582-3.309-5.834-7.354-3.145
		c0.867,1.688,3.481-0.32,4.184,2.217c-2.448-0.273-4.106,1.521-6.23,2.119c1.227,5.309,3.103,6.723,8.628,5.106
		C258.708,134.111,255.314,131.068,256.366,129.171z"/>
	<path fill="#626567" d="M326.398,148.722c-0.351,0.105-0.862,0.723-0.799,0.979c0.547,2.175,2.804,0.41,4.286,2.188
		c-0.799,0.154-1.352,0.223-1.896,0.359c-2.014,0.504-3.848,1.248-4.064,3.7c-0.115,1.359,0.529,2.386,1.68,3.033
		c2.325,1.32,4.758,0.15,7.057-0.055c1.362-0.115,0.195-8.467-1.444-9.68C329.727,148.154,328.051,148.23,326.398,148.722z"/>
	<path fill="#626567" d="M189.477,127.082c-1.281-0.799-3.299-1.355-3.089-3.058c0.295-2.362,2.261-1.162,3.671-1.076
		c0.324,0.021,0.812-0.389,1.004-0.729c0.359-0.629,0.06-1.24-0.547-1.525c-2.312-1.082-4.534-0.992-6.32,1.008
		c-1.607,1.804-1.354,3.709,0.324,5.324c0.877,0.83,2.052,1.334,3.047,2.062c0.881,0.623,1.809,1.375,1.359,2.614
		c-0.38,1.058-1.432,0.982-2.359,0.968c-1.128-0.027-2.923-0.853-2.858,1.041c0.06,1.676,1.983,1.518,3.466,1.686
		c2.162-0.215,4.175-0.959,4.838-3.395C192.635,129.708,191.311,128.214,189.477,127.082z"/>
	<path fill="#626567" d="M494.043,124.179c-3.922-0.068-6.336,0.988-5.072,4.941c0,1.69-0.012,2.764,0,3.85
		c0.014,0.943,0.082,1.961,1.295,2.072c1.223,0.094,1.334-0.902,1.59-1.828c0.615-2.205-1.641-6.309,2.228-6.23
		c3.312,0.066,1.432,3.994,1.905,6.191c0.201,0.936,0.234,1.943,1.496,1.832c0.894-0.076,1.209-0.836,1.222-1.674
		c0.018-1.076,0.006-2.162,0.022-3.236C498.784,126.847,498.133,124.257,494.043,124.179z"/>
	<path fill="#626567" d="M289.334,132.265c-0.547,0.256-1.166,0.342-1.508,0.439c-3.283-0.021-4.41-2.08-4.391-4.521
		c0.034-3.115,0.987-5.979,5.096-5.418c1.184,0.158,2.284,0.418,2.357-1.125c0.061-1.229-1.227-1.209-2.043-1.414
		c-3.615-0.926-7.145,1.525-8.18,5.604c-1.043,4.131,1.056,8.399,4.646,9.338c1.697,0.438,3.359,0.227,4.929-0.586
		c0.717-0.373,1.346-0.859,0.969-1.777C290.843,131.923,290.161,131.884,289.334,132.265z"/>
	<path fill="#626567" d="M239.429,148.417c-4.11-0.137-6.094,1.358-4.957,5.205c0,1.557-0.051,2.637,0.021,3.711
		c0.056,0.918,0.196,1.957,1.432,1.975c1.265,0.008,1.196-1.057,1.428-1.945c0.556-2.149-1.556-6.082,1.854-6.125
		c3.901-0.032,1.56,4.078,2.18,6.283c0.256,0.914,0.26,1.914,1.56,1.756c0.97-0.114,1.119-0.928,1.149-1.709
		c0.038-1.082,0-2.157,0.034-3.244C244.233,151.025,243.455,148.554,239.429,148.417z"/>
	<path fill="#626567" d="M303.471,130.804c0.021-0.027,0.038-0.043,0.061-0.061c-0.004-0.011-0.01-0.015-0.01-0.019L303.471,130.804
		z"/>
	<path fill="#626567" d="M305.206,125.179c1.137,2,3.697,0.184,4.479,2.479c-2.479,0.193-4.529,1.257-6.152,3.087
		c1.248,3.838,6.508,6.645,8.889,4.127c1.82-1.931,0.99-5.896-0.184-8.494C310.872,123.367,308.065,123.662,305.206,125.179z"/>
	<path fill="#626567" d="M369.821,153.623c-0.125-2.896-1-5.343-4.467-5.136c-3.024,0.195-6.747,0.084-5.269,4.619
		c0,1.404-0.047,2.332,0.013,3.242c0.072,1.154-0.389,2.859,1.346,2.906c1.859,0.053,1.253-1.718,1.348-2.82
		c0.094-1.063,0.033-2.137,0.037-3.213c0.006-1.229,0.487-2.086,1.805-2.215c1.628-0.148,2.128,0.916,2.248,2.272
		c0.077,0.906-0.03,1.849,0.077,2.754c0.145,1.25-0.496,3.265,1.521,3.195c2.03-0.061,1.158-2.082,1.334-3.312
		C369.918,155.166,369.854,154.384,369.821,153.623z"/>
	<path fill="#626567" d="M409.905,129.863c0.09-3.35-0.846-5.701-4.842-5.676c-3.662,0.023-5.863,1.137-4.448,6.359
		c0.577,0.654-1.995,4.188,1.205,4.201c2.282,0,0.987-3.312,1.247-5.127c0.201-1.398,0.09-3.049,1.928-3.125
		c2.177-0.076,2.154,1.719,2.185,3.28c0.013,0.771-0.051,1.539,0.018,2.306c0.104,1.123-0.496,2.858,1.3,2.899
		c1.795,0.05,1.315-1.684,1.396-2.811C409.944,131.398,409.883,130.632,409.905,129.863z"/>
	<path fill="#626567" d="M228.267,148.488c-3.35-0.334-5.308,1.465-5.628,4.734c-0.329,3.312,0.876,5.742,4.376,6.32
		c3.735,0.047,5.714-1.816,5.906-5.252C233.096,151.136,231.643,148.82,228.267,148.488z M227.87,157.248
		c-2.09,0.244-2.401-1.488-2.427-3.086c-0.025-1.564,0.119-3.343,2.124-3.457c1.893-0.099,2.5,1.413,2.615,2.936
		C230.207,155.486,229.657,157.033,227.87,157.248z"/>
	<path fill="#626567" d="M296.108,155.896c0-0.008,0-0.012,0.004-0.016c-0.017-0.018-0.033-0.035-0.051-0.053L296.108,155.896z"/>
	<path fill="#626567" d="M301.823,148.435c-3.168,0.014-4.688,1.846-5.185,4.787c-0.149,0.893-0.351,1.773-0.526,2.658
		c0.391,0.367,0.842,0.701,1.137,1.145c1.711,2.615,4.154,3.23,6.795,1.971c2.705-1.276,3.496-3.791,2.767-6.62
		C306.163,149.892,304.5,148.427,301.823,148.435z M301.86,157.273c-2.072,0.205-2.475-1.606-2.537-3.154
		c-0.068-1.571,0.436-3.051,2.276-3.521c1.894,0.301,2.599,1.514,2.633,3.248C304.27,155.554,303.659,157.082,301.86,157.273z"/>
	<path fill="#626567" d="M353.364,148.457c-3.619,0.067-5.197,2.453-5.205,5.696c-0.009,3.095,1.658,5.23,5.018,5.351
		c3.667,0.129,5.061-2.195,5.504-5.615C358.278,150.871,357.073,148.38,353.364,148.457z M353.227,157.265
		c-1.842-0.154-2.415-1.719-2.342-3.42c0.068-1.709,0.752-3.188,2.637-3.154c2.062,0.043,1.99,1.967,2.405,3.176
		C355.526,155.636,355.26,157.445,353.227,157.265z"/>
	<path fill="#626567" d="M198.862,124.214c-3.645-0.219-5.453,1.803-5.581,5.26c-0.128,3.449,1.611,5.74,5.146,5.76
		c3.282,0.015,4.944-2.098,5.115-5.508C203.537,126.693,202.358,124.427,198.862,124.214z M198.349,132.765
		c-1.982-0.047-2.354-1.572-2.337-3.227c0.017-1.677,0.547-3.172,2.452-3.162c2,0.021,2.248,1.662,2.273,3.272
		C200.743,131.308,200.379,132.82,198.349,132.765z"/>
	<path fill="#626567" d="M214.614,128.388c-0.324-1.328,0.928-3.678-1.23-3.777c-2.266-0.106-1.21,2.256-1.475,3.595
		c-0.06,0.291-0.004,0.614-0.009,0.916c-0.038,1.684,0.218,3.76-2.329,3.555c-2.303-0.197-1.299-2.305-1.675-3.641
		c-0.432-1.535,1.308-4.437-1.543-4.355c-2.076,0.068-0.765,2.781-1.137,4.271c-0.034,0.145,0,0.299-0.009,0.457
		c-0.157,3.209,0.262,5.828,4.475,5.875c3.928,0.043,6.235-1.033,4.949-4.888C214.631,129.308,214.721,128.83,214.614,128.388z"/>
	<path fill="#626567" d="M302.813,128.154c-0.684-2.78-2.466-4.08-5.308-3.967c-2.688,0.111-4.235,1.701-4.796,4.133
		c-0.603,2.601,0.115,4.953,2.6,6.252c4.303,2.244,6.286-0.819,8.213-3.846l-0.051,0.078
		C303.252,129.923,303.032,129.035,302.813,128.154z M297.618,132.787c-2.006-0.119-2.397-1.685-2.295-3.312
		c0.103-1.602,0.631-3.201,2.614-3.086c1.94,0.115,2.222,1.787,2.401,3.346C300.022,131.308,299.651,132.91,297.618,132.787z"/>
	<path fill="#626567" d="M339.778,128.859c-0.338-4.637-2.9-5.842-7.35-3.428c0.795,1.816,2.986,0.107,4.213,2.082
		c-1.238,0.359-2.393,0.607-3.461,1.051c-1.825,0.752-2.41,2.267-2.021,4.119c0.429,2.025,2.018,2.688,3.791,2.543
		c2.965-0.233,6.803,0.137,4.867-5C339.663,129.824,339.812,129.316,339.778,128.859z M335.556,132.97
		c-1.034,0.197-1.89-0.184-1.89-1.32c0-1.082,0.996-1.354,1.662-1.629c0.987,0.01,1.858,0.068,1.863,1.064
		C337.198,132.06,336.565,132.773,335.556,132.97z"/>
	<path fill="#626567" d="M291.075,151.82c0.61-1.866,3.06,0,3.188-2.032c0.025-0.373-0.672-1.019-1.146-1.154
		c-1.543-0.445-3.072-0.291-4.261,0.932c-1.323,1.354-1.021,2.662,0.158,4.033c0.948,1.09,3.043,0.953,3.171,3.025
		c-0.406,0.161-0.809,0.487-1.201,0.479c-1.021-0.033-2.451-0.604-2.457,1.019c-0.004,1.325,1.428,1.309,2.496,1.409
		c2.809,0.296,4.188-1.332,5.034-3.69C294.823,153.957,292.709,153.05,291.075,151.82z"/>
	<path fill="#626567" d="M296.061,155.828c0,0.006,0,0.01,0,0.01c0.014,0.021,0.029,0.043,0.043,0.059
		C296.108,155.896,296.061,155.828,296.061,155.828z"/>
	<path fill="#626567" d="M341.249,149.855c-0.487-1.543-2.006-0.983-2.342-1.787c-1.728-4.071-3.397-1.649-3.535,0.39
		c-0.213,3.262,0.414,6.653,1.188,9.862c0.325,1.347,2.262,1.449,3.646,1.087c1.346-0.355,1.68-1.015,0.447-2.188
		C337.372,154.111,337.536,152.597,341.249,149.855z"/>
	<path fill="#626567" d="M314.28,150.917c0.896,0.067,2.094,0.41,2.213-0.857c0.137-1.488-1.234-1.488-2.277-1.611
		c-3.389-0.401-6.018,1.824-6.219,5.252c-0.223,3.691,1.852,5.91,5.92,5.82c0.769-0.061,2.439,0.043,2.537-1.445
		c0.111-1.631-1.436-0.993-2.438-0.981c-1.996,0.018-3.235-0.842-3.235-3C310.78,151.761,311.989,150.734,314.28,150.917z"/>
	<path fill="#626567" d="M285.553,153.64c-0.932-0.738-2.395-0.727-2.902-2.018c0.342-1.828,3.42,0.459,3.115-2.103
		c-0.104-0.858-1.061-0.996-1.838-1.051c-1.79-0.137-3.401,0.213-4.243,2.008c-0.628,1.343,0.163,2.316,1.026,3.252
		c0.896,0.979,2.67,0.918,3.024,2.529c-0.543,1.938-3.444-0.418-3.462,1.809c-0.009,1.65,1.688,1.437,2.858,1.437
		c1.829,0,3.338-0.623,3.727-2.658C287.108,155.539,286.629,154.482,285.553,153.64z"/>
	<path fill="#626567" d="M273.258,125.341c-0.368-1.611-3.021-0.504-3.111-2.734c-0.061-1.393-1.191-0.957-1.949-0.272
		c-1.951,1.776-0.957,11.17,1.312,12.504c0.986,0.563,2.068,0.67,3.098,0.272c0.996-0.385,1.467-1.047,0.526-2.043
		C269.185,128.859,269.194,128.457,273.258,125.341z"/>
	<path fill="#626567" d="M328.415,132.705c-2.842-1.433-1.854-3.722-0.924-5.738c0.368-0.783,3.064-1.514,1.395-2.062
		c-1.932-0.637-1.539-3.684-3.73-2.922c-1.359,0.47-1.418,2.203-2.166,3.437c1.555,2.178,0.666,4.76,1.188,7.11
		c0.363,1.648,1.542,2.623,3.277,2.742c0.91,0.068,1.979,0.158,2.4-0.879C330.407,133.06,329.206,133.107,328.415,132.705z"/>
	<path fill="#626567" d="M448.344,128.914c-0.83-0.533-2.18-0.595-2.072-2.119c0.828-1.043,2.547,0.229,3.443-1.785
		c-2.324-1.162-4.713-1.514-6.021,0.451c-2.776,4.172,3.224,4.188,3.91,6.949c-0.609,0.18-1.037,0.354-1.481,0.409
		c-0.947,0.13-2.482-0.737-2.552,0.941c-0.055,1.307,1.402,1.437,2.453,1.512c1.824,0.129,3.449-0.418,4.209-2.205
		C451.067,131.111,449.901,129.906,448.344,128.914z"/>
	<path fill="#626567" d="M319.698,128.812c-0.777-0.385-1.8-0.514-2.176-1.77c0.991-1.465,2.667,0.272,3.389-1.123
		c0.15-0.295-0.037-1.072-0.299-1.219c-1.27-0.728-2.676-0.666-4.025-0.248c-1.094,0.334-1.854,1.125-1.971,2.315
		c-0.184,1.863,1.133,2.676,2.506,3.496c0.738,0.438,1.884,0.684,1.722,1.863c-0.099,0.733-0.867,0.705-1.47,0.684
		c-1.03-0.047-2.518-0.479-2.291,1.185c0.148,1.114,1.586,1.309,2.691,1.299c1.825,0,3.457-0.595,4.064-2.424
		C322.475,130.949,321.407,129.667,319.698,128.812z"/>
	<path fill="#626567" d="M373.081,132.82c-2.106-0.102-3.076-1.18-2.948-3.209c0.132-2.176,1.218-3.396,3.542-3.166
		c0.838,0.09,1.953,0.691,2.043-0.787c0.082-1.252-1.021-1.291-1.914-1.436c-3.312-0.539-6.107,1.598-6.428,4.918
		c-0.337,3.475,1.842,6.064,5.351,6.176c1.188-0.129,3.162-0.051,3.228-1.563C376.038,131.83,374.127,132.88,373.081,132.82z"/>
	<path fill="#626567" d="M263.161,128.777c-0.773-0.389-1.812-0.524-1.996-1.705c0.475-1.678,2.795,0.177,3.351-2.147
		c-1.933-0.967-4.162-1.521-5.585,0.41c-3.081,4.197,2.957,4.256,3.738,7.076c-0.747,0.157-1.307,0.362-1.862,0.377
		c-0.894,0-2.06-0.402-2.196,0.896c-0.123,1.162,1.038,1.406,1.91,1.521c1.944,0.283,3.852-0.025,4.73-1.99
		C266.186,131.125,265.053,129.726,263.161,128.777z"/>
	<path fill="#626567" d="M222.925,125.304c-0.851-1.32-2.585-0.664-2.905-2.402c-0.406-2.209-1.599-1.262-2.449-0.205
		c-1.2,1.476-0.414,10.472,0.992,11.681c0.991,0.856,2.218,1.213,3.448,0.776c1.149-0.405,1.889-1.104,0.517-2.282
		C218.981,129.816,219.054,127.923,222.925,125.304z"/>
	<path fill="#626567" d="M345.206,121.761c-0.062-0.715,0.043-1.662-1.064-1.641c-0.838,0.016-1.491,0.562-1.525,1.414
		c-0.076,1.989-0.021,3.985-0.021,5.979c0.019,0.008,0.039,0.008,0.063,0.008c0,1.982-0.106,3.982,0.043,5.967
		c0.068,0.947,0.842,1.709,1.885,1.681c0.82-0.031,1.525-0.586,1.23-1.515C344.577,129.726,345.536,125.714,345.206,121.761z"/>
	<path fill="#626567" d="M259.862,150.841c0.024,0,0.055-0.014,0.08-0.014c0-1.688,0.03-3.375-0.017-5.066
		c-0.019-0.557,0-1.309-0.872-1.326c-0.825-0.021-1.662,0.291-1.671,1.18c-0.03,4.134-0.025,8.273,0.141,12.402
		c0.039,0.91,0.953,1.602,2.043,1.35c1.316-0.323,0.82-1.162,0.688-2.119C259.959,155.136,259.972,152.978,259.862,150.841z"/>
	<path fill="#626567" d="M346.573,154.154c0-0.805,0.051-1.272-0.009-1.723c-0.171-1.287,0.611-2.928-1.042-3.688
		c-0.619-0.287-1.654-0.31-2.219,0.024c-1.995,1.191,0.223,2.324,0.205,3.529c-0.014,0.604-0.061,1.248,0.086,1.834
		c0.443,1.748-1.239,5.037,1.414,4.979C348.116,159.042,345.749,155.576,346.573,154.154z"/>
	<path fill="#626567" d="M484.018,124.394c-2.205,0.393-1.098,1.4-0.494,2.551c0.965,1.824,0.277,3.906,0.447,5.867
		c0.094,1.047-0.055,2.367,1.564,2.188c1.184-0.138,1.209-1.188,1.213-2.13c0.01-0.913,0.006-1.836,0-2.75
		c-0.004-1.231-0.033-2.452,0-3.686C486.805,124.445,485.518,124.132,484.018,124.394z"/>
	<path fill="#626567" d="M322.112,154.648c0-1.024,0.038-1.793-0.009-2.555c-0.09-1.586,0.519-3.828-2.239-3.461
		c-3.004,0.418-0.82,2.162-0.658,3.379c0.107,0.762-0.056,1.574,0.15,2.287c0.479,1.676-1.42,4.819,1.576,4.766
		C323.099,159.033,321.637,156.007,322.112,154.648z"/>
	<path fill="#626567" d="M148.059,101.458c-0.047-0.15-0.094-0.295-0.141-0.441C147.961,101.154,148.008,101.3,148.059,101.458z"/>
	<path fill="#626567" d="M147.918,101.017c-0.047-0.141-0.09-0.281-0.128-0.4C147.833,100.744,147.875,100.88,147.918,101.017z"/>
	<path fill="#626567" d="M147.79,100.617c-0.005-0.011-0.005-0.021-0.009-0.035C147.786,100.595,147.786,100.603,147.79,100.617z"/>
	<path fill="#626567" d="M148.294,102.207c-0.085-0.273-0.162-0.521-0.235-0.748C148.141,101.718,148.222,101.966,148.294,102.207z"
		/>
	<path fill="#626567" d="M148.422,102.603c-0.004-0.004-0.004-0.008-0.004-0.014C148.418,102.595,148.418,102.599,148.422,102.603z"
		/>
	<path fill="#626567" d="M148.534,102.958c-0.034-0.104-0.072-0.224-0.111-0.355C148.457,102.714,148.495,102.843,148.534,102.958z"
		/>
	<path fill="#626567" d="M120.038,12.361c-0.004,0.078-0.004,0.154-0.004,0.23C120.035,12.832,120.038,12.4,120.038,12.361z"/>
	<path fill="#626567" d="M148.418,102.589c-0.038-0.119-0.081-0.246-0.124-0.383C148.337,102.333,148.375,102.453,148.418,102.589z"
		/>
	<path fill="#626567" d="M147.782,100.582c-0.09-0.281-0.166-0.521-0.23-0.72C147.62,100.078,147.697,100.326,147.782,100.582z"/>
	<path fill="#626567" d="M162.487,54.945c0.013,0.027,0.021,0.054,0.029,0.078C159.94,48.027,160.778,50.308,162.487,54.945z"/>
	<path fill="#626567" d="M148.666,103.376c0.004,0.018,0.009,0.024,0.013,0.043c0,0-0.004-0.021-0.013-0.051
		C148.666,103.373,148.666,103.376,148.666,103.376z"/>
	<path fill="#626567" d="M147.551,99.863c-0.018-0.051-0.03-0.102-0.047-0.151C147.521,99.761,147.534,99.804,147.551,99.863z"/>
	<path fill="#626567" d="M74.595,0.457C40.741,3.998,11.759,29.417,2.81,62.151c-9.004,32.947,4.196,68.789,31.482,88.873
		c14.858,10.939,32.82,17.562,51.067,11.429c16.504-5.548,26.371-22.188,21.918-39.271c-2.145,0.391-4.153,6.896-5.324,8.5
		c-3.106,4.215-7.256,7.625-11.979,9.897c-9.371,4.513-20.679,4.427-29.893-0.448c-21.098-11.172-23.324-40.076-8.029-56.943
		c19.102-21.051,59.396-9.949,66.951,2.256c7.552,12.22,12.982,22.939,11,38.82c-1.795,14.385-10.227,27.332-20.965,36.733
		c7.474,3.019,22.695-9.418,28.021-13.795c9.089-7.461,16.555-16.854,21.799-27.385c10.145-20.357,11.533-44.375,3.684-65.732
		c-0.018-0.047-0.039-0.094-0.056-0.143C149.252,19.138,112.731-3.549,74.595,0.457z M120.035,12.591
		c0-0.201,0.004-0.248,0.004-0.23c0.005-0.606,0.013-1.213,0.018-1.811C120.065,9.857,120.017,16.011,120.035,12.591z
		 M121.756,90.189c-0.004,0-0.004,0.008-0.004,0.008c0.009-0.067,0.013-0.102,0.013-0.102s-0.004,0.033-0.013,0.102
		C121.752,90.197,121.752,90.189,121.756,90.189z M121.838,89.416c0-0.011,0-0.029,0-0.047
		C121.838,89.386,121.838,89.406,121.838,89.416z M149.03,102.273c-0.115,0.385-0.23,0.767-0.351,1.146c0,0-0.004-0.019-0.013-0.043
		c0-0.004-0.004-0.008-0.004-0.019c-0.009-0.021-0.018-0.051-0.03-0.086c-0.064-0.203-0.18-0.571-0.252-0.78
		c-12.594-37.961-54.747-60.943-90.712-36.277C42.98,76.292,35.117,92.265,35.434,109.992c0.384,21.209,11.32,31.922,27.298,43.641
		c-30.798-2.508-53.609-35.701-56.341-64.08C3.583,60.361,20.288,31.437,46.327,18.343C100.356-8.827,166.55,43.3,149.03,102.273z"
		/>
	<path fill="#626567" d="M162.516,55.023c0.009,0.021,0.018,0.043,0.026,0.064C166.008,64.501,172.892,83.181,162.516,55.023z"/>
	<path fill="#626567" d="M162.487,54.945c0.017,0.049,0.038,0.097,0.056,0.144c-0.009-0.021-0.018-0.043-0.026-0.064
		C162.508,54.998,162.499,54.972,162.487,54.945z"/>
	<path fill="#626567" d="M148.641,103.291c0.008,0.024,0.013,0.047,0.021,0.067c0,0.004,0,0.011,0.004,0.011
		C148.658,103.351,148.649,103.326,148.641,103.291z"/>
	<path fill="#626567" d="M148.632,103.273c0.013,0.035,0.021,0.064,0.03,0.086c-0.009-0.021-0.014-0.043-0.021-0.067
		C148.636,103.287,148.636,103.279,148.632,103.273z"/>
	<path fill="#626567" d="M147.504,99.71c-0.014-0.043-0.03-0.094-0.043-0.137C147.474,99.617,147.487,99.664,147.504,99.71z"/>
	<path fill="#626567" d="M147.461,99.574c-0.021-0.067-0.043-0.129-0.06-0.18C147.418,99.445,147.44,99.505,147.461,99.574z"/>
	<path fill="#626567" d="M148.534,102.958c0.043,0.127,0.077,0.238,0.099,0.313c0.004,0.006,0.004,0.015,0.009,0.019
		C148.602,103.175,148.568,103.07,148.534,102.958z"/>
	<path fill="#626567" d="M147.402,99.394C147.29,99.042,147.312,99.103,147.402,99.394L147.402,99.394z"/>
	<path fill="#626567" d="M95.928,25.861c0.77,0.252,1.556,0.525,2.354,0.824C99.214,26.958,98.975,26.857,95.928,25.861z"/>
	<path fill="#626567" d="M93.189,25.095c0.91,0.232,1.825,0.488,2.739,0.766C90.176,24.105,90.993,24.396,93.189,25.095z"/>
	<path fill="#626567" d="M95.928,25.861c-0.914-0.276-1.829-0.532-2.739-0.766c1.649,0.525,4.072,1.283,5.094,1.59
		C97.484,26.386,96.698,26.113,95.928,25.861z"/>
	<path fill="#626567" d="M98.283,26.685c-1.021-0.307-3.444-1.063-5.094-1.59C39.233,11.173-8.523,74.599,27.699,120.863
		c-2.068-28.52,6.812-53.178,32.444-67.93c11.559-6.648,16.341-10.324,38.003-9.223c4.59,0.239,31.636,10.676,32.367,9.967
		C126.026,40.941,110.74,31.279,98.283,26.685z"/>
	<path fill="#626567" d="M129.987,54.203C130.159,54.027,130.205,54.339,129.987,54.203
		C131.222,54.994,130.987,53.177,129.987,54.203z"/>
	<path fill="#626567" d="M129.987,54.203C130.205,54.339,130.159,54.027,129.987,54.203L129.987,54.203z"/>
</g>
</svg>
