<?xml version="1.0" encoding="utf-8"?>
<!-- Generator: Adobe Illustrator 16.0.0, SVG Export Plug-In . SVG Version: 6.00 Build 0)  -->
<!DOCTYPE svg PUBLIC "-//W3C//DTD SVG 1.1//EN" "http://www.w3.org/Graphics/SVG/1.1/DTD/svg11.dtd">
<svg version="1.1" id="Layer_1" xmlns="http://www.w3.org/2000/svg" xmlns:xlink="http://www.w3.org/1999/xlink" x="0px" y="0px"
	 width="596.792px" height="194.189px" viewBox="0 0 596.792 194.189" enable-background="new 0 0 596.792 194.189"
	 xml:space="preserve">
<g>
	<path fill="#626567" d="M332.233,131.501h-4.552c0.742,1.144,0.742,2.826,0.742,4.279v5.076c0,1.23-0.098,2.49-0.137,3.723
		c-0.099,3.851-1.316,6.209-5.261,6.209c-3.85,0-5.342-2.098-5.438-5.557v-9.451c0-1.453,0-3.137,0.752-4.279h-4.562
		c0.748,1.144,0.748,2.826,0.748,4.279v11.383c0.099,3.988,2.72,5.515,6.662,5.515c3.154,0,5.234-1.177,6.552-2.24
		c0.204-0.152,0.342-0.35,0.409-0.35c0.101,0,0.177,0.028,0.177,0.129l-0.138,2.127l4.043-0.188
		c-0.748-1.072-0.748-2.752-0.748-4.205v-12.17C331.485,134.327,331.485,132.644,332.233,131.501z"/>
	<path fill="#626567" d="M347.528,141.411c0-3.016-1.604-4.205-4.15-4.205c-2.658,0-4.148,1.976-4.453,1.976
		c-0.234,0-0.205-0.265-0.205-0.521v-1.141l-3.166,0.19c0.728,0.66,0.728,1.916,0.728,3.244v7.705c0,1.193,0,2.59-0.615,3.496h3.738
		c-0.615-0.906-0.615-2.303-0.615-3.496v-5.213c0-2.197,0.51-4.504,3.193-4.504c2.727,0,3.024,2.277,3.024,4.35v8.863h3.06
		c-0.537-0.906-0.537-2.303-0.537-3.496L347.528,141.411L347.528,141.411z"/>
	<path fill="#626567" d="M355.096,137.206l-3.262,0.504c0.715,0.463,0.715,1.107,0.74,2.211v8.738c0,1.193,0,2.59-0.604,3.496h3.74
		c-0.615-0.906-0.615-2.303-0.615-3.496L355.096,137.206L355.096,137.206z"/>
	<polygon fill="#FFFFFF" points="351.795,133.417 353.356,135.515 355.809,134.001 354.245,131.823 	"/>
	<path fill="#626567" d="M368.006,138.69c0,2.781-1.826,6.738-2.783,9.647c-0.137,0.418-0.272,0.906-0.508,0.906
		c-0.205,0-0.244-0.389-0.41-0.877l-2.988-9.426c-0.37-1.189-0.547-1.424-1.161-1.424c-0.304,0-2.103,0.166-2.482,0.19
		c1.771,2.797,3,7.232,4.658,12.406l0.713,2.228h1.944c1.423-4.367,2.752-7.537,4.58-11.615c0.519-1.127,0.892-1.969,1.638-3.019
		h-3.271C367.975,138.044,368.006,138.37,368.006,138.69z"/>
	<path fill="#626567" d="M380.963,142.831c2.103,0,3.221,0,3.221-1.488c0-2.104-1.932-4.137-5.19-4.137
		c-4.658,0-7.104,3.521-7.104,7.736c0,3.914,2.104,7.734,6.558,7.734c2.518,0,5.37-1.595,5.37-3.316v-0.35
		c-0.812,0.879-2.452,1.524-4.11,1.524c-3.537,0-4.961-2.881-4.961-5.889c0-0.685,0.067-1.201,0.137-1.816L380.963,142.831
		L380.963,142.831z M378.543,138.173c1.672,0,2.586,1.257,2.586,2.462c0,1.229-0.881,1.229-2.547,1.229h-3.496
		C375.483,140.155,376.403,138.173,378.543,138.173z"/>
	<path fill="#626567" d="M393.461,137.206c-2.008,0-3.131,1.941-3.299,1.941c-0.371,0,0-1.629-0.615-1.629
		c-0.4,0-1.59,0.137-2.85,0.166c0.875,0.686,0.875,2.92,0.875,5.215v5.734c0,1.188,0,2.571-0.603,3.521h3.738
		c-0.615-0.949-0.615-2.334-0.615-3.521v-6.677c0-1.422,0.205-2.555,1.906-2.555c0.809,0,1.492,0.098,2.137,0.098
		c0.851,0,1.193-0.446,1.193-1.063C395.331,137.655,394.647,137.206,393.461,137.206z"/>
	<path fill="#626567" d="M399.95,140.155c0-1.396,1.217-1.982,2.547-1.982c1.563,0,2.248,0.324,3.576,1.914
		c0.024-0.684,0.067-1.623,0.067-2.196c0-0.205-0.346-0.265-0.452-0.304c-1.013-0.227-2.068-0.381-3.095-0.381
		c-3.19,0-5.166,1.035-5.166,3.453c0,4.795,6.738,4.146,6.738,8.098c0,1.849-1.191,2.744-3.205,2.744
		c-2.233,0-3.084-0.996-4.137-2.619c-0.041,0.812-0.178,1.587-0.178,2.367c0,0.449,0.202,0.586,0.575,0.709
		c1.261,0.453,2.423,0.719,3.777,0.719c2.893,0,6.018-1.563,6.018-4.633C407.018,143.544,399.95,143.993,399.95,140.155z"/>
	<polygon fill="#FFFFFF" points="410.346,133.417 411.903,135.515 414.35,134.001 412.792,131.823 	"/>
	<path fill="#626567" d="M413.641,137.206l-3.264,0.504c0.713,0.463,0.713,1.107,0.742,2.211v8.738c0,1.193,0,2.59-0.605,3.496
		h3.738c-0.611-0.906-0.611-2.303-0.611-3.496V137.206z"/>
	<path fill="#626567" d="M421.454,148.827v-9.94h0.572c1.094,0,2.521-0.257,2.521-0.937c0-0.24-0.166-0.24-0.312-0.24h-2.781v-4.588
		l-2.385,0.615l-0.138,3.973l-1.428,0.138v1.038h1.428v10.418c0,1.972,0.82,3.373,3.068,3.373c1.285,0,2.889-0.979,2.918-1.266
		l0.137-1.393c-0.371,0.35-1.465,0.77-2.067,0.77C421.627,150.788,421.454,149.89,421.454,148.827z"/>
	<path fill="#626567" d="M435.59,138.886c0,0.936-0.68,3.047-0.996,3.914l-1.727,5.149c-0.166,0.443-0.303,0.965-0.51,0.965
		c-0.234,0-0.312-0.451-0.478-0.965l-2.92-9.485c-0.205-0.644-0.381-0.945-0.957-0.945c-0.41,0-1.838,0.137-2.508,0.191
		c1.147,1.368,2.409,5.385,2.918,7.034l1.495,4.812c0.312,0.947,0.367,1.494,0.367,2.399c0,2.3-1.18,4.31-2,5.402
		c-1.154,1.58-1.77,2.17-5.471,2.17c-0.584,0-1.324-0.059-1.764-0.059c-0.373,0-0.479,0.281-0.479,0.576c0,1.27,2,1.492,2.957,1.492
		c4.688,0,7.879-7.091,8.799-9.287l4.795-11.688c0.479-1.137,0.781-1.807,1.396-2.854h-3.303
		C435.415,138.044,435.59,138.3,435.59,138.886z"/>
	<path fill="#626567" d="M456.196,137.206c-5.099,0-8.019,3.262-8.019,8.283c0,3.521,1.877,7.188,6.564,7.188
		c5.1,0,8.018-3.272,8.018-8.282C462.76,140.856,460.893,137.206,456.196,137.206z M455.868,151.501
		c-3.607,0-4.826-3.653-4.826-7.438c0-2.685,0.848-5.691,4.043-5.691c3.594,0,4.824,3.656,4.824,7.439
		C459.909,148.497,459.059,151.501,455.868,151.501z"/>
	<path fill="#626567" d="M471.872,129.497c-2.863,0-5.441,0.615-5.441,3.728v4.485h-1.356v1.078c0.37,0.029,0.741,0.099,1.114,0.099
		h0.242v9.772c0,1.193,0,2.59-0.615,3.496h3.74c-0.615-0.906-0.615-2.303-0.615-3.496v-9.772h0.242c0.305,0,1.975-0.195,2.074-0.449
		c0.068-0.195,0.098-0.547,0.098-0.615c0-0.11-0.137-0.11-0.233-0.11h-2.181v-3.746c0-0.968,0.111-3.488,1.533-3.488
		c0.744,0,1.77,1.193,2.756,1.193c0.574,0,1.053-0.396,1.053-1.007C474.282,129.601,472.639,129.497,471.872,129.497z"/>
	<path fill="#626567" d="M504.711,136.104c0-1.625-0.098-3.371,0.686-4.604h-3.467c-0.85,0-1.086,0.687-1.396,1.369l-5.881,13.494
		c-0.197,0.449-0.304,0.773-0.607,0.773c-0.272,0-0.381-0.548-0.543-1.033l-5.029-14.111c-0.137-0.424-0.645-0.491-1.055-0.491
		h-4.219c0.819,0.491,0.858,0.936,0.858,1.815v8.094c0,3.488-0.149,8.607-1.397,10.316l-0.312,0.428h4.051
		c-0.752-1.071-0.752-3.172-0.752-5.69l0.037-10.531c0-0.479,0-1.059,0.306-1.059c0.303,0,0.539,0.776,0.918,1.717l6.453,15.889
		l7.618-17.119c0.101-0.264,0.197-0.485,0.441-0.485c0.234,0,0.234,0.389,0.234,0.709v10.743c0,1.814,0,4.209-0.607,5.828h4.992
		c-0.744-1.299-0.881-2.795-1.057-4.237C504.545,144.03,504.711,139.989,504.711,136.104z"/>
	<path fill="#626567" d="M519.088,146.942v-7.121c0-2.111-2.082-2.615-4.496-2.615c-2.615,0-6.043,0.744-6.043,2.949
		c0,0.771,0.51,1.119,1.262,1.119c2.205,0,0.875-3.102,4.099-3.102c2.012,0,2.658,1.229,2.658,2.85c0,2.098-0.479,2.168-2.41,3.039
		c-2.277,1.033-6.123,2.205-6.123,5.018c0,2.367,1.875,3.598,4.217,3.598c2.371,0,3.094-1.01,3.975-2.239
		c0.039-0.025,0.068-0.099,0.205-0.099c0.273,0,0.234,0.812,0.547,2.004l3.056-0.188
		C518.981,150.831,519.088,148.856,519.088,146.942z M516.567,147.267c0,1.854-1.019,3.59-3.058,3.59
		c-1.533,0-2.619-0.74-2.619-2.295c0-1.842,1.33-2.492,3.843-3.688l1.834-0.881V147.267z"/>
	<path fill="#626567" d="M529.28,137.206c-2.009,0-3.134,1.941-3.299,1.941c-0.371,0,0-1.629-0.615-1.629
		c-0.41,0-1.59,0.137-2.853,0.166c0.877,0.686,0.877,2.92,0.877,5.215v5.734c0,1.188,0,2.571-0.602,3.521h3.737
		c-0.614-0.949-0.614-2.334-0.614-3.521v-6.677c0-1.422,0.205-2.555,1.905-2.555c0.808,0,1.492,0.098,2.138,0.098
		c0.85,0,1.19-0.446,1.19-1.063C531.147,137.655,530.463,137.206,529.28,137.206z"/>
	<path fill="#626567" d="M541.208,138.886c0,0.936-0.684,3.047-0.988,3.914l-1.738,5.149c-0.166,0.443-0.303,0.965-0.51,0.965
		c-0.234,0-0.303-0.451-0.477-0.965l-2.92-9.485c-0.205-0.644-0.371-0.945-0.949-0.945c-0.41,0-1.832,0.137-2.517,0.191
		c1.148,1.368,2.41,5.385,2.927,7.034l1.496,4.812c0.303,0.947,0.373,1.494,0.373,2.399c0,2.3-1.193,4.31-2.015,5.402
		c-1.154,1.58-1.77,2.17-5.471,2.17c-0.572,0-1.328-0.059-1.765-0.059c-0.373,0-0.471,0.281-0.471,0.576c0,1.27,2,1.492,2.949,1.492
		c4.688,0,7.879-7.091,8.807-9.287l4.795-11.688c0.472-1.137,0.773-1.807,1.39-2.854h-3.291
		C541.028,138.044,541.208,138.3,541.208,138.886z"/>
	<path fill="#626567" d="M549.456,129.497l-3.398,0.521c0.89,0.645,0.89,1.914,0.89,3.229v15.41c0,1.193,0,2.59-0.623,3.496h3.737
		c-0.604-0.906-0.604-2.303-0.604-3.496L549.456,129.497L549.456,129.497z"/>
	<path fill="#626567" d="M564.377,146.942v-7.121c0-2.111-2.08-2.615-4.492-2.615c-2.613,0-6.041,0.744-6.041,2.949
		c0,0.771,0.504,1.119,1.256,1.119c2.209,0,0.881-3.102,4.111-3.102c2.004,0,2.648,1.229,2.648,2.85
		c0,2.098-0.479,2.168-2.414,3.039c-2.273,1.033-6.123,2.205-6.123,5.018c0,2.367,1.875,3.598,4.223,3.598
		c2.379,0,3.094-1.01,3.973-2.239c0.039-0.025,0.068-0.099,0.205-0.099c0.273,0,0.232,0.812,0.547,2.004l3.058-0.188
		C564.27,150.831,564.377,148.856,564.377,146.942z M561.86,147.267c0,1.854-1.017,3.59-3.06,3.59c-1.528,0-2.614-0.74-2.614-2.295
		c0-1.842,1.328-2.492,3.836-3.688l1.838-0.881V147.267L561.86,147.267z"/>
	<path fill="#626567" d="M579.633,141.411c0-3.016-1.602-4.205-4.141-4.205c-2.658,0-4.162,1.976-4.465,1.976
		c-0.232,0-0.193-0.265-0.193-0.521v-1.141l-3.166,0.19c0.713,0.66,0.713,1.916,0.713,3.244v7.705c0,1.193,0,2.59-0.615,3.496h3.74
		c-0.615-0.906-0.615-2.303-0.615-3.496v-5.213c0-2.197,0.517-4.504,3.205-4.504c2.713,0,3.025,2.277,3.025,4.35v8.863h3.047
		c-0.535-0.906-0.535-2.303-0.535-3.496V141.411z"/>
	<path fill="#626567" d="M596.176,129.497l-3.266,0.521c0.758,0.645,0.758,1.914,0.758,3.229v4.086
		c-0.578-0.067-1.154-0.129-1.77-0.129c-5.373,0-8.867,3.078-8.867,8.248c0,3.402,1.795,7.224,5.842,7.224
		c3.119,0,4.354-1.654,4.584-1.654c0.137,0,0.168,0.184,0.168,0.295l0.137,1.223l3.029-0.385c-0.615-0.881-0.615-2.266-0.615-3.496
		V129.497L596.176,129.497z M593.668,147.753c0,1.806-0.963,3.23-2.932,3.23c-3.496,0-4.992-3.273-4.992-6.213
		c0-3.688,2.043-6.4,5.812-6.4c1.733,0,2.11,0.812,2.11,2.324L593.668,147.753L593.668,147.753z"/>
	<path fill="#626567" d="M13.915,191.149c-6.562,0-9.756-4.885-9.756-11.152c0-5.672,2.479-10.83,8.76-10.83
		c4.111,0,5.475,1.877,6.428,3.595h0.119l0.162-5.037c-2.676,0-4.354-0.32-6.67-0.32C4.842,167.404,0,172.916,0,181.113
		c-0.039,7.324,4.438,13.076,11.713,13.076c6.234,0,9.111-3.76,9.111-5.555v-0.248C19.667,189.675,17.354,191.149,13.915,191.149z"
		/>
	<path fill="#626567" d="M28.915,192.175v-9.218h0.854c2.129,0,6,0,7.201-1.957c-2.641,0.238-5.414,0.238-8.055,0.238v-8.195h3.184
		c2.025,0,3.875,0.248,5.076,1.271l-0.137-2.637H25.073c0.752,1.162,0.752,2.946,0.752,4.494v12.881c0,1.551-0.104,3.33-0.855,4.5
		h9.91c1.23,0,2.363-0.107,3.291-0.177l0.615-3.153c-1.611,1.438-3.803,1.953-5.932,1.953H28.915z"/>
	<path fill="#626567" d="M61.366,171.677h-3.562c0.482,0.889,0.824,2.059,0.824,4.385v12.109c0,0.301,0,0.646-0.24,0.646
		c-0.209,0-0.481-0.479-0.721-0.82l-6.822-9.637c-1.062-1.506-3.256-5.172-3.973-6.137c-0.416-0.547-0.723-0.547-1.377-0.547h-3.461
		c1.024,1.024,1.098,2.879,1.098,4.563v7.289c0,3.018,0,7.209-1.201,10.021h3.945c-1.1-2.568-1.029-6.033-1.029-8.781v-8.805
		c0-0.314,0.072-0.521,0.203-0.521c0.137,0,0.24,0.18,0.377,0.385l12.547,17.859h2.437c-0.033-1.033-0.068-2.062-0.068-3.191
		v-13.709C60.34,175.034,60.545,173.257,61.366,171.677z"/>
	<path fill="#626567" d="M63.862,174.146c0.858-0.648,1.645-0.752,2.432-0.752h4.561v15.658c0,1.551,0,3.33-0.754,4.5h4.597
		c-0.759-1.17-0.759-2.949-0.759-4.5v-15.658h3.773c1.402,0,3.496-0.238,4.078-1.717H64.545L63.862,174.146z"/>
	<path fill="#626567" d="M88.567,192.175v-9.218h0.858c2.123,0,5.998,0,7.195-1.957c-2.638,0.238-5.418,0.238-8.056,0.238v-8.195
		h3.188c2.021,0,3.871,0.248,5.072,1.271l-0.138-2.637H84.723c0.756,1.162,0.756,2.946,0.756,4.494v12.881
		c0,1.551-0.102,3.33-0.858,4.5h9.905c1.234,0,2.371-0.107,3.296-0.177l0.614-3.153c-1.61,1.438-3.803,1.953-5.932,1.953H88.567z"/>
	<path fill="#626567" d="M116.493,190.36l-5.961-8.223c2.471-1,5.076-3.062,5.076-6.213c0-2.668-1.82-4.591-5.316-4.591
		c-2.674,0-5.414,0.343-8.293,0.343c0.752,1.162,0.752,2.946,0.752,4.494v12.684c0,1.475,0.068,3.117-0.924,4.697h4.766
		c-0.758-1.17-0.758-2.949-0.758-4.5v-6.162c1.988,0.162,2.232,0.752,3.672,2.812l4.18,5.957c0.756,1.103,1.406,1.894,2.879,1.894
		h2.812C117.967,192.245,117.489,191.696,116.493,190.36z M107.377,181.651c-0.512,0-1.029-0.035-1.543-0.104v-7.197
		c0-0.547,0.035-1.133,0.07-1.648h1.608c3.054,0.068,5.004,0.486,5.004,3.906C112.518,179.872,110.704,181.651,107.377,181.651z"/>
	<path fill="#626567" d="M141.569,171.677h-10.627c0.756,1.162,0.684,2.946,0.684,4.494v12.881c0,1.551,0,3.33-0.752,4.5h4.594
		c-0.756-1.17-0.756-2.949-0.756-4.5v-5.479h0.857c2.129,0,6,0,7.197-1.957c-2.638,0.248-5.414,0.248-8.056,0.248v-8.819h3.529
		c1.615,0,3.77,0.043,4.733,1.614h0.173v-2.68C143.147,171.677,142.428,171.677,141.569,171.677z"/>
	<path fill="#626567" d="M157.258,171.13c-7.129,0-10.897,5.41-10.897,11.923c0,6.104,3.153,11.032,10.35,11.032
		c7.129,0,10.897-5.41,10.897-11.922C167.608,176.062,164.454,171.13,157.258,171.13z M156.983,192.585
		c-5.517,0-7.06-5.969-7.06-10.489c0-4.939,2.119-9.462,7.06-9.462c5.518,0,7.061,5.966,7.061,10.486
		C164.043,188.065,161.924,192.585,156.983,192.585z"/>
	<path fill="#626567" d="M185.868,190.36l-5.965-8.223c2.469-1,5.067-3.062,5.067-6.213c0-2.668-1.805-4.591-5.312-4.591
		c-2.666,0-5.41,0.343-8.291,0.343c0.752,1.162,0.752,2.946,0.752,4.494v12.684c0,1.475,0.067,3.117-0.926,4.697h4.764
		c-0.752-1.17-0.752-2.949-0.752-4.5v-6.162c1.992,0.162,2.227,0.752,3.672,2.812l4.18,5.957c0.752,1.103,1.41,1.894,2.884,1.894
		h2.812C187.334,192.245,186.868,191.696,185.868,190.36z M176.749,181.651c-0.518,0-1.025-0.035-1.543-0.104v-7.197
		c0-0.547,0.031-1.133,0.068-1.648h1.61c3.047,0.068,5.012,0.486,5.012,3.906C181.897,179.872,180.077,181.651,176.749,181.651z"/>
	<path fill="#626567" d="M205.198,191.948v-10.76h1.004c2.469,0,6.99,0,8.389-2.273c-3.078,0.283-6.309,0.283-9.393,0.283v-9.553
		h3.721c2.363,0,4.521,0.272,5.914,1.475l-0.166-3.076h-13.943c0.879,1.359,0.879,3.437,0.879,5.234v15.029
		c0,1.795-0.119,3.877-1.008,5.244h11.555c1.445,0,2.767-0.123,3.847-0.205l0.723-3.672c-1.885,1.68-4.438,2.272-6.922,2.272
		L205.198,191.948L205.198,191.948z"/>
	<path fill="#626567" d="M239.602,171.677h-3.567c0.479,0.889,0.819,2.059,0.819,4.385v12.109c0,0.301,0,0.646-0.233,0.646
		c-0.205,0-0.488-0.479-0.724-0.82l-6.823-9.637c-1.058-1.506-3.252-5.172-3.976-6.137c-0.41-0.547-0.713-0.547-1.367-0.547h-3.467
		c1.025,1.024,1.104,2.879,1.104,4.563v7.289c0,3.018,0,7.209-1.201,10.021h3.936c-1.094-2.568-1.024-6.033-1.024-8.781v-8.805
		c0-0.314,0.067-0.521,0.205-0.521c0.137,0,0.244,0.18,0.381,0.385l12.547,17.859h2.432c-0.039-1.033-0.067-2.062-0.067-3.191
		v-13.709C238.573,175.034,238.782,173.257,239.602,171.677z"/>
	<path fill="#626567" d="M257.139,172.915c0,3.215-4.178,12.992-5.174,16.008c-0.166,0.519-0.373,1.054-0.576,1.054
		c-0.207,0-0.381-0.338-0.549-0.984c-1.447-5.418-3.426-10.69-5.217-16.008c-0.176-0.512-0.342-1.308-1.021-1.308h-3.061
		l0.547,1.162c2.441,5.181,4.834,13.615,6.445,19.095l0.518,1.756h2.648l0.676-1.855c2.334-6.311,4.971-13.233,8.229-19.062
		l0.615-1.094h-4.248C257.073,172.062,257.139,172.472,257.139,172.915z"/>
	<path fill="#626567" d="M268.477,171.677h-4.59c0.752,1.162,0.752,2.946,0.752,4.494v12.881c0,1.551,0,3.33-0.752,4.5h4.59
		c-0.752-1.17-0.752-2.949-0.752-4.5v-12.881C267.725,174.624,267.725,172.839,268.477,171.677z"/>
	<path fill="#626567" d="M287.772,190.36l-5.965-8.223c2.461-1,5.076-3.062,5.076-6.213c0-2.668-1.824-4.591-5.319-4.591
		c-2.677,0-5.41,0.343-8.291,0.343c0.752,1.162,0.752,2.946,0.752,4.494v12.684c0,1.475,0.067,3.117-0.929,4.697h4.767
		c-0.752-1.17-0.752-2.949-0.752-4.5v-6.162c1.981,0.162,2.227,0.752,3.662,2.812l4.188,5.957c0.752,1.103,1.398,1.894,2.873,1.894
		h2.812C289.237,192.245,288.76,191.696,287.772,190.36z M278.653,181.651c-0.519,0-1.035-0.035-1.543-0.104v-7.197
		c0-0.547,0.039-1.133,0.067-1.648h1.611c3.047,0.068,5,0.486,5,3.906C283.79,179.872,281.973,181.651,278.653,181.651z"/>
	<path fill="#626567" d="M301.473,171.13c-7.129,0-10.897,5.41-10.897,11.923c0,6.104,3.153,11.032,10.352,11.032
		c7.127,0,10.9-5.41,10.9-11.922C311.827,176.062,308.668,171.13,301.473,171.13z M301.2,192.585c-5.519,0-7.062-5.969-7.062-10.489
		c0-4.939,2.119-9.462,7.062-9.462c5.516,0,7.059,5.966,7.059,10.486C308.258,188.065,306.131,192.585,301.2,192.585z"/>
	<path fill="#626567" d="M334.608,171.677h-3.562c0.479,0.889,0.82,2.059,0.82,4.385v12.109c0,0.301,0,0.646-0.236,0.646
		c-0.205,0-0.479-0.479-0.721-0.82l-6.83-9.637c-1.064-1.506-3.252-5.172-3.975-6.137c-0.41-0.547-0.722-0.547-1.367-0.547h-3.465
		c1.032,1.024,1.102,2.879,1.102,4.563v7.289c0,3.018,0,7.209-1.201,10.021h3.937c-1.095-2.568-1.025-6.033-1.025-8.781v-8.805
		c0-0.314,0.068-0.521,0.205-0.521s0.244,0.18,0.381,0.385l12.539,17.859h2.443c-0.037-1.033-0.068-2.062-0.068-3.191v-13.709
		C333.583,175.034,333.788,173.257,334.608,171.677z"/>
	<path fill="#626567" d="M360.553,176.54c0-1.711-0.106-3.557,0.674-4.863h-3.494c-0.858,0-1.094,0.728-1.405,1.443l-5.929,14.291
		c-0.204,0.479-0.312,0.828-0.614,0.828c-0.273,0-0.381-0.584-0.547-1.102l-5.068-14.939c-0.146-0.453-0.654-0.521-1.063-0.521
		h-4.257c0.816,0.521,0.859,1,0.859,1.923v8.563c0,3.701-0.137,9.123-1.41,10.939l-0.312,0.448h4.086
		c-0.752-1.133-0.752-3.358-0.752-6.032l0.037-11.142c0-0.522,0-1.137,0.305-1.137c0.311,0,0.555,0.82,0.926,1.82l6.515,16.832
		l7.676-18.134c0.098-0.272,0.203-0.52,0.447-0.52c0.243,0,0.243,0.41,0.243,0.75v11.391c0,1.922,0,4.451-0.625,6.17h5.039
		c-0.752-1.377-0.889-2.948-1.063-4.5C360.377,184.94,360.553,180.659,360.553,176.54z"/>
	<path fill="#626567" d="M369.411,192.175v-9.218h0.858c2.119,0,5.996,0,7.197-1.957c-2.637,0.238-5.42,0.238-8.057,0.238v-8.195
		h3.192c2.021,0,3.867,0.248,5.068,1.271l-0.137-2.637h-11.961c0.752,1.162,0.752,2.946,0.752,4.494v12.881
		c0,1.551-0.101,3.33-0.859,4.5h9.91c1.229,0,2.363-0.107,3.281-0.177l0.625-3.153c-1.611,1.438-3.802,1.953-5.929,1.953H369.411z"
		/>
	<path fill="#626567" d="M401.864,171.677h-3.556c0.479,0.889,0.82,2.059,0.82,4.385v12.109c0,0.301,0,0.646-0.244,0.646
		c-0.205,0-0.479-0.479-0.723-0.82l-6.816-9.637c-1.068-1.506-3.264-5.172-3.986-6.137c-0.409-0.547-0.713-0.547-1.366-0.547h-3.457
		c1.024,1.024,1.094,2.879,1.094,4.563v7.289c0,3.018,0,7.209-1.201,10.021h3.945c-1.104-2.568-1.035-6.033-1.035-8.781v-8.805
		c0-0.314,0.067-0.521,0.215-0.521c0.127,0,0.234,0.18,0.371,0.385l12.551,17.859h2.432c-0.028-1.033-0.067-2.062-0.067-3.191
		v-13.709C400.838,175.034,401.043,173.257,401.864,171.677z"/>
	<path fill="#626567" d="M404.364,174.146c0.858-0.648,1.637-0.752,2.432-0.752h4.559v15.658c0,1.551,0,3.33-0.75,4.5h4.588
		c-0.752-1.17-0.752-2.949-0.752-4.5v-15.658h3.771c1.406,0,3.496-0.238,4.072-1.717h-17.234L404.364,174.146z"/>
	<path fill="#626567" d="M434.137,171.677h-4.043l-0.029,0.932c0,2.811-7.061,17.516-9.021,19.977l-0.752,0.968h4.285
		c-0.068-0.449-0.099-0.859-0.099-1.308c0-1.953,1.533-5.312,3.019-8.295h7.705l3.737,9.603h3.705l-0.688-1.271
		C438.53,185.933,436.333,178.497,434.137,171.677z M428.073,182.573l2.979-7.332c0.076-0.164,0.273-0.822,0.586-0.822
		c0.312,0,0.519,0.59,0.584,0.822l2.396,7.332H428.073z"/>
	<path fill="#626567" d="M449.379,192.175V176.17c0-1.547,0-3.332,0.762-4.493h-4.6c0.754,1.161,0.754,2.946,0.754,4.493v9.601
		c0,1.61-0.137,6.436-1.164,7.781h9.492c0.684,0,1.406-0.039,2.102-0.107l0.646-3.223c-1.709,1.68-3.471,1.952-5.385,1.952
		L449.379,192.175L449.379,192.175z"/>
	<path fill="#626567" d="M474.213,173.407c0-3,2.072-4.406,4.875-4.406c2.676,0,3.756,0.479,5.557,2.363v-3.723
		c-2.043,0-4.082-0.238-6.153-0.238c-4.234,0-8.035,2.281-8.035,6.922c0,7.393,11.424,6.551,11.424,13.271
		c0,3.19-2.272,4.989-5.312,4.989c-4.201,0-5.918-2.354-7.119-4.032v4.233c1.846,0.767,4.924,1.402,6.885,1.402
		c4.475,0,9.307-2.795,9.307-7.756C485.639,178.796,474.213,179.556,474.213,173.407z"/>
	<path fill="#626567" d="M493.512,181.933c0-4.871,2.127-9.299,7.508-9.299c3.533,0,4.697,1.614,5.519,3.084h0.104l0.138-4.314
		c-2.296,0-3.738-0.272-5.722-0.272c-6.963,0-11.11,4.725-11.11,11.76c-0.031,6.266,3.807,11.194,10.047,11.194
		c5.35,0,7.812-3.209,7.812-4.75v-0.207c-0.987,1.095-2.979,2.363-5.928,2.363C496.254,191.491,493.512,187.312,493.512,181.933z"/>
	<path fill="#626567" d="M516.567,171.677h-4.591c0.752,1.162,0.752,2.946,0.752,4.494v12.881c0,1.551,0,3.33-0.752,4.5h4.591
		c-0.752-1.17-0.752-2.949-0.752-4.5v-12.881C515.815,174.624,515.815,172.839,516.567,171.677z"/>
	<path fill="#626567" d="M525.268,192.175v-9.218h0.857c2.121,0,5.996,0,7.197-1.957c-2.637,0.238-5.418,0.238-8.056,0.238v-8.195
		h3.185c2.033,0,3.875,0.248,5.08,1.271l-0.142-2.637h-11.961c0.752,1.162,0.752,2.946,0.752,4.494v12.881
		c0,1.551-0.098,3.33-0.852,4.5h9.901c1.23,0,2.363-0.107,3.291-0.177l0.615-3.153c-1.607,1.438-3.809,1.953-5.928,1.953H525.268z"
		/>
	<path fill="#626567" d="M557.719,171.677h-3.563c0.479,0.889,0.829,2.059,0.829,4.385v12.109c0,0.301,0,0.646-0.243,0.646
		c-0.205,0-0.479-0.479-0.724-0.82l-6.813-9.637c-1.068-1.506-3.267-5.172-3.976-6.137c-0.424-0.547-0.727-0.547-1.381-0.547h-3.457
		c1.025,1.024,1.095,2.879,1.095,4.563v7.289c0,3.018,0,7.209-1.201,10.021h3.944c-1.104-2.568-1.021-6.033-1.021-8.781v-8.805
		c0-0.314,0.067-0.521,0.205-0.521c0.133,0,0.229,0.18,0.366,0.385l12.552,17.859h2.432c-0.028-1.033-0.067-2.062-0.067-3.191
		v-13.709C556.694,175.034,556.899,173.257,557.719,171.677z"/>
	<path fill="#626567" d="M564.809,181.933c0-4.871,2.129-9.299,7.508-9.299c3.535,0,4.697,1.614,5.519,3.084h0.106l0.138-4.314
		c-2.304,0-3.74-0.272-5.724-0.272c-6.961,0-11.11,4.725-11.11,11.76c-0.029,6.266,3.809,11.194,10.047,11.194
		c5.342,0,7.812-3.209,7.812-4.75v-0.207c-0.996,1.095-2.979,2.363-5.928,2.363C567.553,191.491,564.809,187.312,564.809,181.933z"
		/>
	<path fill="#626567" d="M586.838,192.175v-9.218h0.859c2.119,0,5.996,0,7.195-1.957c-2.646,0.238-5.418,0.238-8.056,0.238v-8.195
		h3.185c2.021,0,3.877,0.248,5.077,1.271l-0.137-2.637H583c0.752,1.162,0.752,2.946,0.752,4.494v12.881
		c0,1.551-0.104,3.33-0.857,4.5h9.91c1.229,0,2.363-0.107,3.281-0.177l0.623-3.153c-1.609,1.438-3.808,1.953-5.937,1.953H586.838z"
		/>
	<path fill="#626567" d="M284.229,0.88c-25.52-0.584-49.276-0.067-75.477-0.567c-8.744,0.129-25.059,0.668-36.611-0.115
		C134.881,0.41,99.057,1.074,61.828,0C43.804,0.587,24.496,1.476,5.488,0.492C5.193,1.77,2.928,0.98,4.113,2.363
		c29.938,0,63.332-1.289,94.057,0.197c39.795-0.599,81.746-0.607,118.609-0.076c27.651-1.104,54.246,0.272,81.631-0.121
		c0-0.4,0-0.789,0-1.188C294.459,0.56,286.553,0.616,284.229,0.88z"/>
	<path fill="#626567" d="M193.213,8.272c-23.836,0.988-23.562-0.021-72.883,0.227c-9.717-0.627-47.051,0.33-60.312-0.432
		c-17.823,1.484-37,0.398-54.926,0.885c-0.981,0.402-0.201,1.086,0.195,1.381c22.358,0.791,46.653-0.78,69.405-0.389
		c28.423,0.094,60.431-0.402,82.826,0.35c17.107-0.516,37.623-0.145,55.099-0.645c28.366-0.791,56.998,0.918,85.297-0.193
		c0.295-0.399,0.395-1.084,0-1.485C264.229,8.761,226.145,7.815,193.213,8.272z"/>
	<path fill="#626567" d="M296.737,15.858c-19.804-0.105-41.074,0.09-60.478-0.299c-27.481-0.992-55.555,0.889-83.721,0.299
		c-18.91,0.385-35.89,0.979-56.867,0c-31.199,0.897-60.686-0.025-90.873,0.881c0.094,0.496-0.197,1.086,0.295,1.475
		c57.322-1.377,110.707,0.695,167.338-0.979c28.367-0.496,59.982-0.096,85.304,0.49c13.69,0.594,26.494-0.195,40.182-0.295
		C298.016,16.739,297.127,16.347,296.737,15.858z"/>
	<path fill="#626567" d="M298.905,53.38c-8.215-4.196-13.146-6.7-20.918-6.563c-13.916,0.576-33.035,13.379-57.685,10.303
		c-17.979-3.838-26.346-9.303-33.436-12.994c-32.148-20.42-47.312,3.533-66.931-3.448C85.68,23.979,82.352,19.843,63.004,19.843
		c-16.678,0.991-38.213,14.83-57.52,23.393c0.196,2.463-0.099,56.688,0,59.021c-0.791,2.166,2.27,1.457,3.352,2.637
		c17.529,4.727,30.631-8.867,47.275-9.162c15.362-0.094,27.184,8.272,42.055,9.162c15.467,4.324,29.5-5.529,42.141-7.119
		c11.08-0.859,26.021,7.914,39.713,9.482c17.433,3.252,29.646-8.867,45.8-10.343c12.012-1.877,21.366,5.422,32.399,7.576
		c10.039,3.461,19.701-1.17,28.859-3.338c3.746-0.789,8.174-0.4,11.824-1.184C298.827,99.13,298.956,71.358,298.905,53.38z"/>
	<path fill="#626567" d="M223.084,20.567c-17.605-1.67-31.893,6.838-40.994,18.205c1.047,0.846,0.418,1.772,2.508,1.902
		c4.347-4.91,9.847-9.787,16.115-13.099c17.188-7.291,33.73-3.367,43.496,4.982c8.066,6.461,9.979,11.504,12.371,18.032
		c1.32,0.658,2.842-0.094,3.41-1.323C253.631,32.354,238.752,21.974,223.084,20.567z"/>
	<path fill="#626567" d="M195.637,23.829c-26.555-0.684-55.055,0.137-80.461-0.158c-10.641,0.324-16.485,0.529-22.678,0.453
		c0.098,0.496,1.691,1.086,2.188,1.58c33.095,0.291,65.375-0.494,99.349-0.194C197.235,25.478,196.799,23.671,195.637,23.829z"/>
	<path fill="#626567" d="M297.711,23.829c-17.918-0.295-38.404-0.488-56.725,0.295c-0.394,0.789,1.299,0.982,1.396,1.58
		c19.601,0,35.244-0.889,54.646-0.194C298.311,25.509,297.42,24.718,297.711,23.829z"/>
	<path fill="#626567" d="M5.983,24.815c-0.595,0.496-0.89,0.982-0.89,1.68c5.713,0.979,11.619,0.979,17.234,0.877
		c0.299-0.291,1.184-1.18,1.381,0c3.35-0.389,7.09-1.18,10.438-0.192c0.886-0.587,3.351-0.986,2.562-2.166
		C27.059,25.013,16.422,25.21,5.983,24.815z"/>
	<path fill="#626567" d="M115.208,31.413c-1.082,0.492-3.762-0.094-3.953,1.381c4.525,1.277,10.555,0.496,15.576,0.693
		c14.229,1.184,33.285-1.082,50.328,0.5c0.889-0.795,2.863,0.572,3.055-1.193c-9.156-1.571-18.602-0.627-31.891-1.244
		C134.827,32.765,127.323,31.124,115.208,31.413z"/>
	<path fill="#626567" d="M297.42,31.905c-0.889,0.205-1.572,0.594-2.559,0.5c-13.982-1.184-27.285,0.094-41.367,0
		c-0.496,0.582-1.385,0.291-1.875,0.68c0.109,0.697,0.598,0.902,1.184,1.185c13.691-0.781,30.34,0.496,44.617-0.281
		c0.496-0.205,1.377-0.401,1.18-1.192C298.502,32.405,297.711,32.499,297.42,31.905z"/>
	<path fill="#626567" d="M5.983,33.085c-0.89,0.402-0.398,1.39,0,1.875c3.641,0.396,8.563-0.69,12.307,0
		c1.377,0.685,2.369-0.973,2.859-1.67C16.516,32.894,11.004,33.085,5.983,33.085z"/>
	<path fill="#626567" d="M258.905,41.063c0,0.889,1.094,1.191,1.68,1.684c11.328-1.586,25.312,0.094,37.332-0.492
		c0.395-0.396,0.395-1.19,0-1.579C284.913,39.103,272.303,41.466,258.905,41.063z"/>
	<path fill="#626567" d="M292.002,47.765c-0.393,0.194-0.492,0.399-0.492,0.889c2.267-0.6,4.144,2.264,5.91,0.291
		C296.532,46.679,293.584,48.165,292.002,47.765z"/>
	<path fill="#626567" d="M273.387,111.356c-10.145,3.057-18.61,0.488-28.662-5.713c-15.856-6.992-32.303,1.67-46.785,6.602
		c-16.151,6.594-33.776-0.303-47.954-6.799c-7.496-2.957-16.064-0.889-23.154,1.867c-29.599,13.936-53.875-5.217-70.023-5.217
		c-18.815-1.181-31.815,13.598-51.021,9.26c-0.791,2.072,0.492,5.115-0.299,7.783c19.209,3.741,34.77-7.396,52.99-7.783
		c15.27,0.684,27.575,10.438,43.237,10.83c13.197-0.193,23.047-8.467,35.752-10.146c10.513-1.367,38.013,11.562,44.39,11.445
		c10.147,1.184,16.973-4.15,26.229-6.514c5.031-1.087,8.381-3.851,15.363-4.433c13.201-3.85,24.141,4.334,33.397,7.479
		c14.666,3.752,29.718-6.785,42.027-5.127c0.402-2.949-0.875-6.291,0.207-8.263C289.52,104.169,281.661,108.507,273.387,111.356z"/>
	<path fill="#626567" d="M273.387,143.19c-10.145,3.059-21.162,0.5-33.584-7.266c-12.166-5.025-23.436,3.229-37.918,8.153
		c-13.125,5.361-40.76-3.096-51.914-8.215c-7.492-2.957-16.055-0.885-23.147,1.881c-32.564,13.816-51.394-2.291-70.017-3.812
		c-18.812-1.17-31.812,13.594-51.018,9.258c-0.789,2.072,0.492,5.127-0.299,7.793c19.209,3.73,35.752-8.867,52.99-7.793
		c15.266,0.691,29.866,9.648,41.256,9.426c13.201-0.194,25.018-8.479,37.723-10.145c11.857-1.547,33.4,9.705,42.268,11.051
		c11.134,1.914,18.615-0.381,27.871-4.219c6.504-2.072,8.623-3.851,16.104-5.422c13.19-3.838,21.914,5.812,33.145,7.981
		c14.679,3.74,27.265-3.896,42.027-3.69c0.402-2.957-0.875-6.31,0.207-8.283C294.627,138.745,277.87,141.651,273.387,143.19z"/>
	<path fill="#626567" d="M295.362,122.413c-12.713,2.156-24.922,8.486-38.82,4.939c-8.562-1.877-20.084-9.064-29.443-8.471
		c-14.576-0.496-29.842,14.409-43.823,10.932c-4.771,0.107-17.142-5.324-25.714-8.771c-23.932-5.516-34.67,3.945-51.311,7.783
		c-18.029,2.859-32.209-10.637-50.137-10.637c-5.271,0-11.623,0.781-17.037,3.242c-10.244,4.543-21.393,6.543-33.312,6.448
		c-0.26,0.185-0.342,6.91-0.137,7.343c4.24,1.582,8.086,0.252,14.734-0.244c14.086-0.439,21.078-7.627,32.697-7.824
		c11.623-2.166,22.555,6.008,33.584,9.063c18.024,4.228,32.896-6.018,50.043-7.586c16.245-1.184,28.854,6.402,43.526,9.851
		c21.672,5.91,41.025-17.285,57.914-10.354c9.424,4.799,22.752,11.633,36.147,9.467c8.048-2.235,15.539-5.344,23.914-5.049
		c0.197-0.393,1.283-0.102,0.685-0.684C297.694,128.515,301.417,120.05,295.362,122.413z"/>
</g>
</svg>
