<?xml version="1.0" encoding="utf-8"?>
<!-- Generator: Adobe Illustrator 16.0.0, SVG Export Plug-In . SVG Version: 6.00 Build 0)  -->
<!DOCTYPE svg PUBLIC "-//W3C//DTD SVG 1.1//EN" "http://www.w3.org/Graphics/SVG/1.1/DTD/svg11.dtd">
<svg version="1.1" id="Layer_1" xmlns="http://www.w3.org/2000/svg" xmlns:xlink="http://www.w3.org/1999/xlink" x="0px" y="0px"
	 width="1920px" height="1014.5px" viewBox="0 0 1920 1014.5" enable-background="new 0 0 1920 1014.5" xml:space="preserve">
<path fill="#95C841" d="M1920,0v307.346c-60.828-8.042-138.391-15.621-232.594-19.726
	c-263.731-11.503-839.158,66.74-1111.723,80.498C403.538,376.811,157.76,362.439,0,350.67V0H1920z"/>
<path fill="#FCF174" d="M575.684,368.117c272.564-13.757,847.991-92,1111.723-80.498c94.201,4.105,171.766,11.684,232.594,19.726
	v336.723c-66.332-8.31-155.531-14.239-272.538-12.589c-327.682,4.626-807.196,87.444-1136.514,75.338
	C320.818,699.833,128.562,690.142,0,683.196V350.67C157.76,362.439,403.538,376.811,575.684,368.117z"/>
<path fill="#49B4C0" d="M0,1014.5V683.197c128.562,6.945,320.818,16.636,510.948,23.623
	c329.317,12.105,808.832-70.713,1136.514-75.339c117.007-1.651,206.206,4.279,272.538,12.59V1014.5H0z"/>
</svg>
