<?xml version="1.0" encoding="utf-8" standalone="no"?>
<!-- Creator: Esri ArcMap 10.3.1.4959 -->
<!DOCTYPE svg PUBLIC "-//W3C//DTD SVG 1.1//EN"  "http://www.w3.org/Graphics/SVG/1.1/DTD/svg11.dtd">
<svg width="743.24409pt" height="623.25354pt" viewBox="0 0 743.24409 623.25354" enable-background="new 0 0 743.24409 623.25354"
	version="1.1" xmlns="http://www.w3.org/2000/svg" xmlns:xlink="http://www.w3.org/1999/xlink" >
	<g id="Layers">
		<g id="scsmooth">
			<clipPath id="SVG_CP_1">
				<path d="M0,623.25354L0,0L743.24409,0L743.24409,623.25354L0,623.25354z"/>
			</clipPath>
			<path clip-path="url(#SVG_CP_1)" fill="none" stroke="#000000" stroke-width="3.11986" stroke-miterlimit="10" stroke-linecap="round" stroke-linejoin="round" d="
				M162.95275,22.79683L163.19274,22.79683L163.67272,22.55686L164.39268,22.3169L164.87266,22.07693L165.11265,22.07693L165.59263,21.83696
				L166.07261,21.83696L166.55259,21.83696L166.79258,21.83696L167.51254,21.83696L167.99252,21.83696L168.23251,21.83696L169.43246,21.83696
				L169.91244,21.83696L170.39242,21.83696L170.63241,21.83696L171.11238,21.83696L171.59236,21.597L173.27229,21.11706L175.1922,20.63713
				L175.91217,20.39716L176.63214,20.39716L177.11212,20.39716L178.07207,20.1572L178.55205,20.1572L179.27202,20.1572L179.99199,20.1572
				L181.43193,20.39716L188.15163,20.8771L192.23144,21.11706L194.39135,21.35703L198.47117,21.597L202.79097,21.83696L205.43086,21.83696
				L208.79071,22.07693L219.35024,22.55686L221.99012,22.79683L227.98985,23.0368L231.10971,23.27676L240.70929,23.7567L249.10891,23.99666
				L257.02856,24.4766L261.34837,24.71656L265.66818,24.95653L280.54751,25.67643L284.86732,25.9164L296.14682,26.6363L311.02616,27.35619
				L330.46529,28.31606L344.62466,29.03596L352.7843,29.51589L355.42418,29.75586L356.62413,29.75586L358.06406,29.99583L358.78403,29.99583
				L359.26401,29.99583L359.98398,30.23579L360.46396,30.47576L360.94394,30.47576L361.42391,30.71573L361.90389,31.19566L362.14388,31.43563
				L362.38387,31.67559L362.38387,32.15553L362.86385,33.11539L363.10384,33.59533L363.58382,34.55519L363.58382,35.03513L363.82381,35.27509
				L363.82381,35.75503L364.0638,35.99499L364.0638,36.47493L364.0638,36.95486L364.0638,37.19483L364.0638,37.67476L363.82381,37.91473
				L363.58382,38.39466L363.58382,38.63463L363.34383,39.11456L362.62386,40.07443L362.38387,40.31439L362.14388,40.79433L361.90389,41.27426
				L361.90389,41.75419L361.6639,41.99416L361.6639,42.47409L361.42391,42.71406L361.42391,43.19399L361.42391,43.67392L361.18392,44.15386
				L361.18392,44.63379L361.42391,45.11372L361.42391,45.83362L361.6639,46.55352L361.90389,46.79349L362.14388,47.27342L362.14388,47.51339
				L362.38387,47.75336L362.86385,47.99332L363.10384,48.23329L363.34383,48.47326L363.58382,48.47326L364.0638,48.47326L364.54378,48.47326
				L365.02375,48.23329L365.26374,48.23329L365.50373,47.99332L366.2237,47.75336L366.94367,47.27342L368.14362,46.55352L370.06353,45.11372
				L374.86332,41.51423L376.06326,40.79433L376.54324,40.31439L377.02322,40.07443L377.5032,39.83446L377.98318,39.59449L378.46316,39.35453
				L378.94313,39.35453L379.42311,39.35453L379.6631,39.35453L379.90309,39.59449L380.62306,39.83446L381.10304,40.31439L381.58302,40.79433
				L382.063,41.27426L382.54297,41.99416L383.02295,42.47409L383.74292,43.67392L385.90282,46.31356L387.10277,47.99332L391.42258,53.99249
				L395.5024,59.75169L396.70234,61.43145L398.86225,64.55102L399.58222,65.51089L400.30218,66.47075L400.78216,67.19065L401.26214,67.91055
				L401.50213,68.39049L401.50213,68.63045L401.74212,69.11039L401.98211,69.59032L401.98211,70.07025L402.2221,70.55019L402.2221,71.03012
				L402.2221,71.75002L402.2221,72.22995L402.2221,72.94985L402.2221,73.66975L402.2221,74.38965L401.98211,75.58949L401.74212,78.22912
				L401.02215,83.50838L400.78216,85.42812L400.78216,86.14802L400.78216,86.86792L400.78216,87.34785L400.78216,88.06775L400.78216,88.54768
				L400.78216,89.02762L401.02215,89.26758L401.02215,89.74752L401.26214,89.98748L401.74212,90.22745L402.2221,90.46742L402.70208,90.70738
				L403.18206,90.70738L403.66203,90.94735L404.62199,90.94735L405.34196,90.94735L406.30192,90.94735L407.50186,90.94735L412.78163,90.94735
				L417.34143,90.94735L423.34116,90.94735L434.14068,91.18732L444.46022,91.18732L452.61986,91.18732L460.77949,91.42728L467.73918,91.42728
				L479.49866,91.66725L485.49839,91.66725L495.09796,91.90722L502.77762,91.90722L513.57714,92.14718L532.29631,92.38715L538.29604,92.38715
				L540.45595,92.38715L543.57581,92.38715L556.29524,92.14718L562.05498,92.14718L564.45488,92.14718L566.1348,92.14718L566.85477,92.14718
				L567.57474,92.38715L568.29471,92.38715L569.01467,92.62712L569.73464,92.86708L570.21462,93.10705L570.6946,93.34701L571.17458,93.58698
				L571.65456,94.06691L572.37453,94.54685L573.09449,95.26675L573.81446,95.98665L575.01441,97.18648L579.33422,101.26591L581.49412,103.42561
				L589.89375,111.58448L596.13347,117.58364L600.93325,122.38298L603.81313,124.78264L605.73304,126.70237L615.5726,136.06107L
				618.69246,139.18064L621.09236,141.82027L626.61211,147.3395L631.89188,152.85874L635.01174,155.9783L638.1316,159.09787L641.73144,162.69737
				L649.4111,170.13633L655.65082,176.37546L667.4103,187.89386L691.40923,210.93066L702.20875,221.48919L718.28803,237.08702L721.88787,240.68652
				L727.40763,246.20575L730.04751,248.60542L732.92738,251.48502L734.36732,252.92482L735.56726,253.88468L736.52722,255.08452
				L737.48718,256.04438L737.72717,256.28435L738.20714,256.76428L738.44713,257.24422L738.68712,257.72415L739.1671,258.44405L
				739.64708,258.92398L739.88707,259.40391L740.84703,260.36378L741.32701,260.60375L741.80698,261.08368L742.04697,261.32365L
				742.04697,261.56361L742.04697,261.80358L742.04697,262.28351L741.80698,262.52348L742.04697,262.76345L742.04697,263.00341L
				742.28696,263.24338L742.52695,263.48335L742.52695,263.72331L742.28696,263.96328L742.04697,264.20325L741.80698,264.44321L
				741.32701,264.44321L740.84703,264.68318L739.88707,264.92315L736.52722,265.88301L736.04724,266.12298L733.40736,267.08285L
				731.72743,267.56278L731.00746,267.80275L729.56753,268.76261L726.68766,269.96245L725.24772,270.44238L724.04777,271.16228L
				722.12786,272.12215L720.92791,272.84205L719.48798,273.56195L718.04804,274.52181L716.60811,275.48168L714.20821,276.92148L
				711.80832,278.84121L710.12839,279.80108L708.68846,281.00091L707.00853,282.20074L705.5686,283.40058L704.36865,284.36044L702.92871,285.80024
				L701.48878,287.00008L700.28883,288.19991L699.08889,289.39974L697.64895,290.59957L696.449,292.03937L695.24906,293.47917L693.08915,295.63887
				L689.7293,299.23837L687.08942,302.35794L686.12946,303.31781L685.16951,304.27767L684.20955,305.47751L683.48958,306.43737L
				682.52962,307.6372L678.20981,313.3964L675.80992,316.51597L675.56993,316.9959L675.08995,317.7158L673.65002,319.63554L673.41003,320.35544
				L672.93005,320.83537L672.45007,321.3153L671.01014,322.99507L670.77015,323.475L670.05018,324.43487L669.5702,324.9148L669.33021,325.39473
				L668.85023,326.3546L668.61024,326.83453L668.37025,327.0745L668.13026,327.55443L667.65028,328.03437L667.17031,328.75427L665.0104,331.15393
				L664.53042,331.87383L663.81046,332.8337L663.57047,333.31363L662.8505,334.2735L662.13053,335.47333L661.17057,336.91313L660.69059,337.63303
				L659.49065,340.0327L659.01067,340.7526L658.77068,340.99256L658.05071,342.9123L657.81072,343.39223L656.85077,345.55193L656.37079,346.27183
				L656.1308,347.2317L655.65082,348.19156L655.41083,349.3914L654.93085,351.07116L654.45087,352.51096L653.7309,355.63053L653.7309,356.11046
				L653.49092,356.83036L653.25093,357.31029L653.01094,357.79023L652.77095,358.03019L652.29097,358.27016L652.05098,358.51013
				L651.81099,358.75009L651.571,358.99006L651.33101,359.70996L651.09102,359.94993L651.09102,360.42986L650.85103,360.66983L650.85103,361.14976
				L651.09102,361.38973L651.09102,361.62969L651.33101,363.06949L651.33101,363.54943L651.33101,364.26933L651.33101,364.74926
				L651.33101,365.22919L651.09102,366.18906L651.09102,366.66899L650.85103,368.58873L650.13106,372.42819L650.13106,374.10796
				L649.89108,375.06782L649.89108,375.54776L649.89108,376.74759L649.89108,377.46749L649.89108,377.94742L650.13106,379.14726
				L650.37105,381.30696L650.37105,382.02686L650.37105,382.26682L650.37105,382.50679L650.13106,382.74676L649.89108,382.74676
				L649.89108,382.50679L649.65109,382.50679L649.65109,382.26682L649.4111,381.78689L649.17111,381.54692L648.93112,380.82702L
				648.69113,380.10712L648.45114,378.66732L647.73117,376.98756L647.49118,376.02769L647.49118,375.30779L647.25119,374.34792L
				647.0112,373.14809L647.0112,372.18823L647.0112,371.94826L647.0112,370.98839L647.0112,369.78856L646.77121,369.30863L646.77121,368.82869
				L646.77121,368.58873L646.77121,368.10879L646.53122,367.86883L646.29124,367.62886L646.05125,367.38889L645.81126,367.14893
				L645.57127,366.90896L645.09129,366.66899L644.37132,366.42903L644.13133,366.42903L643.65135,366.42903L643.17137,366.42903
				L641.97143,366.42903L640.77148,366.42903L639.57153,366.66899L639.09156,366.66899L638.61158,366.66899L638.37159,366.66899
				L637.65162,366.66899L637.17164,366.42903L636.69166,366.18906L636.21168,365.70913L635.97169,365.22919L635.73171,364.98923
				L635.73171,364.74926L635.73171,364.50929L635.73171,364.02936L635.49172,362.82953L635.49172,362.10963L635.49172,361.62969
				L635.49172,361.38973L635.73171,360.90979L635.97169,360.66983L636.93165,359.23003L637.41163,358.51013L637.89161,357.79023
				L638.1316,357.07033L638.61158,356.35043L639.33155,354.67066L639.81152,353.7108L640.05151,352.75093L641.01147,351.31113L641.25146,350.59123
				L641.49145,350.35126L641.49145,350.1113L641.49145,349.87133L641.25146,349.87133L641.01147,350.1113L640.77148,350.35126L640.2915,350.59123
				L639.81152,351.31113L638.85157,352.51096L637.65162,353.7108L637.17164,354.19073L636.93165,354.4307L636.69166,354.67066L635.97169,355.1506
				L635.73171,355.39056L635.25173,355.63053L634.77175,356.11046L634.53176,356.59039L634.29177,356.83036L634.05178,357.07033
				L633.81179,357.55026L633.5718,357.79023L633.33181,358.99006L632.85183,359.70996L632.61184,360.42986L632.61184,360.90979L
				632.61184,361.38973L632.37186,362.10963L632.37186,363.06949L632.37186,364.02936L632.37186,364.98923L632.37186,365.94909L
				632.61184,366.42903L632.61184,366.90896L632.61184,367.38889L632.85183,367.86883L633.09182,368.34876L633.09182,368.58873L
				633.33181,369.06866L633.5718,369.30863L633.81179,369.78856L634.29177,370.26849L634.53176,370.74843L635.01174,371.22836L635.49172,371.70829
				L636.45167,372.66816L637.17164,373.38806L637.89161,373.86799L638.37159,374.34792L638.85157,374.58789L639.33155,374.82786
				L640.05151,375.06782L641.73144,375.78772L642.21142,376.02769L643.17137,376.50762L643.41136,376.74759L643.89134,376.98756
				L644.13133,377.22752L644.61131,377.46749L644.8513,377.70746L645.09129,377.94742L645.33128,378.18739L645.57127,378.66732L
				645.81126,378.90729L645.81126,379.38722L646.05125,379.86716L646.05125,380.10712L646.29124,380.82702L646.29124,381.30696L
				646.53122,381.78689L646.53122,383.22669L646.77121,383.94659L646.77121,384.42652L646.77121,384.90646L647.0112,385.38639L647.25119,385.62636
				L647.25119,385.86632L647.49118,386.10629L647.73117,386.58622L648.45114,387.06616L648.45114,387.30612L648.69113,387.54609
				L648.69113,387.78606L648.69113,388.02602L648.69113,388.50596L648.45114,388.98589L648.21115,389.46582L647.97116,389.94575
				L647.73117,390.42569L647.0112,390.90562L646.53122,391.62552L646.29124,392.10545L645.81126,392.34542L645.09129,393.06532L
				644.61131,393.54525L644.13133,393.78522L643.89134,394.02519L643.41136,394.26515L642.93139,394.50512L642.6914,394.50512L642.45141,394.74509
				L642.21142,394.50512L641.97143,394.50512L641.73144,394.26515L641.49145,394.02519L641.49145,393.78522L640.77148,392.34542
				L640.53149,391.86549L640.2915,391.38555L640.05151,391.14559L639.81152,390.90562L639.57153,390.66565L639.33155,390.42569L
				639.33155,390.18572L638.85157,390.18572L638.61158,390.18572L638.37159,390.18572L638.37159,390.42569L638.37159,390.66565L
				638.61158,390.90562L638.61158,391.14559L639.09156,392.10545L639.09156,392.58539L639.33155,393.06532L639.33155,393.54525L
				639.57153,394.26515L639.57153,395.22502L639.57153,395.70495L639.57153,396.42485L639.57153,396.66482L639.57153,397.14475L
				639.33155,397.62469L639.33155,397.86465L639.09156,398.10462L638.85157,398.34459L638.61158,398.58455L638.37159,398.82452L
				637.89161,399.06449L637.65162,399.06449L637.17164,399.06449L636.93165,399.06449L636.45167,399.30445L635.97169,399.30445L
				635.49172,399.54442L635.01174,399.78439L634.77175,400.26432L634.29177,400.50429L633.33181,401.46415L632.61184,401.94409L
				631.65189,402.42402L631.17191,402.90395L630.21195,403.38389L629.73197,403.62385L629.25199,404.10379L628.77202,404.34375L
				628.29204,404.34375L626.8521,405.06365L626.37212,405.30362L626.13213,405.54359L625.65215,405.78355L625.17218,406.02352L624.45221,406.50345
				L622.77228,407.46332L622.53229,407.94325L622.05231,408.18322L621.57234,408.66315L621.09236,409.38305L620.85237,409.62302
				L620.61238,410.10295L620.61238,410.58288L620.37239,411.06282L620.37239,411.54275L620.85237,413.94242L620.85237,414.18238
				L621.09236,414.90228L621.09236,415.38222L621.33235,415.86215L621.33235,416.34208L621.33235,416.58205L621.33235,416.82202
				L621.33235,417.30195L621.09236,417.78188L621.09236,418.98172L620.85237,419.22168L620.85237,419.46165L620.85237,419.70162
				L620.61238,419.94158L620.37239,420.18155L619.89241,420.42152L619.65242,420.42152L619.17244,420.42152L618.93245,420.42152
				L618.69246,420.42152L618.21249,420.18155L617.49252,419.94158L617.25253,419.70162L616.53256,419.46165L616.29257,419.46165
				L615.81259,419.22168L615.33261,419.22168L614.61265,419.22168L613.89268,419.22168L613.17271,419.46165L612.69273,419.46165
				L611.25279,419.94158L610.05285,420.18155L607.41297,420.66148L606.693,420.90145L605.25306,421.38138L605.01307,421.38138L604.53309,421.62135
				L604.2931,421.62135L604.05312,421.62135L603.57314,421.38138L603.33315,421.38138L603.09316,421.14142L602.85317,420.66148L
				602.37319,419.94158L602.1332,419.70162L601.65322,418.74175L600.45328,416.82202L600.21329,416.58205L599.73331,416.10212L599.49332,415.86215
				L599.01334,415.86215L598.53336,415.62218L597.81339,415.62218L597.5734,415.62218L597.09343,415.62218L596.85344,415.62218L
				596.13347,415.62218L595.89348,415.86215L595.4135,416.10212L594.93352,416.82202L594.69353,417.06198L594.45354,417.30195L594.21355,417.54192
				L593.01361,418.26182L592.05365,418.98172L591.33368,419.46165L590.61371,419.94158L590.13373,420.66148L589.65376,420.90145
				L589.41377,421.38138L588.93379,421.86132L588.6938,422.34125L587.73384,423.54108L587.25386,424.50095L585.81393,426.18071L
				585.57394,426.66065L585.09396,427.38055L584.37399,428.34041L583.89401,429.54025L583.41403,430.26015L582.69407,431.93991L
				582.45408,432.65981L582.21409,433.13975L581.9741,433.37971L581.9741,433.85965L582.21409,434.09961L582.45408,434.33958L582.93406,434.57955
				L583.65402,434.81951L584.61398,435.29945L584.85397,435.53941L585.33395,435.53941L585.81393,435.77938L586.5339,435.77938L
				586.77388,435.77938L587.25386,435.77938L588.21382,435.77938L588.45381,436.01935L588.93379,436.01935L589.17378,436.01935L
				589.41377,436.25931L589.65376,436.25931L589.65376,436.49928L589.89375,436.73925L589.89375,436.97921L589.89375,437.45915L
				589.89375,437.69911L589.65376,437.93908L589.65376,438.41901L589.41377,438.65898L589.17378,439.13891L588.93379,439.37888L
				588.6938,439.61884L588.45381,439.85881L587.97383,440.09878L587.49385,440.33874L587.01387,440.57871L586.5339,440.81868L584.134,442.01851
				L583.17404,442.49844L582.93406,442.49844L581.9741,442.97838L581.25413,443.45831L581.01414,443.69828L580.05418,444.17821L
				578.85424,445.13808L578.13427,445.85798L575.73438,447.29778L574.77442,448.01768L573.81446,448.73758L573.33448,448.97754L
				572.61451,449.45748L572.13454,450.17738L571.41457,450.65731L570.21462,452.09711L569.97463,452.33708L569.25466,453.05698L
				568.77469,453.29694L568.29471,453.77688L568.05472,454.01684L567.81473,454.01684L567.33475,454.25681L567.09476,454.49678L
				567.09476,454.73674L566.85477,454.97671L566.85477,455.45664L566.85477,455.69661L566.85477,456.17654L567.09476,456.41651L
				567.09476,456.65647L566.85477,456.89644L566.85477,457.37637L566.61478,457.61634L566.37479,457.85631L566.1348,458.09627L565.89481,458.33624
				L565.65482,458.57621L565.17485,458.81617L564.93486,459.05614L563.9749,459.53607L563.49492,459.77604L558.45514,461.93574L
				557.73518,462.17571L556.05525,462.65564L555.81526,462.65564L555.57527,462.65564L555.09529,462.65564L554.85531,462.65564L
				554.37533,462.65564L554.13534,462.65564L553.89535,462.65564L553.41537,462.89561L553.17538,463.13557L553.17538,463.61551L
				552.93539,463.85547L552.6954,464.57537L552.45541,464.81534L552.21542,465.05531L552.21542,465.29527L551.97543,465.53524L551.73544,465.77521
				L551.49545,466.01517L551.25547,466.25514L550.77549,466.25514L550.5355,466.49511L550.29551,466.73507L550.05552,466.73507L
				549.57554,466.97504L549.33555,466.97504L549.09556,466.97504L548.85557,466.97504L548.61558,466.97504L548.1356,466.73507L547.65563,466.49511
				L547.41564,466.01517L546.93566,465.53524L546.69567,465.29527L546.45568,465.05531L545.49572,464.33541L544.77575,463.85547
				L543.33582,462.89561L542.61585,462.41567L542.37586,462.17571L541.65589,461.93574L541.17591,461.93574L540.45595,461.93574
				L540.21596,461.93574L539.97597,461.69577L539.73598,461.69577L539.49599,461.45581L539.256,461.21584L539.256,460.97587L539.01601,460.73591
				L539.01601,460.25597L539.01601,460.01601L539.01601,459.53607L539.01601,459.05614L539.256,458.33624L539.256,457.85631L539.256,457.61634
				L539.49599,457.13641L539.49599,456.89644L539.97597,456.17654L540.21596,455.69661L540.45595,454.97671L540.69594,454.49678
				L541.17591,453.53691L541.17591,453.05698L541.4159,452.81701L541.4159,452.57704L541.4159,452.33708L541.4159,452.09711L541.4159,451.85714
				L541.17591,451.85714L541.17591,451.61718L540.93592,451.61718L540.93592,451.85714L540.69594,452.09711L540.21596,453.05698
				L539.97597,453.53691L539.73598,453.77688L539.49599,454.01684L539.256,454.25681L538.77602,454.49678L538.29604,454.49678L537.81606,454.73674
				L537.33608,454.73674L536.85611,454.49678L536.37613,454.49678L535.89615,454.01684L535.41617,453.77688L535.17618,453.53691
				L534.93619,453.05698L534.21622,451.85714L533.97623,451.61718L533.73625,451.37721L533.73625,451.13724L533.49626,450.89728
				L533.25627,450.89728L533.49626,451.37721L533.49626,451.61718L533.49626,451.85714L533.73625,452.09711L533.73625,452.33708
				L533.73625,453.29694L533.73625,453.53691L533.97623,454.01684L533.97623,454.25681L534.45621,455.69661L534.6962,456.89644L
				534.93619,457.61634L535.17618,458.33624L535.41617,459.53607L535.41617,460.01601L535.65616,460.97587L535.65616,461.45581L
				535.65616,461.93574L535.65616,462.65564L535.65616,462.89561L535.41617,463.37554L535.41617,463.85547L535.17618,464.09544L
				534.93619,464.33541L534.6962,464.57537L534.45621,464.57537L533.97623,464.81534L533.73625,464.81534L533.01628,464.81534L532.77629,465.05531
				L532.5363,465.05531L532.5363,465.29527L532.5363,465.53524L532.5363,465.77521L533.01628,466.25514L533.25627,466.49511L533.49626,466.73507
				L533.73625,466.97504L534.21622,467.45497L534.93619,467.69494L535.41617,467.93491L535.89615,467.93491L536.37613,468.17487
				L537.81606,468.65481L538.29604,468.89477L538.77602,468.89477L539.256,469.13474L539.49599,469.13474L539.73598,469.37471L539.97597,469.61467
				L540.45595,469.85464L540.69594,470.33457L541.65589,471.29444L541.89588,471.5344L542.37586,471.77437L542.61585,472.01434L
				543.09583,472.2543L543.33582,472.49427L543.57581,472.73424L543.8158,472.9742L543.8158,473.45414L543.8158,473.93407L543.8158,474.414
				L543.57581,474.89394L543.33582,475.61384L543.09583,476.33374L542.37586,477.2936L541.89588,478.25347L541.65589,478.7334L541.65589,479.21334
				L541.4159,479.4533L541.4159,480.1732L541.4159,480.65314L541.4159,480.8931L541.17591,481.13307L541.17591,481.37304L540.93592,481.613
				L540.69594,481.85297L540.45595,482.09294L540.21596,482.3329L539.97597,482.57287L539.49599,483.0528L539.01601,483.29277L538.05605,484.01267
				L534.93619,485.9324L533.97623,486.6523L533.25627,486.89227L532.5363,487.3722L531.57634,487.85214L530.85637,488.0921L530.61638,488.0921
				L530.37639,488.33207L529.89642,488.33207L529.41644,488.33207L528.69647,488.33207L528.45648,488.33207L527.9765,488.33207L
				527.49652,488.57203L526.29658,488.812L525.8166,489.05197L525.33662,489.05197L525.09663,489.05197L524.85664,489.05197L524.37666,489.05197
				L524.13667,489.05197L523.89668,488.812L523.65669,488.812L523.65669,488.57203L523.4167,488.33207L523.4167,488.0921L523.17672,487.61217
				L522.93673,487.3722L522.69674,487.3722L522.45675,487.3722L522.21676,487.3722L521.97677,487.61217L521.73678,487.85214L521.49679,488.33207
				L521.2568,488.57203L521.2568,488.812L521.2568,489.29193L521.49679,489.5319L521.49679,489.77187L521.73678,490.01183L522.21676,490.2518
				L522.45675,490.73173L523.4167,491.21167L523.89668,491.6916L524.13667,491.93157L524.37666,492.17153L524.61665,492.4115L524.85664,492.65147
				L524.85664,492.89143L524.85664,493.1314L524.85664,493.37137L524.61665,493.61133L524.37666,493.8513L524.13667,494.09127L523.89668,494.09127
				L523.65669,494.33123L523.17672,494.5712L522.93673,494.5712L522.45675,494.5712L522.21676,494.81117L521.73678,494.81117L519.57688,495.05113
				L518.13694,495.05113L516.697,495.2911L515.49706,495.53107L514.5371,495.77103L513.33715,496.011L511.89722,496.49093"/>
			<path clip-path="url(#SVG_CP_1)" fill="none" stroke="#000000" stroke-width="3.11986" stroke-miterlimit="10" stroke-linecap="round" stroke-linejoin="round" d="
				M511.89722,496.49093L510.21729,496.97087L509.49732,497.21083L508.77736,497.4508L507.33742,497.93073L505.89748,498.65063L
				504.93753,498.8906L504.45755,499.37053L503.97757,499.6105L503.73758,499.85047L503.01761,500.09043L502.53763,500.57037L500.61772,502.25013
				L500.13774,502.4901L499.41777,502.97003L499.17778,503.21L498.6978,503.21L498.45782,503.44997L497.97784,503.44997L497.73785,503.44997
				L497.49786,503.44997L497.01788,503.21L496.5379,502.97003L496.05792,502.73007L495.81793,502.4901L493.89802,500.81033L492.45808,499.37053
				L491.9781,498.8906L491.73811,498.65063L491.49813,498.41067L491.25814,498.1707L490.53817,496.97087L490.29818,496.49093L489.8182,496.011
				L489.33822,495.77103L488.85824,495.2911L488.37826,495.05113L487.6583,494.5712L487.17832,494.33123L486.93833,494.09127L486.69834,493.8513
				L486.21836,493.61133L485.97837,493.1314L485.73838,492.65147L485.49839,492.17153L485.49839,491.6916L485.2584,491.21167L485.2584,490.73173
				L485.2584,490.01183L485.2584,489.29193L485.2584,488.0921L485.01841,487.61217L485.01841,487.13224L484.77842,487.13224L484.77842,486.89227
				L484.29845,486.89227L484.05846,486.89227L483.81847,487.13224L483.33849,487.3722L482.85851,488.33207L482.61852,488.57203L
				481.89855,489.5319L481.65856,490.01183L481.41857,490.2518L481.41857,490.49177L481.17858,490.73173L480.93859,490.9717L480.69861,490.9717
				L480.21863,491.21167L479.97864,491.21167L479.73865,491.21167L479.25867,491.21167L477.57874,491.21167L476.13881,490.9717L
				475.65883,490.9717L475.41884,490.9717L475.17885,491.21167L474.93886,491.45163L474.69887,491.6916L474.69887,492.17153L474.69887,492.4115
				L474.69887,492.65147L474.69887,492.89143L474.69887,493.1314L474.93886,493.37137L474.93886,493.61133L475.17885,493.8513L475.41884,494.09127
				L475.65883,494.33123L476.3788,495.05113L476.85878,495.2911L477.09877,495.2911L477.57874,495.53107L477.81873,495.53107L478.29871,495.53107
				L478.5387,495.2911L479.97864,495.05113L480.45862,495.05113L480.69861,495.05113L481.89855,495.05113L482.61852,495.2911L482.85851,495.2911
				L483.33849,495.2911L483.81847,495.53107L485.2584,496.011L485.73838,496.25097L486.21836,496.7309L486.69834,496.97087L486.93833,497.21083
				L487.6583,497.69077L488.13827,498.1707L488.85824,498.65063L489.8182,499.6105L490.53817,500.3304L491.73811,501.53023L492.21809,501.7702
				L492.93806,502.4901L492.93806,502.73007L493.17805,502.97003L493.41804,503.21L493.41804,503.44997L493.41804,503.68993L493.41804,503.9299
				L493.17805,504.16987L492.93806,504.40983L492.69807,504.6498L492.21809,505.12973L491.73811,505.3697L490.77816,506.56953L490.29818,506.8095
				L489.8182,507.04946L489.33822,507.5294L488.37826,508.00933L486.45835,509.44913L485.97837,509.6891L482.85851,511.8488L481.65856,512.80866
				L481.17858,513.04863L480.21863,513.76853L479.25867,514.7284L477.81873,515.92823L477.33876,516.1682L476.3788,516.8881L476.13881,517.12806
				L475.65883,517.608L474.93886,517.84796L474.45888,518.08793L473.9789,518.3279L473.73892,518.3279L473.49893,518.3279L473.01895,518.3279
				L472.77896,518.08793L472.29898,517.84796L472.05899,517.36803L472.05899,517.12806L471.819,516.64813L471.33902,515.68826L471.09903,515.20833
				L470.85904,514.96836L470.61905,514.48843L470.37906,514.0085L470.13908,513.76853L469.17912,512.5687L468.93913,512.08876L468.21916,511.36886
				L467.01921,510.409L466.29925,509.44913L465.81927,509.20916L465.0993,508.48926L463.41937,507.5294L462.9394,507.04946L462.69941,506.8095
				L462.45942,506.56953L462.21943,506.32956L462.21943,506.0896L461.97944,505.84963L461.97944,505.60966L461.73945,504.88976L
				461.73945,504.6498L461.49946,504.40983L461.25947,504.16987L461.01948,504.16987L460.77949,504.40983L460.5395,504.6498L460.29951,504.88976
				L460.29951,505.12973L460.05952,505.3697L460.05952,505.60966L460.05952,506.0896L460.05952,506.32956L460.29951,506.8095L460.29951,507.04946
				L460.5395,507.5294L461.01948,507.76936L461.49946,508.2493L461.97944,508.72923L463.89935,509.44913L464.37933,509.92906L464.85931,510.16903
				L465.33929,510.64896L465.81927,511.1289L466.29925,511.36886L466.53924,511.60883L466.77923,512.08876L467.01921,512.32873L
				467.2592,512.80866L467.49919,513.2886L467.73918,513.52856L467.97917,514.0085L467.97917,514.48843L467.97917,514.96836L467.97917,515.20833
				L467.97917,515.4483L467.97917,515.92823L467.73918,516.1682L467.49919,516.40816L467.2592,516.8881L467.01921,517.12806L466.77923,517.36803
				L466.53924,517.608L466.05926,518.08793L464.85931,519.0478L464.61932,519.28776L464.13934,519.28776L463.65936,519.52773L463.41937,519.7677
				L462.9394,519.7677L462.45942,520.00766L462.21943,520.00766L461.73945,519.7677L461.49946,519.7677L461.25947,519.52773L460.77949,519.28776
				L460.5395,519.0478L460.29951,518.80783L460.29951,518.3279L459.57955,517.36803L459.33956,516.8881L459.09957,516.64813L458.85958,516.40816
				L458.3796,515.92823L457.89962,515.92823L457.65963,515.68826L457.17965,515.4483L456.93966,515.4483L456.69967,515.20833L456.2197,515.20833
				L455.73972,515.20833L455.25974,515.4483L454.29978,515.68826L453.57981,515.68826L453.33982,515.68826L452.85984,515.92823L
				452.37987,515.92823L452.13988,515.92823L451.6599,515.68826L451.17992,515.68826L450.69994,515.68826L450.45995,515.4483L449.97997,515.4483
				L449.73998,515.20833L449.26,515.20833L448.78003,514.7284L448.54004,514.7284L448.06006,514.48843L447.58008,514.0085L444.9402,511.60883
				L443.50026,510.409L443.26027,510.16903L442.78029,509.92906L442.5403,509.44913L442.5403,509.20916L442.06033,508.48926L441.58035,507.28943
				L441.34036,507.04946L440.86038,506.32956L440.86038,506.0896L440.62039,505.84963L440.14041,505.3697L439.66043,505.12973L439.42044,505.12973
				L439.18045,505.12973L438.46049,505.12973L438.2205,504.88976L437.98051,504.88976L437.50053,504.6498L437.26054,504.40983L436.78056,503.9299
				L435.8206,502.97003L435.58061,502.73007L435.34062,502.4901L435.10064,502.25013L434.62066,501.53023L434.38067,501.29027L434.14068,501.0503
				L433.90069,500.81033L433.6607,500.57037L433.42071,500.57037L433.18072,500.3304L432.70074,500.3304L431.5008,500.09043L429.58088,499.6105
				L428.86091,499.6105L428.14094,499.37053L427.66097,499.13057L426.941,498.65063L425.98104,498.1707L425.50106,497.93073L425.26107,497.69077
				L425.02108,497.4508L424.54111,497.21083L424.30112,496.97087L424.06113,496.49093L423.82114,496.25097L423.58115,495.77103L
				423.34116,495.2911L423.10117,495.05113L423.10117,494.81117L422.62119,493.8513L422.3812,493.37137L422.14121,493.1314L421.90122,493.1314
				L421.42124,493.1314L420.94127,493.37137L420.46129,493.61133L420.2213,493.8513L419.98131,494.09127L419.98131,494.33123L419.74132,494.81117
				L419.50133,495.05113L419.50133,495.53107L419.50133,496.011L419.50133,496.49093L419.74132,496.7309L420.2213,498.1707L420.70128,499.37053
				L420.94127,499.85047L420.94127,500.09043L421.18125,500.3304L421.66123,500.81033L422.14121,501.29027L422.86118,501.53023L
				423.34116,501.7702L424.06113,502.01017L424.54111,502.01017L425.02108,502.01017L426.941,502.01017L427.42098,502.01017L428.14094,502.01017
				L429.1009,502.01017L429.58088,502.25013L429.82087,502.25013L430.30085,502.25013L430.54084,502.4901L431.02082,502.73007L431.26081,502.97003
				L431.74078,503.21L431.98077,503.68993L432.22076,503.9299L432.46075,504.40983L432.70074,504.88976L432.94073,505.3697L433.42071,506.56953
				L433.90069,507.28943L433.90069,507.5294L434.14068,508.00933L434.62066,508.2493L434.86065,508.72923L435.10064,508.9692L435.8206,509.44913
				L436.06059,509.6891L436.30058,510.16903L436.30058,510.409L436.54057,510.64896L436.54057,511.1289L436.54057,511.60883L436.54057,512.32873
				L436.54057,512.5687L436.30058,512.80866L436.30058,513.2886L436.06059,513.76853L435.58061,514.0085L435.34062,514.24846L435.10064,514.48843
				L434.62066,514.48843L434.38067,514.48843L434.14068,514.48843L433.90069,514.24846L433.18072,514.0085L432.70074,513.76853L
				432.22076,513.52856L431.02082,513.2886L429.82087,513.04863L429.1009,512.80866L428.62092,512.80866L427.66097,512.80866L426.941,512.80866
				L425.02108,512.80866L424.30112,512.80866L423.82114,512.80866L423.34116,512.5687L422.86118,512.5687L421.66123,512.08876L421.18125,511.8488
				L420.70128,511.8488L420.46129,511.8488L419.98131,511.8488L419.50133,511.8488L419.50133,512.08876L419.26134,512.5687L419.50133,512.80866
				L419.50133,513.04863L419.98131,513.76853L419.98131,514.0085L420.2213,514.24846L420.70128,514.7284L421.18125,514.96836L421.90122,515.20833
				L422.3812,515.20833L422.62119,515.4483L423.10117,515.4483L423.58115,515.4483L424.30112,515.4483L426.22103,515.4483L427.18099,515.4483
				L427.42098,515.4483L427.90096,515.68826L428.38093,515.68826L429.1009,515.92823L429.58088,515.92823L430.06086,516.1682L430.78083,516.64813
				L431.98077,517.12806L432.22076,517.36803L432.70074,517.608L433.42071,517.84796L433.90069,517.84796L434.38067,517.84796L434.62066,517.84796
				L435.10064,517.84796L435.58061,517.84796L435.8206,517.84796L436.30058,517.84796L437.02055,517.608L438.2205,517.608L438.70047,517.36803
				L438.94046,517.36803L439.42044,517.12806L440.14041,516.64813L440.62039,516.64813L441.10037,516.40816L441.58035,516.1682L
				441.82034,516.1682L442.30031,516.1682L442.5403,516.1682L443.02028,516.1682L443.74025,516.40816L444.22023,516.40816L444.9402,516.64813
				L445.42018,517.12806L445.90015,517.36803L446.38013,517.608L448.06006,518.56786L448.54004,519.0478L448.78003,519.28776L449.26,519.52773
				L449.49999,519.7677L449.73998,520.00766L449.73998,520.24763L449.97997,520.4876L449.97997,520.96753L449.97997,521.20749L449.73998,521.44746
				L449.49999,521.68743L449.49999,521.92739L449.26,522.16736L448.78003,522.40733L448.54004,522.64729L448.06006,522.64729L447.58008,522.88726
				L447.1001,522.88726L446.62012,522.88726L445.66017,522.88726L444.9402,522.64729L444.46022,522.64729L443.50026,522.64729L443.02028,522.40733
				L442.5403,522.40733L442.30031,522.16736L441.82034,521.92739L441.58035,521.92739L440.62039,521.20749L440.3804,521.20749L439.90042,521.20749
				L439.42044,521.44746L438.46049,521.92739L437.74052,522.16736L435.58061,523.36719L435.34062,523.36719L435.10064,523.60716
				L435.10064,523.84713L435.10064,524.08709L435.34062,524.08709L435.58061,524.32706L436.30058,524.32706L436.78056,524.08709
				L437.98051,524.08709L438.2205,524.08709L438.70047,524.08709L439.18045,524.08709L439.66043,524.08709L440.62039,524.08709L
				442.30031,524.32706L444.22023,524.80699L445.18019,524.80699L446.14014,525.04696L447.34009,525.28693L448.06006,525.52689L
				448.54004,525.76686L449.02002,525.76686L449.49999,526.00683L449.97997,526.24679L450.45995,526.72673L450.93993,527.20666L
				451.17992,527.44663L451.41991,527.68659L451.6599,527.92656L451.89989,528.40649L452.37987,529.12639L452.61986,529.84629L453.8198,532.24596
				L453.8198,532.48593L454.05979,532.72589L454.29978,532.72589L454.53977,532.96586L454.77976,532.96586L455.01975,532.96586L
				455.25974,532.72589L456.2197,532.72589L456.45968,532.48593L456.69967,532.48593L456.93966,532.72589L457.17965,532.72589L457.41964,532.96586
				L457.65963,533.20583L457.65963,533.44579L457.89962,533.92573L457.89962,534.16569L457.89962,534.40566L457.89962,535.12556
				L457.89962,535.84546L457.89962,536.32539L457.89962,537.04529L457.65963,537.52522L457.41964,538.24512L457.17965,539.20499
				L456.93966,540.16486L456.45968,541.12472L456.2197,542.32456L455.97971,542.80449L455.49973,543.52439L454.53977,545.20416L
				454.29978,545.92406L454.05979,546.88392L453.8198,547.12389L453.8198,547.36386L453.57981,547.60382L453.09983,548.08376L452.85984,548.32372
				L452.61986,548.56369L452.13988,548.80366L451.41991,549.04362L450.45995,549.52356L449.26,550.24346L447.34009,551.20332L445.66017,552.16319
				L444.46022,552.88309L443.74025,553.12306L440.86038,554.80282L440.14041,555.28275L439.42044,555.76269L438.94046,556.00265
				L438.2205,556.00265L437.98051,556.24262L437.50053,556.24262L437.02055,556.48259L436.78056,556.48259L436.30058,556.24262L
				436.06059,556.00265L435.8206,555.76269L435.8206,555.52272L435.8206,555.04279L436.06059,554.80282L436.06059,554.56285L436.30058,554.08292
				L436.54057,553.60299L437.02055,552.88309L437.50053,552.16319L437.74052,551.68326L437.98051,551.20332L437.98051,550.72339
				L437.98051,550.48342L437.98051,550.24346L437.74052,550.24346L437.50053,550.24346L437.26054,550.48342L436.78056,550.96336
				L436.30058,551.68326L435.10064,553.36302L433.6607,555.28275L432.94073,556.00265L432.70074,556.24262L432.22076,556.96252L
				431.74078,557.20249L431.5008,557.44245L431.02082,557.92239L430.54084,558.16235L430.30085,558.64229L429.82087,558.88225L429.34089,559.12222
				L428.62092,559.36219L428.38093,559.36219L428.14094,559.60215L427.66097,559.60215L427.18099,559.60215L426.941,559.60215L426.46102,559.36219
				L426.22103,559.36219L425.98104,559.12222L425.74105,558.88225L425.50106,558.64229L425.26107,558.16235L425.02108,557.68242
				L424.78109,556.96252L424.78109,556.48259L424.78109,556.00265L424.78109,555.04279L424.78109,554.32289L424.78109,552.88309
				L424.78109,551.68326L424.78109,550.48342L424.78109,549.52356L424.78109,548.80366L424.30112,544.48426L424.30112,543.76436
				L424.06113,543.04446L424.06113,542.80449L424.06113,542.32456L423.82114,542.08459L423.82114,541.84462L423.58115,541.60466
				L423.10117,541.12472L422.62119,540.40482L422.3812,540.16486L422.14121,539.92489L421.90122,539.68492L421.66123,539.20499L
				421.42124,538.72506L421.18125,538.24512L421.18125,537.76519L421.18125,536.80533L420.94127,535.12556L420.94127,534.88559L
				420.94127,533.44579L420.94127,532.96586L420.70128,532.24596L420.70128,531.52606L420.70128,531.04613L420.46129,530.08626L
				420.2213,529.60633L419.98131,529.36636L419.98131,529.12639L419.74132,529.12639L419.50133,529.12639L419.50133,529.36636L419.26134,529.36636
				L419.26134,529.84629L419.26134,530.32623L419.50133,531.28609L419.50133,532.24596L419.50133,532.72589L419.50133,533.20583
				L419.50133,534.16569L419.50133,535.36553L419.50133,536.08543L419.26134,536.32539L419.26134,536.80533L419.26134,537.28526
				L419.02135,538.00516L418.78136,538.72506L418.54137,539.20499L418.54137,539.44496L418.54137,539.68492L418.78136,540.16486
				L419.02135,540.64479L419.26134,540.88476L419.98131,542.08459L420.46129,542.80449L420.70128,543.04446L420.94127,543.52439
				L420.94127,543.76436L421.18125,544.24429L421.18125,544.72422L421.42124,544.96419L421.42124,545.92406L421.66123,547.60382
				L421.66123,548.08376L421.90122,549.04362L421.66123,549.76352L421.66123,550.72339L421.66123,550.96336L421.66123,551.44329
				L421.42124,551.92322L421.18125,552.40316L420.94127,552.64312L420.70128,552.88309L420.46129,552.88309L419.98131,552.88309
				L419.74132,552.88309L419.50133,552.88309L419.26134,552.64312L418.78136,552.64312L418.54137,552.40316L418.06139,552.16319
				L417.8214,551.92322L417.34143,551.44329L417.10144,551.20332L416.86145,550.72339L416.38147,550.24346L415.90149,549.52356L
				413.98158,546.88392L413.26161,545.92406L412.54164,544.96419L412.06166,544.24429L411.1017,543.28442L410.86171,543.04446L410.38174,542.56452
				L409.66177,542.08459L409.18179,541.60466L407.74185,540.16486L407.26187,539.68492L407.02188,539.20499L406.54191,538.48509
				L406.30192,538.24512L405.82194,537.52522L405.34196,536.80533L404.86198,536.08543L404.62199,535.36553L403.42205,532.72589
				L403.18206,532.24596L402.94207,531.76603L402.46209,531.28609L402.2221,531.04613L401.98211,531.04613L401.98211,530.80616L
				401.74212,531.04613L401.26214,531.28609L401.02215,531.76603L401.02215,532.48593L400.78216,532.96586L400.54217,533.68576L
				400.54217,534.40566L400.54217,535.12556L400.78216,535.60549L400.78216,536.08543L401.26214,536.80533L402.2221,539.92489L402.70208,541.12472
				L402.94207,541.60466L403.18206,542.08459L403.42205,542.32456L403.66203,542.56452L403.90202,543.04446L404.62199,543.52439
				L406.7819,545.68409L407.74185,546.64396L408.22183,547.12389L409.18179,548.08376L410.14175,549.28359L410.62172,549.76352L
				410.86171,550.00349L410.86171,550.48342L411.1017,550.72339L411.34169,550.96336L411.34169,551.20332L411.58168,551.68326L411.58168,551.92322
				L411.34169,552.16319L411.1017,552.16319L410.86171,552.16319L410.62172,551.92322L409.66177,551.68326L409.18179,551.44329L
				408.70181,551.20332L408.22183,550.72339L407.74185,550.48342L407.26187,550.00349L406.7819,549.52356L406.54191,549.28359L406.30192,549.04362
				L405.34196,547.60382L405.10197,547.36386L403.90202,546.16402L403.18206,545.44412L402.94207,544.96419L401.50213,543.76436
				L401.02215,543.04446L399.58222,541.84462L399.10224,541.36469L398.86225,541.12472L398.62226,540.88476L398.38227,540.64479
				L398.14228,540.64479L397.6623,540.40482L397.6623,540.64479L397.42231,540.64479L397.6623,540.88476L397.6623,541.12472L398.38227,542.32456
				L399.34223,543.76436L399.58222,544.48426L399.82221,544.72422L400.06219,544.96419L400.06219,545.44412L400.30218,545.92406
				L400.30218,546.16402L400.30218,546.64396L400.54217,546.88392L400.54217,547.36386L400.30218,547.84379L400.30218,548.80366
				L400.30218,549.28359L400.30218,549.76352L400.30218,550.00349L400.30218,550.48342L400.30218,550.72339L400.54217,550.96336
				L400.78216,550.96336L401.02215,550.72339L401.50213,550.00349L401.74212,550.00349L401.98211,549.76352L402.2221,549.52356L
				402.70208,549.52356L402.94207,549.52356L403.18206,549.76352L403.42205,550.00349L403.90202,550.24346L404.14201,550.48342L
				404.382,550.96336L404.86198,551.68326L405.34196,552.40316L405.58195,552.88309L405.82194,553.36302L406.30192,554.56285L406.54191,555.28275
				L407.02188,555.76269L407.02188,556.00265L407.26187,556.24262L407.74185,556.72255L408.22183,556.96252L408.70181,557.44245
				L409.18179,557.68242L409.66177,557.92239L410.14175,558.16235L410.62172,558.16235L411.1017,558.16235L412.06166,558.16235L
				412.30165,558.40232L412.78163,558.40232L413.02162,558.40232L413.5016,558.64229L413.74159,558.64229L414.22156,558.88225L414.46155,559.12222
				L414.94153,559.12222L415.42151,559.60215L415.90149,559.84212L416.38147,560.32205L416.86145,560.80199L417.10144,561.04195
				L417.8214,561.76185L418.54137,562.72172L419.26134,563.20165L419.50133,563.68159L419.74132,563.92155L419.98131,564.16152L
				419.98131,564.64145L420.2213,565.12139L420.46129,565.36135L420.46129,565.84129L420.46129,566.32122L420.46129,566.80115L420.46129,567.28109
				L420.2213,567.52105L420.2213,568.00099L419.98131,568.24095L419.74132,568.72089L419.50133,569.20082L419.02135,569.68075L418.06139,571.12055
				L417.10144,572.08042L416.38147,573.04028L414.46155,575.67992L413.98158,576.39982L413.5016,577.11972L413.02162,577.83962L
				412.54164,578.31955L411.82167,578.79948L411.34169,579.51938L410.62172,579.99932L410.14175,580.47925L409.18179,580.95918L
				408.46182,581.43912L407.98184,581.91905L406.54191,582.87892L404.14201,584.07875L402.94207,584.79865L401.26214,585.51855L
				400.54217,585.99848L400.06219,586.23845L399.58222,586.23845L399.10224,586.47842L398.86225,586.47842L398.62226,586.47842L
				398.38227,586.47842L398.14228,586.47842L397.90229,586.23845L397.6623,585.99848L397.6623,585.75852L397.42231,585.27858L397.42231,585.03862
				L397.6623,584.55868L397.6623,584.31872L397.6623,583.83878L397.90229,583.59882L398.14228,583.11888L398.14228,582.87892L398.62226,582.15902
				L399.82221,580.47925L400.30218,579.51938L400.78216,578.55952L401.50213,577.35968L401.98211,576.15985L402.46209,574.96002
				L402.94207,574.00015L403.18206,573.52022L403.42205,572.56035L403.42205,572.08042L403.66203,571.60048L403.90202,570.64062
				L403.90202,570.16068L403.90202,569.68075L403.90202,569.20082L403.90202,568.48092L403.66203,568.00099L403.42205,566.80115
				L403.42205,566.56119L403.18206,566.08125L403.18206,565.84129L402.94207,565.60132L402.70208,565.60132L402.46209,565.60132
				L402.46209,565.84129L402.2221,566.08125L402.2221,566.56119L401.98211,567.28109L401.98211,567.76102L401.98211,568.00099L401.74212,568.24095
				L401.74212,568.48092L401.50213,568.72089L401.02215,568.72089L400.78216,568.96085L400.54217,568.96085L399.82221,568.96085
				L399.10224,568.96085L398.62226,568.96085L398.14228,568.96085L397.90229,568.96085L397.42231,568.96085L396.22237,568.72089
				L395.98238,568.48092L395.5024,568.48092L395.26241,568.48092L395.02242,568.72089L394.78243,568.72089L394.78243,568.96085L
				395.02242,569.20082L395.26241,569.20082L395.5024,569.44079L398.86225,570.88058L399.58222,571.12055L400.06219,571.36052L400.30218,571.60048
				L400.54217,571.60048L400.78216,571.84045L401.02215,572.08042L401.02215,572.32038L401.26214,572.56035L401.26214,573.04028
				L401.26214,573.28025L401.02215,573.52022L400.78216,574.00015L400.30218,574.48008L400.06219,574.72005L399.58222,575.19998
				L398.14228,576.39982L397.18232,577.35968L395.74239,578.55952L395.5024,579.03945L395.26241,579.27942L395.02242,579.51938L
				395.02242,579.99932L395.02242,580.47925L395.02242,581.43912L395.02242,581.67908L395.02242,582.15902L395.02242,582.63895L
				395.02242,583.11888L394.78243,583.83878L394.54244,584.31872L394.54244,584.55868L394.30245,585.03862"/>
			<path clip-path="url(#SVG_CP_1)" fill="none" stroke="#000000" stroke-width="3.11986" stroke-miterlimit="10" stroke-linecap="round" stroke-linejoin="round" d="
				M394.30245,585.03862L394.30245,585.51855L394.06246,585.75852L393.58248,586.71838L393.34249,587.19831L392.86252,587.67825
				L392.38254,588.39815L391.66257,589.35801L390.9426,590.07791L390.22263,590.79781L389.98264,591.03778L389.74265,591.27775L
				389.50266,591.27775L389.26268,591.51771L388.54271,591.75768L388.30272,591.99765L387.82274,592.23761L387.58275,592.47758L
				387.58275,592.71755L387.34276,593.43745L387.10277,593.67741L387.10277,593.91738L386.86278,594.15735L386.62279,594.87725L
				386.14281,595.35718L385.66284,595.83711L385.42285,596.07708L385.18286,596.31705L384.94287,596.55701L384.70288,596.79698L
				384.46289,597.03695L383.98291,597.03695L383.74292,597.27691L383.26294,597.27691L382.30299,597.27691L381.82301,597.27691L
				381.58302,597.27691L381.10304,597.27691L380.62306,597.03695L380.38307,597.03695L380.14308,596.79698L379.6631,596.55701L379.42311,596.31705
				L378.70315,596.07708L377.02322,594.87725L376.06326,594.15735L374.38334,593.19748L373.66337,592.47758L373.18339,592.23761
				L372.70341,591.99765L372.46342,591.51771L371.26348,590.55785L370.7835,590.31788L370.54351,589.83795L370.30352,589.83795L
				369.82354,589.59798L369.34356,589.35801L369.10357,589.11805L368.62359,589.11805L368.3836,589.11805L367.90363,589.11805L367.42365,589.11805
				L367.18366,589.11805L366.70368,589.11805L366.2237,589.11805L365.50373,589.35801L363.58382,589.83795L362.86385,590.07791L
				362.38387,590.07791L361.90389,590.31788L361.6639,590.31788L361.18392,590.31788L360.70395,590.31788L360.46396,590.07791L359.98398,590.07791
				L359.74399,589.83795L359.02402,589.59798L358.54404,589.59798L357.82407,589.11805L357.10411,588.63811L356.86412,588.63811
				L356.14415,588.15818L355.18419,587.43828L353.74426,586.47842L353.50427,586.23845L353.26428,585.99848L353.02429,585.75852
				L352.7843,585.51855L352.54431,585.27858L352.30432,585.03862L352.30432,584.79865L352.06433,584.31872L351.82434,583.59882L
				351.58435,582.87892L351.58435,582.39898L351.58435,582.15902L351.34436,581.19915L351.34436,580.23928L351.34436,579.75935L
				351.34436,579.51938L350.86438,578.31955L350.86438,577.59965L350.86438,577.35968L350.86438,577.11972L350.86438,576.87975L
				350.86438,576.63978L350.86438,576.39982L351.10437,576.15985L351.34436,575.67992L351.34436,575.43995L351.58435,575.19998L
				351.58435,574.96002L351.58435,574.72005L351.34436,574.48008L351.10437,573.28025L351.10437,572.56035L350.86438,572.08042L
				350.62439,571.60048L350.38441,570.88058L350.14442,570.40065L349.90443,569.92072L349.42445,569.20082L348.46449,567.76102L
				347.98451,566.80115L347.74452,566.56119L347.50453,566.08125L347.50453,565.84129L346.78457,564.40149L346.54458,563.68159L
				346.54458,563.44162L346.54458,562.96169L346.54458,562.72172L346.54458,562.48175L346.54458,562.00182L346.54458,561.76185L
				347.02456,560.80199L347.50453,559.84212L347.50453,559.60215L347.74452,559.12222L348.2245,558.40232L348.70448,557.68242L349.42445,556.96252
				L349.66444,556.24262L349.90443,556.00265L350.14442,555.76269L350.14442,555.28275L350.38441,555.04279L350.38441,554.56285
				L350.62439,554.08292L350.62439,553.84295L350.62439,553.36302L350.62439,552.64312L350.62439,552.40316L350.38441,551.92322
				L350.38441,551.44329L350.38441,550.96336L349.90443,549.52356L349.42445,547.84379L349.18446,547.36386L348.94447,545.92406
				L348.94447,545.68409L348.94447,545.44412L348.70448,544.96419L348.46449,544.72422L348.46449,544.48426L348.2245,544.24429L
				347.98451,544.00432L347.74452,544.00432L347.50453,543.76436L347.26454,543.52439L346.30459,543.04446L346.0646,543.04446L345.82461,542.80449
				L345.34463,542.32456L345.10464,542.08459L344.86465,541.84462L344.38467,541.36469L344.14468,540.88476L343.6647,540.40482L
				343.42472,539.92489L342.94474,538.72506L342.46476,538.00516L342.22477,537.28526L341.74479,535.84546L341.5048,535.36553L341.26481,534.64563
				L341.02482,534.16569L340.54484,533.44579L339.58489,531.76603L339.3449,531.28609L339.10491,530.80616L338.86492,530.32623L
				338.62493,529.84629L338.62493,529.36636L338.38494,528.88643L338.38494,528.64646L338.38494,528.16653L338.38494,527.92656L
				338.38494,527.44663L338.38494,527.20666L338.62493,526.24679L338.86492,525.28693L339.3449,524.08709L339.3449,523.84713L339.58489,523.60716
				L339.58489,523.36719L339.58489,522.88726L339.58489,522.64729L339.3449,522.40733L339.3449,521.92739L339.10491,521.68743L338.62493,521.20749
				L337.90496,520.4876L336.22504,518.56786L335.74506,517.84796L335.02509,516.8881L334.54511,516.1682L334.06513,515.68826L333.82514,514.96836
				L333.58515,514.7284L333.10517,513.76853L333.10517,513.52856L332.86519,513.2886L332.6252,513.04863L332.38521,512.80866L332.14522,512.5687
				L331.66524,512.32873L330.46529,511.60883L330.2253,511.36886L329.74532,511.1289L329.26535,510.64896L328.78537,510.16903L328.54538,509.92906
				L328.0654,509.44913L328.0654,509.20916L327.82541,508.9692L327.34543,508.2493L326.62546,507.04946L326.38547,506.56953L326.38547,506.32956
				L326.14548,506.0896L325.9055,505.84963L325.42552,505.60966L324.94554,505.3697L323.5056,504.88976L323.02562,504.6498L322.54564,504.6498
				L322.30566,504.6498L320.86572,504.40983L319.90576,504.16987L319.42578,504.16987L318.9458,504.16987L318.70582,503.9299L317.74586,503.68993
				L317.26588,503.44997L316.7859,503.21L316.30592,502.97003L316.06593,502.73007L315.58595,502.4901L315.34597,502.25013L314.86599,502.01017
				L314.14602,501.29027L313.66604,501.0503L312.2261,499.6105L311.50614,499.37053L311.02616,498.8906L310.30619,498.41067L310.0662,498.1707
				L309.58622,497.93073L309.34623,497.69077L308.86625,496.97087L308.14629,496.49093L307.66631,495.77103L307.18633,495.05113
				L306.70635,494.33123L306.46636,494.09127L306.22637,493.8513L305.98638,493.37137L305.98638,493.1314L305.74639,492.65147L305.74639,492.4115
				L305.74639,492.17153L305.74639,491.93157L305.74639,491.6916L305.74639,491.45163L305.98638,491.21167L305.98638,490.9717L306.46636,490.49177
				L306.70635,490.01183L306.94634,489.77187L307.42632,488.812L307.42632,488.57203L307.66631,488.33207L307.66631,487.85214L307.66631,487.61217
				L307.66631,487.13224L307.66631,486.6523L307.18633,483.53274L307.18633,483.29277L306.94634,482.81284L306.94634,482.3329L306.70635,481.613
				L306.46636,480.8931L306.22637,480.65314L305.98638,480.41317L305.5064,479.4533L305.5064,479.21334L305.26641,478.7334L305.02642,478.25347
				L305.02642,477.77354L305.02642,477.2936L305.02642,476.81367L305.02642,475.61384L305.02642,475.1339L305.26641,474.17404L305.5064,473.45414
				L305.74639,472.2543L305.98638,471.77437L305.98638,471.29444L305.98638,471.05447L305.98638,470.81451L305.98638,470.57454L
				305.98638,470.33457L305.74639,469.37471L305.5064,469.13474L305.26641,468.41484L305.26641,468.17487L305.26641,467.69494L305.02642,467.21501
				L304.54645,466.49511L304.54645,466.25514L304.30646,466.01517L304.30646,465.77521L304.54645,465.05531L304.54645,464.81534
				L304.54645,464.57537L304.30646,463.85547L304.30646,463.61551L304.30646,462.65564L304.06647,460.73591L304.06647,460.01601
				L304.06647,458.81617L304.30646,458.09627L304.30646,457.61634L304.30646,456.89644L304.06647,456.65647L304.06647,455.21667
				L303.82648,454.97671L303.82648,454.49678L303.58649,454.25681L303.3465,453.77688L303.10651,453.53691L302.86652,453.29694L
				302.38654,453.05698L301.90656,452.57704L301.66657,452.33708L300.94661,451.85714L300.70662,451.61718L300.22664,451.37721L
				299.98665,450.89728L299.98665,450.65731L299.74666,450.41734L299.74666,450.17738L299.50667,448.97754L299.26668,448.73758L
				299.26668,448.25764L299.02669,448.01768L299.02669,447.77771L298.7867,447.53774L298.30672,447.05781L297.82674,446.57788L297.34677,446.09794
				L297.10678,446.09794L296.86679,445.85798L296.86679,445.61801L296.6268,445.37804L296.6268,445.13808L296.6268,444.89811L296.6268,444.65814
				L296.6268,444.17821L296.6268,443.93824L296.6268,443.45831L296.6268,443.21834L296.38681,442.73841L296.14682,442.25848L295.90683,442.01851
				L295.66684,441.53858L294.94687,439.85881L294.46689,438.41901L294.22691,437.93908L293.98692,437.69911L293.02696,436.25931
				L292.78697,435.77938L292.54698,435.53941L292.54698,435.05948L292.30699,434.57955L292.067,433.61968L291.82701,433.13975L291.82701,432.65981
				L291.82701,432.41985L291.82701,431.93991L291.82701,431.45998L291.82701,431.22001L291.82701,430.74008L292.30699,429.54025
				L292.54698,429.06031L292.78697,428.58038L292.78697,428.10045L293.02696,427.62051L293.02696,427.38055L293.26695,426.66065
				L293.26695,425.70078L293.26695,425.46081L293.26695,425.22085L293.26695,424.74091L293.26695,424.50095L293.02696,424.02101
				L292.78697,422.82118L292.54698,422.10128L292.30699,421.86132L292.067,421.38138L291.82701,421.14142L291.34703,420.66148L290.62707,419.70162
				L290.14709,418.98172L289.66711,418.50178L288.46716,417.54192L287.98718,417.06198L287.74719,416.82202L287.26721,416.58205
				L286.30726,416.10212L285.82728,415.86215L285.58729,415.62218L285.3473,415.62218L284.38734,415.38222L284.14735,415.14225L
				283.90736,415.14225L283.42739,414.90228L282.94741,414.66232L281.74746,413.70245L281.26748,413.22252L280.7875,412.74258L279.58756,411.54275
				L278.38761,410.34292L277.90763,409.86298L277.18766,409.14308L276.94767,408.90312L276.70768,408.66315L275.98772,408.18322
				L275.26775,407.46332L274.78777,407.22335L274.54778,406.98338L274.30779,406.98338L273.82781,406.74342L273.34783,406.74342
				L271.42792,406.26348L270.70795,406.26348L270.46796,406.02352L269.98798,405.78355L269.26802,405.54359L267.10811,404.58372
				L265.1882,403.62385L264.46823,403.38389L262.06834,402.42402L261.34837,402.18405L260.6284,401.70412L259.66844,401.22419L258.94848,400.74425
				L258.22851,400.26432L256.78857,399.06449L256.0686,398.34459L255.58862,398.10462L254.86866,397.38472L254.14869,396.66482L
				253.66871,396.18489L253.42872,395.70495L253.18873,395.46499L252.94874,394.98505L252.70875,394.74509L252.70875,394.26515L
				252.46876,394.02519L252.22877,393.54525L252.22877,393.06532L251.98879,392.82535L251.98879,392.34542L251.98879,391.62552L
				251.98879,390.90562L251.98879,390.18572L251.98879,389.46582L252.22877,388.74592L252.22877,388.50596L252.22877,388.02602L
				252.22877,387.78606L252.22877,387.30612L252.22877,387.06616L252.22877,386.58622L251.98879,386.34626L251.98879,385.86632L
				251.7488,385.62636L251.50881,385.38639L251.50881,385.14642L251.26882,384.90646L251.02883,384.66649L250.78884,384.42652L250.54885,384.42652
				L250.30886,384.42652L250.06887,384.42652L249.3489,384.66649L249.10891,384.66649L248.86892,384.66649L248.38895,384.66649L
				248.14896,384.66649L247.66898,384.66649L247.42899,384.66649L247.189,384.66649L246.70902,384.42652L246.46903,384.42652L245.98905,384.18656
				L245.74906,383.94659L245.50907,383.70662L244.30913,382.74676L242.6292,381.54692L242.14922,381.30696L241.66924,380.82702L
				240.94928,380.10712L240.4693,379.62719L240.22931,379.38722L239.98932,379.14726L239.74933,378.90729L239.74933,378.42736L239.50934,378.18739
				L239.50934,377.94742L239.50934,377.70746L239.50934,377.22752L239.50934,376.98756L239.74933,375.78772L239.74933,375.30779
				L239.98932,374.82786L239.98932,374.34792L239.98932,373.86799L239.98932,373.38806L239.74933,373.14809L239.74933,372.90812
				L239.50934,372.66816L239.26935,372.42819L239.26935,371.94826L238.54938,371.22836L238.54938,370.98839L238.30939,370.74843
				L238.0694,370.50846L238.0694,370.26849L238.0694,370.02853L238.0694,369.78856L238.0694,369.54859L238.0694,369.30863L238.30939,368.34876
				L238.30939,368.10879L238.30939,367.86883L238.0694,367.62886L237.82942,367.38889L237.58943,367.38889L236.86946,366.90896L
				236.62947,366.90896L236.14949,366.90896L235.9095,366.90896L235.18953,366.66899L234.94954,366.66899L234.70955,366.66899L234.46956,366.42903
				L234.22958,366.18906L233.26962,365.46916L231.3497,364.02936L231.10971,363.78939L230.86972,363.78939L230.38975,363.54943L
				230.14976,363.30946L229.90977,363.06949L229.42979,362.82953L229.1898,362.34959L228.46983,361.62969L228.22984,361.38973L227.98985,361.14976
				L227.74986,360.90979L226.78991,360.42986L226.54992,360.18989L226.30993,359.94993L226.06994,359.70996L226.06994,359.46999
				L225.82995,359.23003L225.58996,358.75009L225.34997,357.55026L225.34997,357.31029L225.10998,357.07033L225.10998,356.83036
				L225.34997,356.35043L225.34997,356.11046L225.58996,355.8705L226.06994,355.39056L226.30993,355.1506L226.30993,354.91063L226.30993,354.67066
				L226.54992,354.4307L226.54992,354.19073L226.54992,353.7108L226.54992,353.23086L226.06994,350.8312L226.06994,350.59123L226.06994,350.1113
				L226.30993,349.63136L226.54992,349.3914L226.78991,349.15143L227.0299,348.91146L227.98985,348.43153L228.22984,348.19156L228.46983,348.19156
				L228.46983,347.9516L228.70982,347.71163L228.70982,347.47166L228.46983,347.47166L228.46983,347.2317L228.22984,346.27183L227.98985,346.03186
				L227.98985,345.7919L227.98985,345.55193L227.98985,345.072L228.22984,344.83203L228.46983,343.87216L228.70982,343.6322L228.70982,343.39223
				L228.70982,342.9123L228.70982,342.67233L228.70982,342.1924L228.70982,341.95243L228.46983,341.4725L228.46983,341.23253L228.22984,340.7526
				L227.98985,340.27266L227.50987,339.79273L227.26989,339.07283L226.78991,338.5929L226.30993,338.35293L226.06994,338.11297L
				225.58996,337.63303L225.10998,337.39307L224.39001,337.1531L223.43006,336.4332L221.51014,335.47333L220.55018,334.9934L220.07021,334.75343
				L219.59023,334.2735L219.35024,334.03353L218.87026,333.79357L218.63027,333.5536L218.39028,333.31363L218.15029,332.59373L217.9103,332.1138
				L216.95034,330.19407L216.47037,329.2342L215.99039,328.75427L215.27042,327.7944L214.55045,326.59457L214.31046,326.11463L212.63054,324.43487
				L210.47063,321.79524L209.99065,321.3153L209.51068,320.83537L209.0307,320.35544L208.55072,320.11547L208.07074,319.63554L206.87079,318.67567
				L205.91084,318.19574L205.43086,317.95577L204.71089,317.47584L202.55099,316.276L200.87106,315.31614L200.63107,315.31614L200.15109,315.07617
				L199.9111,314.8362L199.43112,314.8362L199.19113,314.59624L198.71116,314.59624L198.23118,314.59624L197.03123,314.59624L196.55125,314.35627
				L196.07127,314.35627L195.35131,314.1163L195.11132,314.1163L194.63134,313.87634L194.39135,313.63637L193.91137,313.3964L193.67138,313.15644
				L192.71142,312.43654L191.75147,311.9566L191.27149,311.47667L190.31153,310.99674L189.83155,310.5168L189.35157,310.27684L189.11158,310.03687
				L188.6316,309.55694L188.15163,309.31697L187.91164,308.83704L187.43166,308.3571L187.19167,307.87717L186.71169,307.15727L186.4717,306.67734
				L186.23171,305.95744L186.23171,305.47751L185.99172,304.99757L185.75173,303.07784L185.51174,302.59791L185.51174,302.11797
				L185.27175,301.87801L185.03177,301.39807L185.03177,300.91814L184.3118,299.71831L183.83182,298.75844L183.11185,297.55861L
				182.15189,296.35877L181.9119,295.87884L181.67191,295.39891L181.43193,294.67901L181.19194,294.43904L180.95195,293.95911L180.71196,293.23921
				L180.71196,292.51931L179.99199,289.63971L179.99199,289.15978L179.51201,288.19991L179.27202,287.48001L179.03203,286.76011
				L178.79204,286.28018L178.55205,285.80024L178.31206,285.56028L178.31206,285.08034L177.83209,284.84038L177.5921,284.36044L
				177.11212,283.88051L175.91217,282.68068L174.23225,281.24088L172.79231,279.80108L172.07234,279.32114L171.83235,279.08118L
				171.59236,278.60124L171.35237,278.36128L170.63241,276.92148L170.39242,276.44154L170.15243,276.20158L169.91244,275.72164L
				169.43246,275.24171L168.95248,274.52181L168.23251,274.04188L167.75253,273.32198L167.03257,272.84205L166.3126,272.12215L165.35264,271.16228
				L164.15269,270.44238L163.67272,270.20241L162.95275,269.72248L160.79284,268.28268L159.83289,267.56278L158.39295,266.60291
				L157.67298,266.12298L157.193,265.88301L155.99306,265.16311L155.51308,264.92315L155.27309,264.68318L154.79311,264.68318L154.31313,264.44321
				L152.63321,263.96328L152.15323,263.72331L151.67325,263.72331L151.19327,263.48335L150.71329,263.24338L150.23331,262.76345
				L149.27336,262.28351L148.55339,261.80358L147.83342,261.08368L147.59343,260.84371L146.87346,260.36378L145.91351,259.40391
				L145.19354,258.92398L144.71356,258.44405L143.27362,257.00425L142.55366,256.28435L141.83369,255.32448L141.11372,254.60458
				L139.91377,252.92482L139.67378,252.44488L139.19381,252.20492L138.95382,251.72498L138.71383,251.48502L138.23385,251.24505
				L137.99386,251.00508L137.27389,250.52515L136.79391,250.28518L136.31393,250.04522L135.83395,250.04522L134.63401,249.56528
				L134.15403,249.56528L133.67405,249.32532L133.19407,249.08535L132.95408,248.84538L132.4741,248.60542L131.99413,248.12548L
				131.75414,247.88552L131.27416,247.16562L131.03417,246.68568L130.79418,246.20575L129.59423,244.28602L129.35424,243.32615L
				129.11425,242.84622L128.87426,242.36628L128.63428,241.40642L128.39429,240.68652L127.67432,239.00675L127.43433,238.28685L
				127.19434,237.80692L126.95435,237.08702L126.71436,235.88719L126.47437,235.64722L126.23438,234.92732L126.23438,234.44739L
				125.99439,233.96745L125.7544,233.72749L125.27442,233.00759L125.03444,232.28769L123.35451,230.36795L122.15456,228.68819L121.67459,227.96829
				L120.71463,226.76845L120.47464,226.28852L120.23465,226.04855L119.99466,225.80859L119.75467,225.32865L119.51468,224.84872
				L119.51468,224.36879L119.27469,223.16896L119.0347,222.92899L119.0347,222.44906L118.79471,222.20909L118.55472,221.72916L118.31473,221.48919
				L118.31473,221.00926L117.83476,220.76929L117.11479,219.56946L116.63481,219.08952L115.19487,216.92982L114.71489,216.20992
				L114.47491,215.96996L114.23492,215.49002L113.99493,215.25006L113.51495,215.01009L113.27496,214.53016L112.315,214.05022L110.63508,212.85039
				L110.39509,212.61042L109.91511,212.37046L109.43513,211.89052L109.19514,211.65056L108.95515,211.41059L108.47517,210.93066
				L108.23518,210.45072L107.99519,209.73082L107.51522,209.25089L107.27523,208.77096L107.03524,207.81109L106.55526,206.61126
				L106.31527,206.13133L106.07528,205.17146L105.83529,203.49169L105.35531,201.57196L105.11532,200.37213L104.87533,199.41226
				L104.87533,198.93233L104.63534,197.73249L104.39535,194.13299L104.39535,193.41309L104.39535,192.93316L104.15536,192.21326
				L103.91538,191.2534L103.67539,190.5335L103.67539,190.05356L103.4354,189.8136L103.19541,189.33366L102.95542,189.0937L102.71543,188.61376
				L102.47544,188.3738L101.99546,187.41393L101.0355,186.45406L100.79551,185.97413L100.31554,185.4942L99.83556,184.7743L99.59557,184.53433
				L99.35558,184.0544L99.11559,183.57446L98.8756,183.09453L98.63561,182.13466L98.39562,181.65473L98.15563,180.93483L97.43566,178.77513
				L97.19567,178.2952L96.95569,177.81526L96.95569,177.33533L96.7157,176.8554L96.47571,176.61543L96.23572,176.1355L95.75574,175.65556
				L95.27576,175.17563L94.55579,174.45573L92.87587,172.77597L92.39589,172.05607L92.1559,171.8161L91.67592,171.33617L91.67592,171.0962
				L91.43593,170.61627L91.19594,170.13633L90.95595,169.6564L90.71596,168.69653L90.47597,167.25673L90.23598,166.53683L89.03604,161.25757
				L88.07608,157.89804L87.83609,157.17814L87.83609,156.6982L87.35611,155.73834L87.11612,155.2584L86.87613,154.77847L86.63614,154.5385
				L86.39616,153.8186L85.4362,152.61877L84.95622,152.13884L84.71623,151.6589L84.47624,151.41894L84.23625,151.17897L83.75627,150.939
				L83.27629,150.69904L83.0363,150.45907L82.55633,150.2191L82.07635,149.97914L81.59637,149.73917L81.11639,149.73917L80.39642,149.73917
				L79.91644,149.4992L79.43646,149.4992L76.55659,149.4992L75.83663,149.4992L75.59664,149.73917L73.91671,149.73917L73.67672,149.97914
				L72.71676,149.97914L71.51682,149.97914L69.5969,149.97914L69.11692,149.97914L68.63695,150.2191L68.15697,150.2191L67.19701,150.45907
				L66.71703,150.69904L66.23705,150.69904L65.99706,150.69904L65.51708,150.69904L65.03711,150.69904L64.79712,150.45907L64.55713,150.45907
				L64.07715,150.2191L63.59717,150.2191L62.8772,149.73917L61.91724,149.25924L61.19728,149.01927L60.7173,148.7793L59.99733,148.29937
				L59.51735,148.0594L59.03737,147.57947L57.83743,146.37964L57.59744,146.37964L56.39749,145.41977L55.91751,145.1798L55.67752,144.93984
				L55.43753,144.69987L54.95755,144.21994L54.71757,143.97997L54.47758,143.50004L54.23759,143.26007L53.9976,142.78014L53.75761,141.82027
				L53.51762,141.58031L53.27763,141.34034L53.03764,140.86041L52.79765,140.62044L52.55766,140.38047L51.5977,139.90054L51.35771,139.66057
				L51.11773,139.42061L50.63775,138.70071L49.4378,137.26091L48.95782,137.02094L47.75787,135.58114L47.2779,135.10121L46.31794,134.38131
				L46.07795,134.38131L45.83796,134.14134L45.59797,133.66141L44.63801,132.70154L43.91805,131.74167L43.43807,131.26174L43.43807,131.02177
				L43.19808,130.78181L42.7181,130.06191L41.75814,128.62211L41.51815,128.14217L41.03817,127.66224L40.79818,127.18231L40.5582,126.94234
				L40.31821,126.94234L40.07822,126.70237L39.83823,126.70237L39.59824,126.46241L38.87827,126.22244L36.95836,125.98247L34.07848,125.50254
				L33.35852,125.26258L32.87854,125.02261L32.63855,125.02261L32.15857,124.78264L31.67859,124.54268"/>
			<path clip-path="url(#SVG_CP_1)" fill="none" stroke="#000000" stroke-width="3.11986" stroke-miterlimit="10" stroke-linecap="round" stroke-linejoin="round" d="
				M31.67859,124.54268L31.4386,124.30271L31.19861,124.06274L30.71863,123.82278L30.47864,123.34284L29.75868,122.62294L28.79872,121.66308
				L28.31874,121.18314L27.83876,120.70321L27.35878,120.22328L25.43887,119.02344L24.47891,118.30354L23.51895,117.58364L22.79899,116.86374
				L22.07902,116.38381L21.11906,115.18398L20.63908,114.94401L20.39909,114.70404L19.19915,113.74418L17.9992,113.02428L16.55926,112.06441
				L16.31927,111.82444L16.07928,111.58448L15.8393,111.34451L15.35932,110.86458L14.87934,109.66474L14.63935,109.18481L14.39936,108.70488
				L14.39936,108.46491L14.15937,108.22495L14.15937,107.74501L14.15937,106.78515L13.91938,105.82528L13.91938,105.34535L14.15937,104.86541
				L14.15937,104.38548L14.15937,104.14551L14.39936,103.66558L14.39936,103.18565L14.63935,102.94568L14.87934,102.46575L15.11933,102.22578
				L15.35932,101.74585L16.31927,100.30605L16.79925,99.58615L17.03924,99.34618L17.51922,98.86625L17.75921,98.14635L17.9992,97.66641
				L18.23919,96.94651L18.47918,95.98665L18.71917,95.26675L18.95916,93.58698L18.95916,93.10705L19.19915,92.86708L19.19915,92.38715
				L19.43914,92.14718L19.67912,91.66725L19.91911,91.42728L20.1591,90.94735L20.39909,90.46742L21.35905,89.50755L22.07902,88.54768
				L22.31901,88.06775L22.559,87.82778L22.79899,87.58782L23.27896,87.58782L23.75894,87.10788L23.99893,87.10788L24.23892,86.86792
				L25.19888,86.62795L25.43887,86.62795L25.67886,86.38798L25.91885,86.14802L26.15884,86.14802L26.39883,85.66808L26.39883,85.42812
				L26.63881,85.18815L26.63881,84.94818L26.8788,83.98832L27.11879,83.50838L27.35878,83.26842L27.35878,83.02845L27.59877,82.54852
				L27.83876,82.30855L28.79872,81.58865L29.03871,81.10872L29.2787,80.62878L29.99867,79.66892L30.47864,78.94902L31.19861,77.98915
				L31.4386,77.50922L31.67859,77.26925L31.91858,77.02928L32.15857,76.78932L32.63855,76.78932L32.87854,76.54935L33.11853,76.30939
				L35.03844,75.82945L35.9984,75.34952L36.23839,75.34952L36.47838,75.10955L36.71837,74.86959L37.19834,74.62962L37.43833,74.38965
				L39.35825,72.70989L40.07822,71.98999L41.03817,71.03012L42.23812,70.07025L42.7181,69.35035L43.91805,68.63045L44.39802,68.15052
				L44.63801,68.15052L44.878,67.91055L45.11799,67.91055L45.35798,67.67059L46.31794,67.43062L46.79792,67.19065L47.03791,67.19065
				L47.2779,66.95069L47.51789,66.71072L47.75787,66.47075L47.99786,66.23079L48.47784,65.75085L48.71783,65.51089L48.95782,65.27092
				L48.95782,64.79099L49.19781,64.55102L49.19781,64.31105L49.4378,63.35119L49.67779,62.87125L49.91778,62.15135L49.91778,61.91139
				L50.39776,60.71155L50.39776,60.47159L50.63775,59.99166L50.63775,59.51172L50.87774,59.27176L51.5977,57.83196L52.07768,56.87209
				L52.31767,56.39216L52.55766,55.43229L52.79765,54.95236L53.03764,54.71239L53.27763,54.23246L53.75761,53.99249L54.47758,53.75252
				L54.95755,53.51256L55.43753,53.27259L55.91751,53.03262L57.35745,52.55269L60.23732,51.59282L66.23705,49.91306L75.59664,47.27342
				L83.99626,44.87376L94.55579,41.75419L95.99573,41.27426L96.7157,41.03429L97.67565,40.79433L98.15563,40.79433L98.8756,40.55436
				L99.35558,40.55436L100.07555,40.55436L100.55552,40.55436L100.79551,40.79433L101.0355,41.03429L101.27549,41.03429L101.51548,41.27426
				L101.75547,41.51423L101.99546,42.23413L102.23545,42.23413L102.47544,42.47409L102.71543,42.71406L102.95542,42.71406L103.19541,42.71406
				L103.4354,42.71406L103.67539,42.71406L103.91538,42.71406L104.39535,42.47409L104.87533,42.47409L105.11532,42.23413L105.35531,41.99416
				L106.31527,41.51423L106.55526,41.27426L107.27523,40.79433L107.99519,40.55436L108.95515,39.59449L109.67512,39.11456L109.91511,39.11456
				L110.63508,38.63463L111.83502,38.15469L112.55499,37.67476L113.27496,37.19483L113.75494,37.19483L113.99493,36.95486L114.23492,36.71489
				L114.47491,36.47493L114.71489,36.23496L114.71489,35.99499L114.95488,35.75503L115.19487,34.79516L115.43486,34.55519L115.67485,34.31523
				L115.91484,34.07526L115.91484,33.83529L116.15483,33.59533L116.39482,33.59533L116.63481,33.35536L117.11479,33.35536L117.35478,33.11539
				L117.59477,33.11539L118.07475,33.11539L118.79471,33.35536L119.27469,33.35536L119.75467,33.11539L119.99466,33.11539L120.23465,33.11539
				L120.71463,33.11539L121.67459,32.63546L122.39455,32.39549L122.63454,32.39549L124.07448,32.15553L124.31447,31.91556L124.79445,31.91556
				L125.7544,31.43563L126.47437,31.19566L127.43433,30.95569L128.1543,30.71573L129.83422,30.23579L131.51415,29.75586L131.75414,29.51589
				L132.23412,29.51589L132.95408,29.03596L133.19407,29.03596L135.11399,28.07609L135.83395,27.35619L136.31393,27.35619L136.55392,27.11623
				L136.79391,27.11623L137.27389,26.87626L137.51388,26.87626L137.99386,26.87626L139.19381,26.87626L139.43379,26.87626L139.91377,26.87626
				L140.39375,26.87626L140.63374,26.6363L143.03363,26.15636L144.23358,25.67643L144.95355,25.43646L146.1535,24.95653L146.87346,24.71656
				L147.11345,24.4766L147.59343,24.4766L148.07341,24.4766L148.3134,24.4766L149.03337,24.4766L149.51335,24.4766L149.75334,24.4766
				L149.99332,24.4766L150.23331,24.4766L150.4733,24.71656L150.71329,24.71656L151.19327,24.95653L151.19327,25.1965L151.43326,25.1965
				L151.67325,25.43646L152.15323,25.1965L152.39322,25.1965L152.8732,25.1965L153.11319,24.95653L153.35318,24.95653L153.59316,24.71656
				L153.83315,24.4766L154.07314,24.23663L154.31313,23.7567L154.79311,23.27676L155.0331,22.79683L155.75307,21.597L156.23305,20.8771
				L156.47304,20.63713L156.71303,20.39716L156.95301,19.91723L157.67298,19.4373L157.91297,19.19733L158.63294,18.95736L159.11292,18.47743
				L159.35291,18.23746L159.5929,18.23746L160.07288,17.9975L160.31287,17.9975L160.55285,18.23746L160.79284,18.23746L161.03283,18.47743
				L161.27282,18.7174L161.7528,19.19733L161.99279,19.67726L161.99279,20.1572L162.23278,20.63713L162.23278,20.8771L162.71276,22.07693
				L162.71276,22.3169L162.71276,22.55686L162.71276,22.79683L162.95275,22.79683"/>
		</g>
		<g id="_Default_">
			<path clip-path="url(#SVG_CP_1)" fill="#FFFFFF" fill-rule="evenodd" stroke="#6E6E6E" stroke-width="0.95996" stroke-miterlimit="10" stroke-linecap="round" stroke-linejoin="round" d="
				M692.60917,275.00174L697.64895,289.63971L714.4482,289.63971L701.24879,299.95827L706.52855,316.276L692.60917,305.95744L679.40976,316.03604
				L684.68953,299.95827L671.49011,289.63971L687.80939,289.63971L692.60917,275.00174z"/>
			<path clip-path="url(#SVG_CP_1)" fill="none" stroke="#FFFFFF" stroke-width="4.07982" stroke-miterlimit="10" stroke-linecap="round" stroke-linejoin="round" d="
				M692.60917,275.00174L697.64895,289.63971L714.4482,289.63971L701.24879,299.95827L706.52855,316.276L692.60917,305.95744L679.40976,316.03604
				L684.68953,299.95827L671.49011,289.63971L687.80939,289.63971L692.60917,275.00174"/>
			<path clip-path="url(#SVG_CP_1)" fill="#000000" fill-rule="evenodd" stroke="none" d="M714.4482,289.63971L697.64895,289.63971
				L692.60917,275.00174L687.80939,289.63971L671.49011,289.63971L684.68953,299.95827L679.40976,316.03604L692.60917,305.95744
				L706.52855,316.276L701.24879,299.95827L714.4482,289.63971z"/>
		</g>
	</g>
</svg>
