<?xml version="1.0" encoding="utf-8"?>
<!-- Generator: Adobe Illustrator 16.0.0, SVG Export Plug-In . SVG Version: 6.00 Build 0)  -->
<!DOCTYPE svg PUBLIC "-//W3C//DTD SVG 1.1//EN" "http://www.w3.org/Graphics/SVG/1.1/DTD/svg11.dtd">
<svg version="1.1" id="Layer_1" xmlns="http://www.w3.org/2000/svg" xmlns:xlink="http://www.w3.org/1999/xlink" x="0px" y="0px"
	 width="380.377px" height="217.029px" viewBox="0 0 380.377 217.029" enable-background="new 0 0 380.377 217.029"
	 xml:space="preserve">
<g>
	<path fill="#626567" d="M100.357,158.744v0.158l0.025,5.401v0.32c0,0.918-0.068,1.709-0.205,2.354
		c-0.351,1.657-1.734,2.557-3.875,2.557c-1.271,0-2.33-0.273-3.047-0.812c-1.177-0.862-1.476-1.842-1.476-5.047v-0.166l0.021-6.104
		c0-1.476,0.276-1.961,1.452-2.556h-6.11c0.899,0.548,1.08,0.982,1.104,2.576l0.121,8.142v0.309c0,3.084,2.486,4.742,7.123,4.742
		c4.082,0,5.859-1.504,5.949-5.029l0.141-6.406c0.068-2.615,0.437-3.418,1.982-4.315h-5.029
		C99.965,155.629,100.357,156.51,100.357,158.744z"/>
	<path fill="#626567" d="M121.947,159.201v0.172l-0.047,6.982l-9.916-11.437l-5.023,0.019c1.08,0.438,1.75,0.994,2.213,1.846
		l-0.024,8.691c0,0.047,0,0.047,0,0.161c-0.021,0.259-0.043,0.697-0.043,1.312c-0.047,1.944-0.441,2.676-1.777,3.319h4.521
		l-0.162-0.067c-1.152-0.615-1.289-0.986-1.426-3.642l-0.068-1.479v-7.281l0.299,0.32c0.965,1.012,2.785,3.152,5.465,6.389
		c2.929,3.551,4.539,5.504,4.838,5.875l0.072,0.099l1.826-0.029l0.131-6.148c0-0.034,0-0.034,0-0.188c0-0.084,0-0.205,0.025-0.371
		c0-0.184,0-0.32,0-0.41c0-0.068,0-0.068,0-0.115l0.164-3.366c0.047-1.154,0.227-2.539,0.41-3.138
		c0.256-0.812,0.831-1.543,1.362-1.727h-4.727C121.531,155.561,121.947,156.457,121.947,159.201z"/>
	<path fill="#626567" d="M133.527,158.1v-0.146c0-1.727,0.258-2.418,1.154-3h-5.812c0.945,0.395,1.244,1,1.244,2.475v10.099
		c0,1.688-0.205,2.168-1.201,2.744h5.611c-0.738-0.479-1.018-1.173-1.018-2.63v-0.137L133.527,158.1z"/>
	<path fill="#626567" d="M152.023,156.457c0,0.531-0.531,2.211-1.104,3.578l-3.276,7.516l-1.961-4.479
		c-0.021-0.041-0.043-0.041-0.068-0.158c-0.205-0.508-0.367-0.918-0.482-1.217c-0.231-0.582-0.395-0.971-0.51-1.184
		c-0.021-0.039-0.047-0.039-0.047-0.107l-1.147-2.932l-0.068-0.138c-0.168-0.418-0.279-0.828-0.279-1.063
		c0-0.556,0.279-0.875,1.177-1.422l-6.3,0.016c0.677,0.441,1.134,1.133,1.709,2.471l3.347,7.697l0.067,0.184l1.019,2.49l1.082,2.607
		l0.067,0.166h2.146l0.067-0.213c1.396-3.562,2.894-7.06,4.591-10.486l1.014-2.035c0.647-1.291,1.451-2.334,2.307-2.881h-4.521
		C151.609,155.309,152.023,155.885,152.023,156.457z"/>
	<path fill="#626567" d="M168.355,168.098c-1.248,1.086-2.56,1.506-4.867,1.506c-1.148,0-1.543-0.273-1.59-1.104l-0.072-1.18v-4.795
		h1.688l0.231-0.033c1.84,0,2.994,0.727,3.314,2.033h0.143v-4.56h-0.164c-0.299,1.285-1.453,1.885-3.598,1.885h-1.615l0.098-6.2
		h1.843c2.467,0,3.944,0.791,4.772,2.518l0.117-0.027l-0.273-3.256l-0.188,0.035l-5.486,0.115l-5.33-0.099h-0.276
		c0.834,0.273,1.342,1.062,1.41,2.171l0.047,0.76v7.838l-0.047,0.992c-0.115,2.928-0.185,3.11-1.41,3.571h11.438l0.972-3.319
		l-0.162-0.021C169.002,167.484,168.844,167.688,168.355,168.098z"/>
	<path fill="#626567" d="M188.352,169.184c-0.252-0.205-0.709-0.685-1.406-1.427c-0.85-0.897-1.316-1.401-1.385-1.506l-0.115-0.137
		l-2.975-3.385c2.309-0.343,3.735-1.847,3.735-3.947c0-0.685-0.18-1.355-0.526-1.933c-0.879-1.475-2.4-2.034-5.742-2.034
		l-2.146,0.067c-0.989,0.035-1.547,0.035-1.641,0.035c-0.734,0.033-1.221,0.068-1.406,0.033c-0.067,0-0.131,0-0.131,0h-1.438
		c0.766,0.309,1.153,1.115,1.18,2.402l0.068,4.866c0,0.029,0,0.099,0,0.205v2.267l-0.021,3.016c0,1.389-0.439,2.219-1.336,2.561
		h6.037l-0.158-0.11c-0.812-0.623-1.039-1.111-1.064-2.334v-0.162l-0.067-4.396h1.086l4.035,4.63
		c0.024,0.032,0.067,0.032,0.114,0.147c1.228,1.629,2.49,2.303,4.314,2.303c0.09,0,0.16,0,0.248,0l0.949-0.028
		c0.692-0.021,0.783-0.048,1.176-0.115l-0.115-0.068C188.949,169.646,188.514,169.33,188.352,169.184z M179.035,162.611h-0.047
		l-1.176-0.068l-0.021-6.846l1.338-0.047c0.021,0,0.091,0,0.185,0c0.067-0.021,0.164-0.021,0.229-0.021
		c1.959,0,3.302,1.41,3.302,3.461C182.844,161.32,181.459,162.611,179.035,162.611z"/>
	<path fill="#626567" d="M198.248,160.863c-2.856-0.979-3.598-1.619-3.598-3.166c0-1.471,1.064-2.486,2.654-2.486
		c2.028,0,4.217,1.572,4.885,3.457h0.256l-0.184-3.885c-0.396,0.479-0.599,0.615-0.945,0.615c-0.162,0-0.299-0.021-0.738-0.188
		c-1.521-0.578-2.561-0.805-3.733-0.805c-3.138,0-5.441,1.957-5.441,4.633c0,0.607,0.111,1.154,0.346,1.642
		c0.621,1.248,1.681,1.961,4.586,3.047c3,1.125,3.945,1.961,3.945,3.428c0,1.619-1.432,2.82-3.322,2.82
		c-2.537,0-4.608-1.662-5.532-4.386h-0.23l0.068,3.201c0.971,1.039,3.854,1.982,6.021,1.982c3.642,0,6.248-1.982,6.248-4.812
		c0-0.741-0.188-1.451-0.531-2.08C202.24,162.611,200.924,161.766,198.248,160.863z"/>
	<path fill="#626567" d="M212.205,158.1v-0.146c0-1.727,0.252-2.418,1.154-3h-5.816c0.949,0.395,1.244,1,1.244,2.475v10.099
		c0,1.688-0.201,2.168-1.197,2.744h5.604c-0.736-0.479-1.014-1.173-1.014-2.63v-0.137L212.205,158.1z"/>
	<path fill="#626567" d="M224.637,154.953h-2.586c-2.947,0-3.228-0.016-4.08-0.32l-1.082,3.578l0.252,0.066
		c0.438-0.717,0.672-0.939,1.453-1.465c1.061-0.744,2.03-1.029,3.389-1.029h0.252l-0.02,11.195v0.319c0,1.886-0.369,2.601-1.5,2.972
		h6.645c-1.201-0.462-1.525-1.103-1.525-3.115l-0.067-11.406l1.799-0.051h0.068c1.866,0,2.676,0.623,2.676,2.104
		c0,0.113,0,0.152-0.047,0.273l0.299,0.094l1.338-3.094l-0.254-0.326C230.791,154.867,228.162,154.953,224.637,154.953z"/>
	<path fill="#626567" d="M246.684,156.479c0,0.646-0.457,1.799-1.056,2.791l-0.094,0.137l-2.01,3.205l-3.299-5.137
		c-0.394-0.642-0.642-1.181-0.642-1.406c0-0.185,0.068-0.39,0.205-0.576c0.138-0.184,0.273-0.32,0.437-0.402l0.367-0.151
		l0.233-0.121l-6.733,0.035c0.598,0.319,1.176,0.981,2.008,2.229l4.492,6.799v3.781c0,1.572-0.138,1.855-1.224,2.471
		c-0.067,0.047-0.133,0.094-0.229,0.137h6.11c-0.896-0.409-1.217-1.237-1.217-3.204v-3.41l2.443-3.771
		c0.021-0.033,0.047-0.033,0.094-0.154c0.939-1.336,1.611-2.256,2.029-2.793c0.805-0.983,1.358-1.538,2.026-2h-5.168
		C246.316,155.398,246.684,155.855,246.684,156.479z"/>
	<path fill="#626567" d="M269.379,154.449c-5.276,0-9.127,3.436-9.127,8.162c0,4.641,3.756,8.076,8.808,8.076
		c5.487,0,9.389-3.367,9.389-8.195C278.447,157.801,274.688,154.449,269.379,154.449z M269.311,169.859
		c-2.974,0-5.004-2.846-5.004-6.976c0-4.375,2.192-7.555,5.215-7.555c3,0,5.234,3.094,5.234,7.244
		C274.756,166.697,272.4,169.859,269.311,169.859z"/>
	<path fill="#626567" d="M282.346,154.938c1.043,0.203,1.432,1.383,1.432,4.151v0.521l0.021,4.846v0.258
		c-0.021,1.195-0.064,2.213-0.091,3.025c-0.047,1.494-0.346,2.188-1.153,2.529h5.834c-0.873-0.205-1.244-1.154-1.244-3.068v-4.658
		l1.846-0.018h0.064c1.729,0,2.772,0.711,3.141,2.146l0.205-0.024l0.047-4.709h-0.184c-0.047,0.065-0.068,0.051-0.068,0.145
		c-0.832,1.496-1.363,1.82-3.162,1.82h-1.889l-0.025-6.367l1.961-0.021l0.256-0.021c1.957,0,3.295,1.018,3.711,2.734h0.185
		l-0.185-3.375L282.346,154.938z"/>
	<path fill="#626567" d="M261.379,181.197c-10.75,0-18.84,7.41-18.84,17.217c0,9.719,7.705,16.924,17.904,16.924
		c10.74,0,18.543-7.258,18.543-17.266C278.986,188.303,271.576,181.244,261.379,181.197z M260.979,213.824
		c-6.471,0-11.029-6.375-11.029-15.508c0-9.125,4.457-15.402,10.986-15.402c6.518,0,11.371,6.572,11.371,15.449
		C272.307,207.389,267.602,213.824,260.979,213.824z"/>
	<path fill="#626567" d="M302.135,206.332c-2.404,5.047-4.808,6.672-9.91,6.672c-3.67,0-4.361-0.393-4.361-2.59l-0.035-22.772
		c0-2.688,1.133-4.603,3.244-5.587h-12.406c2.496,1.035,3.23,2.41,3.281,6.087l0.096,10.981c0,0-0.043,11.515-0.043,11.719
		c0,1.564-1.078,2.939-2.991,3.828h0.586c2.602-0.145,6.893-0.237,11.803-0.237c3.479,0,6.619,0.094,9.162,0.237h0.2l1.871-8.532
		l-0.35-0.048L302.135,206.332z"/>
	<path fill="#626567" d="M310.576,209.77l0.047-22.021c0-3.342,0.443-4.316,2.701-5.693h-10.779
		c2.011,1.429,2.406,2.121,2.406,4.668v0.979l-0.104,22.115c-0.043,2.598-0.539,3.623-2.402,4.854h10.976
		C311.311,213.645,310.576,212.32,310.576,209.77z"/>
	<path fill="#626567" d="M43.133,181.137c-10.74,0.029-18.816,7.472-18.783,17.277c0.006,0.889,0.073,1.744,0.196,2.586
		c-1.456-2.594-4.61-4.5-10.393-6.604l-2.029-0.752c-4.053-1.461-5.729-3.23-5.739-6.004c-0.009-3.099,2.563-5.533,5.809-5.533
		c3.141-0.014,6.631,1.744,8.572,4.213c0.858,1.129,1.119,1.625,1.729,3.248l0.761-0.111l-0.533-7.842l-0.558-0.055
		c-0.399,0.658-0.756,0.863-1.567,0.863c-0.453,0-0.761-0.043-1.568-0.453c-2.332-1-4.969-1.595-7.5-1.595
		c-6.533,0.029-11.131,3.738-11.115,8.951c0.019,4.855,2.902,7.736,11.068,10.898c1.531,0.604,2.385,0.91,2.693,1.067
		c3.598,1.453,5.633,3.828,5.641,6.695c0.008,3.715-3.119,6.459-7.273,6.467c-5.166,0.019-9.684-3.563-11.828-9.324L0,205.283
		l0.23,6.924c0.557,0.461,0.758,0.615,1.727,1.115c4.004,2.119,6.438,2.766,10.441,2.756c2.328-0.012,4.453-0.375,6.272-0.979
		c3.994-1.476,6.918-5.595,6.91-9.688c0-0.244-0.014-0.471-0.026-0.701c2.547,6.355,8.914,10.595,16.743,10.564
		c10.748-0.029,18.521-7.316,18.496-17.316C60.76,188.201,53.336,181.166,43.133,181.137z M42.838,213.756
		c-6.475,0.019-11.057-6.342-11.086-15.471c-0.021-9.119,4.429-15.408,10.943-15.426c6.527-0.025,11.398,6.529,11.428,15.418
		C54.148,207.299,49.461,213.734,42.838,213.756z"/>
	<path fill="#626567" d="M145.211,197.893l0.058-7.994l0.188-3.869c0.047-1.623,0.929-2.842,2.688-3.975h-11.529
		c1.713,1.163,2.266,2.471,2.273,5.557v0.107l-0.111,10.276h-15.285l-0.061-7.395v-0.246c-0.021-5.343,0.471-6.582,3.256-8.205
		l0.201-0.096l-12.367-0.06l-21.328,0.021l-9.377,0.037c2.064,0.928,3.01,2.881,3.021,7l-0.35,15.061
		c-0.039,1.906-0.18,2.99-0.525,4.17c-0.872,3-3.956,4.812-8.223,4.834c-3.385,0-6.481-1.26-7.709-3.123
		c-1.086-1.617-1.539-3.518-1.492-6.967l-0.047-14.41l0.076-2.141c0.143-2.449,0.869-3.533,3.082-4.424H59.585
		c1.816,0.539,2.515,1.68,2.568,4.377l0.061,19.18c0.015,3.385,0.953,5.547,3.162,7.051c2.599,1.854,6.142,2.685,10.894,2.666
		c8.641-0.021,12.893-3.77,12.924-11.512l0.328-11.799c-0.017-5.525,2.004-8.32,8.397-8.295l2.252-0.058l0.17,24.324
		c-0.036,4.074-0.666,5.791-2.579,6.681h12.264c-2.453-0.867-3.242-2.386-3.26-6.404l-0.177-24.621l4.338-0.037
		c5.992,0.012,6.224,2.795,6.238,8.584l-0.012,8.975v0.256l-0.086,3.429v0.397l-0.185,3.867c-0.094,2.598-0.772,4.223-2.19,5.303
		l-0.396,0.252h11.642c-1.82-1.072-2.423-2.188-2.437-4.684l-0.012-9.982h15.242l-0.127,8.162c0.012,3.539-0.802,5.266-2.902,6.504
		h12.389c-2.024-0.975-2.944-2.598-2.957-5.35l0.064-9.424L145.211,197.893z"/>
	<path fill="#626567" d="M376.143,209.828c0,0-4.389-9.746-4.717-10.5c-0.693-1.482-0.646-1.422-7.392-18.041
		c-0.705,0.328-3.375,0.67-3.565,0.67c0,0-1.101,2.619-1.758,4.072c-1.033,2.354-5.457,11.967-5.457,11.967l-4.812,10.777
		c-0.727,1.496-1.447,2.694-2.307,3.742l-0.111-4.367l0.047-6.914l0.145-4.17l0.349-8.633c0.147-3.429,0.733-4.804,2.799-6.377
		h-7.846c1.858,0.881,2.694,3.239,2.694,7.754l0.048,3.379l-0.343,12.803l-19.823-23.936h-9.513
		c1.816,1.034,2.996,1.916,4.076,3.047l-0.051,22.801c0,3.918-0.734,5.346-3.436,6.768h9.856c-3.037-0.936-4.072-2.494-4.072-6.276
		l-0.036-20.752l22.34,27.028h10.252c-1.691-0.662-2.722-1.975-2.722-3.436c0-1.17,0.496-4.316,1.205-5.918l2.461-5.312h10.962
		l4.114,10.343c0,0,0.052,0,0.099,0.233c0.235,0.604,0.467,1.355,0.467,1.637c0,1.039-0.937,1.89-2.629,2.453h12.91
		C378.729,214.145,377.604,212.875,376.143,209.828z M355.391,197.996l4.637-10.834l4.449,10.834H355.391z"/>
	<path fill="#626567" d="M242.564,209.896c-0.889-0.986-2.945-3.191-3.979-4.363c-0.09-0.111-0.141-0.111-0.196-0.248l-5.394-6.572
		c4.953-1.238,7.603-4.18,7.603-8.385c0-2.904-1.513-5.547-4.021-6.973c-1.764-0.976-4.516-1.515-7.896-1.515
		c-0.295,0-1.082,0-1.082,0l-6.966,0.185l-1.461,0.061l-5.258-0.061c2.158,1.133,2.844,2.362,2.844,5.157l-0.043,22.086l0.043,0.49
		c0,1.262-0.272,2.252-0.852,3.078c-0.564-0.744-1.123-1.711-1.744-3.01c0,0-4.393-9.746-4.721-10.5
		c-0.685-1.482-0.641-1.422-7.389-18.041c-0.705,0.328-3.382,0.67-3.564,0.67c0,0-1.104,2.619-1.752,4.072
		c-1.035,2.354-3.295,7.42-3.295,7.42l-2.172,4.547l-4.068,9.119c-0.602,1.162-0.99,1.709-2.062,2.938
		c-2.711,2.967-5.582,4.377-8.976,4.377c-7.715,0-12.83-6.779-12.83-17.004c0-9.604,4.744-16.115,11.629-16.115
		c4.386,0,8.142,2.705,12.158,8.699l0.103,0.215l0.68-0.055l-0.781-8.031c-0.521,0.205-0.838,0.316-1.094,0.258
		c-0.158,0-0.266,0-0.42-0.1c-3.025-1.559-7.252-2.619-10.799-2.619c-11.008,0-18.828,7.619-18.828,18.266
		c0,10.537,7.717,18.103,18.461,18.103c2.709,0,5.291-0.428,7.949-1.377h9.141c-1.693-0.662-2.727-1.975-2.727-3.437
		c0-1.17,0.5-4.315,1.209-5.918l2.452-5.312h10.966c0,0,4.172,10.342,4.219,10.576c0.229,0.604,0.465,1.354,0.465,1.637
		c0,1.039-0.938,1.89-2.637,2.453h21.487c-3.034-0.889-3.975-2.154-3.975-5.738l-0.098-9.141l1.469-0.101
		c1.428,0,1.762,0.146,2.697,1.277l1.619,1.906c0,0,5.834,7.215,5.936,7.463c1.615,1.814,2.594,2.889,3.039,3.238
		c1.619,1.467,4.465,3.272,9.469,3.436c2.662,0.104,3.604-0.223,5.424-0.922c-2.661-0.42-4.514-1.047-6.166-2.385
		C245.098,212.68,244.123,211.559,242.564,209.896z M193.406,197.996l4.641-10.834l4.449,10.834H193.406z M226.33,198.316
		c-0.248,0-3.385-0.15-3.385-0.15l-0.051-14.568l3.041-0.09c1.967,0.043,3.582,0.334,4.805,0.83
		c2.213,0.881,3.725,3.623,3.725,6.709C234.465,195.766,231.578,198.316,226.33,198.316z"/>
	<path fill="#626567" d="M200.41,125.467c-3.994,1.482-6.594,1.894-10.846,1.933c-4.264-0.039-6.828-0.472-10.799-1.933
		c-3.717-1.358-5.623-2.537-8.734-5.012l-1.518,2.354c3.362,2.704,5.606,3.936,9.68,5.389c4.266,1.525,6.961,2.004,11.453,2.004
		c4.49,0,7.119-0.485,11.342-2.004c4.059-1.453,6.312-2.684,9.68-5.389l-1.518-2.354C206.047,122.93,204.129,124.107,200.41,125.467
		z"/>
	<path fill="#626567" d="M180.775,117.398c-0.424-0.019-0.92-0.129-1.971-0.418l-0.146-0.051c0.043,0.028,0.072,0.065,0.099,0.09
		c0.303,0.233,0.346,0.457,0.153,0.91c0,0-1.299,2.811-1.326,2.866c-0.362,0.713-0.465,0.781-0.981,0.773
		c-0.037,0.008-0.09,0.008-0.158,0l2.471,1.141c-0.338-0.272-0.354-0.594-0.086-1.172L180.775,117.398z"/>
	<path fill="#626567" d="M186.352,117.398c-1.482-0.394-2.719,0.137-3.035,1.315c-0.152,0.582-0.021,1.162,0.344,1.595
		c0.238,0.282,0.328,0.362,0.777,0.684l-0.154,0.01c-0.338,0.037-0.611,0.09-0.854,0.137c-0.748,0.166-1.295,0.671-1.476,1.354
		c-0.332,1.223,0.59,2.377,2.271,2.824c1.719,0.448,3.196-0.185,3.561-1.541c0.086-0.312,0.107-0.644,0.043-0.959
		c-0.129-0.709-0.448-1.103-1.518-1.914c-0.039-0.008-0.107-0.068-0.188-0.146c1.133,0.029,1.91-0.401,2.119-1.18
		C188.484,118.656,187.719,117.766,186.352,117.398z M186.309,123.844c-0.244,0.896-0.965,1.396-1.773,1.17
		c-0.928-0.252-1.32-1.133-1.012-2.272c0.221-0.803,0.641-1.359,1.199-1.547C186.143,122.082,186.578,122.809,186.309,123.844z
		 M186.934,119.352c-0.168,0.614-0.562,1.063-1.053,1.209l-0.064-0.037c-0.965-0.654-1.277-1.219-1.09-1.945
		c0.197-0.701,0.735-1.043,1.377-0.881C186.801,117.895,187.133,118.578,186.934,119.352z"/>
	<path fill="#626567" d="M193.164,118.775c-0.51,0.084-1.018,0.272-1.467,0.529c-1.188,0.661-1.654,1.676-1.41,3.063
		c0.33,1.846,1.933,2.791,4.033,2.422c2.07-0.363,3.283-1.836,2.967-3.631C196.975,119.381,195.279,118.416,193.164,118.775z
		 M194.312,124.398c-1.039,0.188-2.017-0.838-2.303-2.439c-0.267-1.492,0.217-2.619,1.166-2.783
		c1.043-0.188,2.077,0.916,2.354,2.539C195.791,123.15,195.301,124.236,194.312,124.398z"/>
	<path fill="#626567" d="M202.176,120.719l-1.986-4.123c-0.283,0.324-0.672,0.648-1.564,1.273l-0.133,0.086
		c0.062-0.01,0.098-0.025,0.125-0.018c0.383-0.09,0.584,0.018,0.812,0.436c0,0,1.362,2.787,1.393,2.846
		c0.322,0.73,0.316,0.855-0.016,1.248c-0.025,0.039-0.052,0.076-0.104,0.129l2.445-1.196
		C202.727,121.48,202.463,121.287,202.176,120.719z"/>
	<polygon fill="#FFFFFF" points="204.873,75.242 218.859,75.242 220.906,71.951 202.945,71.951 	"/>
	<polygon fill="#FFFFFF" points="218.902,76.822 205.334,76.822 205.334,104.92 208.205,104.92 208.205,79.648 216.121,79.648
		216.121,104.92 218.902,104.92 218.902,89.938 240.439,89.938 240.439,88.484 218.902,88.484 	"/>
	<path fill="#626567" d="M222.18,81.07v23.85h2.389V81.07C224.568,81.07,223.641,80.311,222.18,81.07z"/>
	<path fill="#626567" d="M228.086,83.852v21.067h2.394V83.852C230.479,83.852,229.555,83.092,228.086,83.852z"/>
	<path fill="#626567" d="M233.996,85.553v19.367h2.394V85.553C236.389,85.553,235.465,84.811,233.996,85.553z"/>
	<path fill="#626567" d="M239.91,86.836v18.084h2.389V86.836C242.299,86.836,241.375,86.07,239.91,86.836z"/>
	<path fill="#626567" d="M197.744,59.332l-5.705,6.752h4.291l-3.885,5.867h3.645l-4.28,4.521l-0.035,21.718l4.758,6.729h3.846
		l-4.684-6.154h5.316v-2.588h-5.796l0.08-18.762l5.312-5.465h-4.047l4.063-5.894h-3.889l3.244-4.021
		c1.481,1.154,2.246,1.928,3.443,3.381c1.561,1.931,2.272,3.213,3.229,5.517v-7.158c-1.107-1.025-1.799-1.543-3.107-2.295
		C201.467,60.264,200.121,59.785,197.744,59.332z"/>
	<polygon fill="#FFFFFF" points="160.326,75.242 174.312,75.242 176.24,71.951 158.293,71.951 	"/>
	<polygon fill="#FFFFFF" points="160.293,88.484 138.746,88.484 138.746,89.938 160.293,89.938 160.293,104.92 163.07,104.92
		163.07,79.648 170.988,79.648 170.988,104.92 173.855,104.92 173.855,76.822 160.293,76.822 	"/>
	<path fill="#626567" d="M154.621,81.07v23.85h2.39V81.07C155.545,80.311,154.621,81.07,154.621,81.07z"/>
	<path fill="#626567" d="M148.711,83.852v21.067h2.386V83.852C149.629,83.092,148.711,83.852,148.711,83.852z"/>
	<path fill="#626567" d="M142.801,85.553v19.367h2.385V85.553C143.719,84.811,142.801,85.553,142.801,85.553z"/>
	<path fill="#626567" d="M136.891,86.836v18.084h2.385V86.836C137.814,86.07,136.891,86.836,136.891,86.836z"/>
	<path fill="#626567" d="M182.859,66.084h4.291l-5.709-6.752c-2.367,0.461-3.719,0.932-5.799,2.148
		c-1.303,0.762-1.996,1.276-3.104,2.295v7.158c0.953-2.304,1.664-3.587,3.23-5.517c1.186-1.453,1.963-2.227,3.44-3.381l3.242,4.021
		h-3.893l5.33,5.894h-4.047l4.047,5.465l0.08,18.762h-5.791v2.588h5.315l-4.684,6.154h3.848l4.76-6.729l-0.039-21.718l-3.018-4.521
		h3.654L182.859,66.084z"/>
	<path fill="#626567" d="M210.432,57.127c-2.99-2.149-5.152-3.01-8.814-3.342c-2.924-0.266-4.697-0.107-7.479,0.828
		c2.928-0.008,4.643,0.24,7.397,1.215c3.568,1.26,5.576,2.461,8.188,5.195c2.688,2.812,3.881,4.94,4.881,8.701v-8.429
		C213.27,59.422,212.305,58.465,210.432,57.127z"/>
	<path fill="#626567" d="M178.344,53.785c-3.654,0.35-5.82,1.191-8.81,3.342c-1.875,1.338-2.832,2.295-4.176,4.17v8.429
		c1.006-3.761,2.188-5.89,4.881-8.701c2.619-2.734,4.625-3.937,8.184-5.195c2.763-0.975,4.476-1.223,7.398-1.215
		C183.049,53.678,181.266,53.512,178.344,53.785z"/>
	<path fill="#626567" d="M192.467,6.512c-1.685,2.871-2.371,7.091-2.74,10.009c-0.371-2.918-1.041-7.138-2.73-10.009
		c-1.842-3.145-3.342-4.717-6.205-6.512l0.05,5.947c1.909,1.211,3.004,1.547,4.403,3.27c2.553,3.107,3.709,5.988,4.482,11.445
		c0.783-5.457,1.94-8.338,4.483-11.445c1.406-1.723,2.505-2.059,4.41-3.27L198.667,0C195.809,1.795,194.301,3.367,192.467,6.512z"/>
	<path fill="#626567" d="M197.334,13.52c-2.047,2.563-3.889,5.53-4.537,6.869c-0.934,1.936-2.625,5.37-3.069,8.114
		c-0.443-2.744-2.138-6.18-3.06-8.114c-0.641-1.339-2.496-4.306-4.539-6.869c-1.952-2.418-4.08-4.439-5.118-5.281
		c-2.572-2.068-3.638-3.35-6.982-4.568v6.629c3.5,1.205,5.49,2.332,8.5,4.611c3.508,2.68,5.217,4.656,7.658,8.336
		c1.678,2.553,2.438,4.035,3.541,6.967c1.11-2.932,1.873-4.414,3.557-6.967c2.433-3.68,4.146-5.647,7.646-8.336
		c3.01-2.279,5-3.406,8.5-4.611V3.67c-3.342,1.219-4.4,2.5-6.972,4.568C201.41,9.08,199.283,11.102,197.334,13.52z"/>
	<path fill="#626567" d="M194.561,26.588c-2.449,3.115-3.795,6.205-4.834,8.937c-1.029-2.73-2.371-5.82-4.824-8.937
		c-2.496-3.145-4.418-4.521-7.705-6.813c-5.932-4.125-10.029-5.988-17.094-7.15v6.828c3.197,0.139,5.795,0.389,9.342,1.377
		c4.115,1.154,6.273,2.266,10.025,4.422c3.021,1.758,7.295,6.629,10.256,11.758c2.971-5.129,7.24-10,10.27-11.758
		c3.744-2.156,5.906-3.268,10.015-4.422c3.547-0.988,6.145-1.238,9.336-1.377v-6.828c-7.052,1.162-11.156,3.025-17.084,7.15
		C198.971,22.066,197.047,23.443,194.561,26.588z"/>
	<path fill="#626567" d="M198.471,31.861c-3.982,3.039-5.816,5.668-8.744,9.416c-2.918-3.748-4.756-6.377-8.738-9.406
		c-4.389-3.338-7.389-4.658-12.645-6.316c-5.043-1.604-8.134-2.104-13.402-2.09l0.021,7.654c0,0,5.437-1.572,9.015-1.658
		c5.35-0.146,8.854,0.599,13.436,2.781c3.4,1.619,8.199,5.363,12.312,10.072c4.104-4.709,8.932-8.469,12.323-10.08
		c4.582-2.188,8.082-2.928,13.438-2.783c3.565,0.078,9.012,1.65,9.012,1.65l0.021-7.658c-5.273,0-8.363,0.486-13.402,2.094
		C205.855,27.203,202.855,28.512,198.471,31.861z"/>
	<path fill="#626567" d="M214.662,33.875c-4.451,0.115-9.752,1.738-15.174,4.738c-4.201,2.301-6.316,3.971-9.744,7.479
		c-3.428-3.508-5.559-5.188-9.768-7.479c-5.441-2.99-10.732-4.623-15.181-4.738c-5.295-0.15-8.877,0.547-13.893,2.559v7.353
		c4.076-3.496,6.824-4.949,11.922-5.937c6.453-1.243,10.604-0.03,16.666,2.509c4.402,1.846,6.662,3.389,10.273,6.649
		c3.619-3.262,5.819-4.805,10.196-6.649c6.064-2.547,10.218-3.738,16.675-2.509c5.094,0.979,7.842,2.439,11.914,5.937v-7.353
		C223.543,34.422,219.957,33.725,214.662,33.875z"/>
	<path fill="#626567" d="M210.338,49.947c-2.922-0.867-8.094-2.137-12.985-0.607c-2.482,0.787-4.929,2.428-7.586,4.719
		c-2.658-2.291-5.142-3.932-7.619-4.719c-4.896-1.529-10.068-0.26-12.982,0.607c-3.877,1.145-9.676,4.201-13.666,9.238v7.881
		c1.922-3.115,3.277-4.756,5.904-7.303c3.707-3.587,6.027-5.898,10.953-7.425c4.59-1.413,7.83-1.952,12.309-0.252
		c2.174,0.816,3.927,1.945,5.103,3.072c0,0,2.901-2.256,5.063-3.072c4.482-1.723,7.724-1.161,12.312,0.252
		c4.934,1.525,7.239,3.839,10.948,7.425c2.634,2.547,3.979,4.188,5.914,7.303v-7.881C220.01,54.148,214.211,51.092,210.338,49.947z"
		/>
	<path fill="#626567" d="M199.189,43.785c-4.154,1.67-6.248,3.205-9.463,6.512c-3.213-3.307-5.303-4.842-9.461-6.512
		c-7.09-2.852-12.367-2.479-19.603,0c-5.248,1.799-8.141,3.654-11.985,7.648v9.479c2.131-3.734,3.756-5.701,6.973-8.562
		c3.689-3.282,6.258-5.114,10.859-6.514c4.161-1.248,10.33-1.414,14.823,0c2.521,0.803,5.525,2.568,8.394,5.371
		c2.873-2.803,5.877-4.568,8.395-5.371c4.5-1.414,10.666-1.248,14.832,0c4.604,1.398,7.168,3.23,10.855,6.514
		c3.223,2.861,4.842,4.828,6.979,8.562v-9.479c-3.852-4.009-6.744-5.863-11.992-7.648C211.561,41.314,206.283,40.934,199.189,43.785
		z"/>
	<path fill="#626567" d="M211.133,125.992c-3.734,2.928-6.248,4.234-10.781,5.662c-4.039,1.262-6.508,1.625-10.73,1.543h-0.039
		c-4.229,0.082-6.701-0.281-10.737-1.543c-4.531-1.428-7.052-2.734-10.787-5.662c-1.115,1.492-1.851,2.287-3.316,3.457
		c-1.346,1.064-2.174,1.621-3.729,2.342v3.039c2.024-0.791,2.563-1.133,4.428-2.371c1.342-0.91,1.607-1.342,2.799-2.6
		c3.342,2.334,5.666,3.205,9.562,4.354c4.524,1.328,7.393,1.709,11.799,1.619c4.41,0.09,7.28-0.291,11.807-1.619
		c3.894-1.149,6.209-2.021,9.562-4.354c1.19,1.258,1.461,1.688,2.795,2.6c1.862,1.238,2.396,1.58,4.436,2.371v-3.039
		c-1.561-0.721-2.395-1.276-3.736-2.342C212.996,128.279,212.252,127.484,211.133,125.992z"/>
	<path fill="#626567" d="M229.129,111.07c-0.104,1.229-0.034,2.371-0.672,3.68c-0.858,1.752-1.627,2.537-3.184,3.721l-6.152-10.575
		l-13.983-1.863c-1.953,2.418-3.285,3.633-6.062,5.018c-3.27,1.634-5.77,2.197-9.445,2.197h-0.018c-3.666,0-6.174-0.563-9.439-2.197
		c-2.78-1.385-4.122-2.6-6.071-5.018l-13.976,1.863l-6.157,10.575c-1.556-1.184-2.314-1.969-3.179-3.721
		c-0.643-1.309-0.569-2.449-0.68-3.68c-0.035-0.441-0.514-0.604-0.762-0.205c-0.252,0.396-8.771,14.178-8.771,14.178
		c1.805,2.053,3.115,2.896,5.629,3.996c3.422,1.475,6.267,1.848,9.937,1.162c4.571-0.863,7.051-2.547,9.709-6.426l8.014-13.83
		c2.047,2.094,3.469,3.115,6.146,4.309c2.094,0.918,5.713,1.691,9.614,1.777c3.894,0.086,7.508-0.859,9.603-1.777
		c2.676-1.192,4.106-2.215,6.149-4.309l8.019,13.83c2.662,3.879,5.137,5.562,9.703,6.426c3.672,0.686,6.518,0.312,9.94-1.162
		c2.508-1.102,3.82-1.943,5.627-3.996c0,0-8.521-13.781-8.768-14.178C229.645,110.467,229.176,110.629,229.129,111.07z
		 M151.172,127.406c-2.627-0.289-4.913-1.246-6.76-3.203l4.5-7.273c1.228,2.265,2.363,3.418,4.627,4.632
		c2.758,1.481,5.506,2.146,9.701,0.916C159.498,127.039,156.15,127.992,151.172,127.406z M170.309,110.424
		c-0.021,0.031-4.394,7.433-4.394,7.433c-1.082,1.848-2.971,2.188-5.071,2.5c-1.693,0.258-2.839,0.227-4.367-0.496l5.422-9.324
		l7.83-1.059C169.729,109.477,170.906,109.236,170.309,110.424z M213.33,117.855c0,0-4.377-7.4-4.393-7.433
		c-0.601-1.188,0.58-0.946,0.58-0.946l7.824,1.059l5.428,9.324c-1.525,0.723-2.681,0.754-4.371,0.496
		C216.299,120.043,214.41,119.703,213.33,117.855z M234.834,124.203c-1.852,1.957-4.133,2.914-6.766,3.203
		c-4.975,0.586-8.32-0.367-12.059-4.93c4.194,1.229,6.936,0.565,9.698-0.916c2.263-1.214,3.396-2.367,4.621-4.632L234.834,124.203z"
		/>
	<path fill="#626567" d="M240.324,110.74h-0.016c-1.744,0.01-3.168,1.445-3.164,3.223c0.006,1.812,1.432,3.209,3.188,3.201
		c1.765,0,3.152-1.406,3.152-3.223C243.482,112.15,242.082,110.74,240.324,110.74z M240.346,116.664
		c-1.422,0.008-2.576-1.188-2.584-2.701c-0.011-1.504,1.147-2.717,2.555-2.717h0.008c1.428-0.01,2.564,1.199,2.574,2.717
		C242.906,115.467,241.77,116.686,240.346,116.664z"/>
	<path fill="#626567" d="M240.906,114.057v-0.019c0.385-0.119,0.701-0.418,0.701-0.879c0-0.334-0.125-0.586-0.334-0.744
		c-0.213-0.145-0.572-0.272-1.111-0.272c-0.436,0-0.717,0.061-1.021,0.098l0.018,3.578h0.568l-0.008-1.535l0.405-0.012
		c0.457,0,0.688,0.17,0.769,0.637c0.072,0.457,0.162,0.789,0.244,0.9h0.602c-0.059-0.111-0.145-0.324-0.227-0.879
		C241.436,114.398,241.219,114.117,240.906,114.057z M240.141,113.834h-0.422v-1.213c0.098-0.008,0.229-0.025,0.414-0.025
		c0.641,0,0.87,0.312,0.87,0.623C241.004,113.656,240.607,113.826,240.141,113.834z"/>
</g>
</svg>
