<?xml version="1.0" encoding="utf-8"?>
<!-- Generator: Adobe Illustrator 22.1.0, SVG Export Plug-In . SVG Version: 6.00 Build 0)  -->
<svg version="1.1" id="Layer_1" xmlns="http://www.w3.org/2000/svg" xmlns:xlink="http://www.w3.org/1999/xlink" x="0px" y="0px"
	 viewBox="0 0 2500 678" style="enable-background:new 0 0 2500 678;" xml:space="preserve">
<style type="text/css">
	.st0{fill:#FFFFFF;}
</style>
<g id="vqrJIi.tif">
	<path class="st0" d="M2499.1,525.3H2436c0.7-0.7,0.7-0.7,0.7-1.4c11.8-6.2,13.2-9,7.6-21.5c-6.2-15.3-12.5-31.2-18.7-46.5
		c-1.4-3.5-2.8-4.9-6.2-4.9h-45.8c-2.1,0-4.2-0.7-4.9,2.1c-6.2,13.9-13.9,27.8-16,43c-1.4,11.8-1.4,21.5,10.4,27.8h-47.9
		c-2.8,0-3.5-2.1-4.9-3.5c-34-40.9-68-82.6-102-123.5c-1.4-2.1-3.5-4.2-5.6-6.2c-1.4,2.1-0.7,4.2-0.7,6.2v96.5
		c0,16.7,3.5,22.2,19.4,30.5h-47.2c0-1.4,0.7-1.4,1.4-2.1c9.7-5.6,13.9-13.9,13.9-24.3c0-25.7,0.7-51.4,0.7-77V381
		c0-3.5-0.7-6.2-4.2-9c-4.9-4.2-9.7-6.9-14.6-10.4c1.4-2.1,2.8-1.4,4.2-1.4h37.5c3.5,0,5.6,1.4,8.3,4.2l91.6,110.3
		c0.7,1.4,2.1,2.1,3.5,4.2c0.7-8.3,0.7-16,0.7-23.6c0-21.5,1.4-43,0.7-65.2c-0.7-11.1-2.1-22.2-11.8-29.8h38.2
		c-10.4,7.6-13.2,18-13.9,29.8c-0.7,9-0.7,17.3-1.4,26.4c-1.4,29.8-2.1,59.7-1.4,89.5v4.9c5.6-6.2,8.3-11.8,11.1-18
		c19.4-43,38.9-86.7,58.3-129.8c1.4-2.8,2.1-3.5,4.9-4.2c4.9-0.7,10.4-3.5,13.9-2.1c3.5,2.1,4.2,8.3,6.2,12.5
		c17.3,42.3,34.7,84.7,54.1,126.3c2.8,6.2,6.2,12.5,10.4,18c2.8,3.5,6.2,6.9,11.1,7.6C2499.1,524.6,2499.1,525.3,2499.1,525.3
		L2499.1,525.3z M2397.8,388.6c-7.6,18-15.3,35.4-22.9,53.4h40.9c2.8,0,4.2-0.7,2.8-3.5C2411.7,421.9,2404.8,406,2397.8,388.6z"/>
	<path class="st0" d="M0.9,433c2.1-0.7,4.9-1.4,6.9-1.4c3.5,0,5.6,1.4,4.9,5.6s1.4,4.9,4.9,4.2h1.4c11.1,0,11.1,0,11.1-11.1
		c0-4.9,2.1-5.6,5.6-5.6c3.5,0,6.9,0.7,6.9,5.6c0,10.4,0,10.4,11.1,10.4c4.9,0,6.9-0.7,6.2-6.2c-0.7-4.9,0-9.7,0-13.9
		c0-4.9,3.5-4.9,6.2-4.9c3.5,0,6.2,0,6.2,4.9v16.7c0,2.8,0.7,3.5,3.5,3.5c13.9,0.7,13.9,0.7,13.9-13.2v-20.1c0-4.9,2.1-5.6,5.6-5.6
		c3.5,0,6.9,0,6.9,5.6v29.1c0,2.8,0.7,4.2,4.2,4.2c11.8,0,11.8,0,11.8-11.8v-41.6c0-3.5,0.7-4.9,4.9-4.9h59.7c3.5,0,4.2,0.7,4.2,4.2
		v132.5c0,3.5-1.4,4.2-4.2,4.2c-9.7,0-9.7,0-9.7-9.7v-111c0-4.2-0.7-5.6-4.9-5.6c-9.7,0.7-19.4,0.7-29.1,0c-4.2,0-4.9,1.4-4.9,4.9
		v114.5c0,4.9-0.7,6.9-6.2,6.2c-8.3-0.7-8.3,0-8.3-8.3v-62.5c0-4.2-0.7-4.9-4.9-4.9c-11.1,0-11.1,0-11.1,11.1v58.3
		c0,5.6-2.1,5.6-6.2,6.2c-4.9,0-6.2-1.4-6.2-6.2v-63.2c0-4.2-0.7-6.2-5.6-5.6c-11.8,0.7-11.8,0-11.8,12.5V517c0,6.2-2.1,5.6-6.9,6.2
		c-5.6,0.7-6.2-2.1-6.2-6.2v-63.8c0-4.2-0.7-4.9-4.9-4.9c-12.5,0-12.5,0-12.5,12.5V517c0,4.9-0.7,6.9-6.2,6.9
		c-6.2,0-6.2-2.8-6.2-7.6v-62.5c0-4.2-1.4-5.6-5.6-5.6c-11.8,0-11.8,0-11.8,11.8V517c0,5.6-1.4,6.9-6.2,6.2c-2.1,0-4.2-0.7-6.2,0.7
		C0.9,523.9,0.9,433,0.9,433z M236.8,678c-3.5-2.1-7.6-2.1-11.8-2.8c-22.9-5.6-45.8-11.1-65.9-25c-2.8-2.1-4.2,0-5.6,2.1
		c-8.3,9-18,14.6-29.1,20.1c-3.5,1.4-3.5,0.7-4.2-2.8c-0.7-7.6,1.4-12.5,9-16c9-4.9,17.3-11.8,23.6-20.1c3.5-4.2,4.9-2.8,8.3-0.7
		c53.4,40.9,137.4,43.7,195,7.6c4.2-2.8,8.3-5.6,11.8-8.3c2.8-2.1,4.2-1.4,6.2,0.7c7.6,9.7,16.7,18,27.8,23.6
		c4.2,2.1,4.9,4.2,4.9,8.3v9.7c-12.5-4.9-23.6-11.1-31.9-20.1c-2.8-3.5-4.9-4.2-9-1.4c-22.9,14.6-47.9,21.5-74.3,25.7
		c-1.4,0-2.8-0.7-3.5,1.4C270.8,678,254.2,678,236.8,678L236.8,678z M309.7,0v25.7c0,2.1,0,4.2-2.8,5.6
		c-25,12.5-34.7,34.7-40.2,60.4c-0.7,3.5-1.4,6.9-2.1,11.1c-2.1-9.7-3.5-18-6.2-26.4c-6.2-18.7-16-34.7-34.7-43.7
		c-2.8-1.4-4.2-3.5-4.2-6.9V0h1.4c0.7,0.7,1.4,1.4,2.8,2.1c17.3,11.8,28.5,28.5,34.7,48.6c2.8,9,4.2,18.7,6.2,29.1
		c4.9-33.3,11.8-57.6,43.7-79.1C309,0,309,0,309.7,0z"/>
	<path class="st0" d="M1678.2,515.6c3.5-4.2,4.2-9,4.2-13.9c-0.7-36.1,0.7-72.9,0-109c0-11.8,0-23.6-13.2-29.8
		c28.5,0.7,56.9-2.1,84.7-0.7c7.6,0.7,14.6,1.4,21.5,4.2c15.3,6.2,24.3,17.3,26.4,34c1.4,17.3-5.6,30.5-20.1,38.9
		c-4.9,2.8-11.1,4.9-17.3,6.9c14.6,17.3,27.8,34.7,43,50.7c5.6,5.6,11.1,11.8,16.7,18c9,9,19.4,14.6,31.9,16.7c1.4,0,2.8,0,4.2,1.4
		c-11.1,5.6-22.9,4.9-34.7,3.5c-23.6-2.1-40.2-16-54.1-34c-12.5-15.3-25-30.5-37.5-46.5c-4.9-6.2-11.1-6.2-18-5.6
		c-2.1,0-2.1,1.4-2.1,2.8c0,16.7,0.7,33.3,0.7,50c0,9.7,5.6,17.3,15.3,20.1c0.7,0,1.4,0.7,2.8,2.1h-104.1v-0.7
		c12.5-6.9,12.5-8.3,7.6-22.2c-6.2-15.3-12.5-31.2-18.7-46.5c-1.4-2.8-2.8-4.2-5.6-4.2h-46.5c-2.1,0-4.2-0.7-4.9,2.1
		c-6.9,15.3-14.6,30.5-16.7,47.9c-1.4,11.1,2.8,18,13.2,23.6h-32.6c-7.6,0-15.3,0.7-22.9,2.8c-25,6.2-49.3,5.6-73.6-5.6
		c-36.8-17.3-52-54.1-48.6-90.9c5.6-56.2,53.4-86.7,105.5-80.5c13.9,1.4,27.8,5.6,40.2,11.8c3.5,2.1,3.5,1.4,9,0
		c1.4,12.5,2.8,25,3.5,37.5c0,0.7,0.7,2.1-0.7,2.8c-2.1,0.7-2.8-0.7-3.5-2.1c-6.2-9-13.2-17.3-20.8-25c-16-15.3-34-21.5-55.5-14.6
		c-16,5.6-26.4,18-32.6,33.3c-12.5,31.9-12.5,64.5,3.5,95.8c19.4,39.6,67.3,44.4,96.5,11.8c7.6-8.3,11.8-18,16.7-27.8
		c16-36.8,34-72.2,49.3-109c1.4-2.8,2.1-4.2,5.6-4.2c1.4,0,3.5-0.7,4.9-0.7c3.5,0,6.9-2.8,9.7-0.7c2.1,2.1,2.8,6.2,4.2,9
		c17.3,43.7,35.4,86.7,54.8,129.1C1671.2,503.8,1674,509.4,1678.2,515.6L1678.2,515.6z M1713.6,406.7v32.6c0,2.8,0.7,4.2,3.5,4.2
		h19.4c5.6,0,10.4-1.4,15.3-3.5c15.3-6.9,22.9-24.3,18-43c-3.5-13.9-11.1-22.9-25.7-25c-9-1.4-17.3-2.1-26.4-1.4
		c-3.5,0-4.2,1.4-4.2,4.9V406.7z M1589.3,388.6c-7.6,18.7-15.3,36.1-22.9,53.4h45.1C1603.9,424,1597,406.7,1589.3,388.6z
		 M900.2,362.2h55.5c0.7,0.7,0,1.4-0.7,1.4c-8.3,3.5-12.5,10.4-12.5,18.7c-0.7,32.6-2.1,65.9,0.7,98.5c1.4,21.5,11.1,30.5,31.9,34.7
		c9.7,2.1,20.1,1.4,29.8-0.7c17.3-4.9,25.7-16.7,26.4-37.5c0.7-20.8,0.7-42.3,1.4-63.2c0-7.6,0.7-16,0-23.6
		c-0.7-11.1-2.8-21.5-14.6-28.5c72.2-0.7,143-0.7,213.7,0.7c-13.9,6.9-16,20.1-16,33.3v42.3c0,2.8,0.7,3.5,3.5,3.5h68.7
		c2.1,0,3.5,0,3.5-2.8v-54.8c0-8.3-2.8-16-11.1-21.5h56.2c-2.1,2.1-4.2,3.5-5.6,5.6c-4.2,4.2-6.2,9-6.2,14.6
		c-2.1,38.9-1.4,78.4-1.4,117.3c0,10.4,3.5,19.4,14.6,25h-60.4v-0.7c10.4-6.9,12.5-17.3,12.5-29.1c0-12.5,0.7-25.7,0.7-38.2
		c0-3.5-0.7-4.9-4.2-4.9h-67.3c-3.5,0-4.2,0.7-4.2,4.2v45.1c0,12.5,1.4,14.6,11.1,23.6h-56.9c11.8-8.3,11.8-21.5,12.5-33.3
		c1.4-30.5,2.1-61.1,0.7-92.3c-0.7-22.9-7.6-28.5-30.5-29.1c-5.6,0-11.8,0.7-17.3,0c-3.5,0-3.5,1.4-3.5,4.2
		c0.7,41.6,0.7,83.3,1.4,125.6c0,10.4,2.8,20.1,16,25h-60.4c9.7-6.2,11.8-16,11.8-25.7c0-41.6,0-83.3-0.7-124.9c0-2.1,0-3.5-3.5-3.5
		c-7.6,0-15.3,0-22.2,1.4c-16.7,2.8-25.7,13.9-27.1,32.6c-0.7,19.4-0.7,38.2-2.1,57.6c0,7.6,0,16-1.4,23.6
		c-3.5,20.1-14.6,33.3-34,38.9c-23.6,6.2-47.2,6.2-70.8-2.1c-20.8-7.6-29.1-20.1-29.1-41.6V390c0-2.8,0-6.2-0.7-9
		C909.3,372.7,907.2,366.4,900.2,362.2L900.2,362.2z"/>
	<path class="st0" d="M728.1,478.8c-0.7,27.8-20.8,47.9-49.3,52c-25.7,3.5-50-0.7-72.2-14.6c-3.5-2.1-5.6-4.9-5.6-9
		c0-8.3-0.7-16-0.7-24.3c0-2.1-2.1-4.9,2.1-5.6c2.8-0.7,2.8,2.8,3.5,4.2c6.2,13.9,15.3,25.7,28.5,33.3c14.6,8.3,29.8,11.8,45.8,4.9
		c22.2-9.7,25.7-36.8,6.9-52.7c-6.2-4.9-13.2-8.3-20.8-11.1c-13.9-5.6-28.5-11.1-41.6-19.4c-20.1-13.2-27.8-33.3-20.1-53.4
		c6.9-18,22.2-25.7,40.2-29.1c17.3-2.8,34,0,50,6.9c5.6,2.1,10.4,4.2,15.3-1.4c2.1-2.1,3.5-0.7,3.5,2.1c0.7,11.1,1.4,22.2,2.1,34
		c0,1.4,0.7,2.8-2.1,3.5c-2.8,0.7-2.8-1.4-3.5-2.8c-5.6-15.3-16.7-25-31.2-30.5c-10.4-4.2-20.8-6.2-31.9-0.7
		c-18.7,9-21.5,33.3-4.2,45.8c8.3,6.2,18,9,27.8,12.5c11.8,4.2,23.6,9,34,16c6.2,4.2,11.8,8.3,16,15.3c0.7-8.3-0.7-16,0.7-23.6
		c5.6-31.9,24.3-54.8,54.1-65.9c33.3-12.5,66.6-11.1,95.8,11.1c50,38.2,38.9,118.7-18.7,143.6c-30.5,13.2-61.8,12.5-90.9-4.2
		c-13.9-7.6-24.3-18.7-31.2-33.3C730.2,481.6,730.2,479.5,728.1,478.8L728.1,478.8z M870.4,444.8c0-21.5-5.6-41.6-16.7-56.2
		c-13.9-19.4-36.8-26.4-57.6-18c-15.3,6.2-24.3,18-30.5,32.6c-4.9,12.5-6.9,25-6.9,38.9c0,19.4,2.8,38.9,13.9,55.5
		c20.8,31.9,61.8,31.9,83.3,0.7C866.2,480.9,869.7,463.6,870.4,444.8L870.4,444.8z"/>
	<path class="st0" d="M343,549.6c-36.8,41.6-124.9,38.2-157.5,0c-11.1,19.4-22.2,38.2-33.3,56.9c-6.2,10.4-11.8,21.5-21.5,28.5
		c-22.9,18-48.6,20.8-76.3,11.8c-11.8-3.5-23.6-9-32.6-18.7c-2.1-2.8-2.8-4.2-0.7-6.9c13.2-21.5,27.1-43,40.2-64.5
		c0.7-1.4,1.4-4.2,4.2-3.5c2.8,0.7,2.1,3.5,2.1,5.6c0,12.5,5.6,22.2,14.6,29.8c3.5,2.8,4.9,3.5,6.9-0.7l25-43.7
		c2.1-3.5,4.2-4.9,8.3-5.6c20.1-2.1,40.9-5.6,61.1-8.3c2.8,0,4.2,0,5.6,2.1c23.6,27.8,54.1,36.8,88.8,32.6
		c25-2.8,45.8-13.2,61.8-32.6c1.4-2.1,2.8-2.1,5.6-2.1c21.5,2.8,42.3,5.6,63.8,8.3c2.8,0.7,4.2,2.1,5.6,4.2
		c8.3,15.3,17.3,29.8,25.7,45.1c2.1,3.5,3.5,3.5,6.2,0.7c9-8.3,14.6-17.3,14.6-29.8c0-2.1-0.7-4.9,2.1-5.6c2.8-0.7,3.5,2.1,4.2,4.2
		c13.2,21.5,26.4,43,39.6,63.8c2.1,2.8,2.1,4.9-0.7,6.9c-20.8,19.4-45.1,27.1-72.9,22.9c-25-3.5-42.3-16.7-54.1-38.9
		C367.3,591.3,355.5,570.4,343,549.6L343,549.6z M397.8,612.8c15.3,20.1,35.4,27.1,59,23.6c11.1-1.4,21.5-4.9,29.8-13.2
		c1.4-1.4,3.5-2.1,2.1-4.9L467.9,585C450.6,610,427.7,619,397.8,612.8L397.8,612.8z M130.6,612.8c-29.8,6.9-53.4-2.1-70.1-27.8
		c-6.2,10.4-12.5,20.8-19.4,30.5c-2.8,4.2-1.4,6.2,1.4,8.3C68.2,645.4,109.8,639.8,130.6,612.8z M112.6,601.7
		c6.9,0,13.9-1.4,20.8-3.5c4.9-1.4,9-4.9,11.8-9c6.9-11.8,13.9-23.6,21.5-36.1c0.7-1.4,2.1-2.8,1.4-4.9c-0.7-2.1-2.8-0.7-4.9-0.7
		l-33.3,4.2c-2.8,0-4.9,1.4-6.2,4.2c-6.2,11.1-12.5,21.5-18.7,32.6c-2.1,3.5-6.2,7.6-4.9,9.7C102.2,601.7,108.4,601.7,112.6,601.7
		L112.6,601.7z M415.2,601.7c3.5,0.7,6.9-0.7,10.4-1.4c2.8-0.7,4.2-1.4,2.1-4.9c-8.3-13.2-16-27.1-23.6-40.2
		c-0.7-1.4-2.1-2.8-4.2-3.5c-11.8-1.4-22.9-2.8-34.7-4.2c-1.4,0-3.5-1.4-4.9,0.7c-1.4,2.1,0,3.5,1.4,4.9
		c6.9,11.8,13.9,22.9,20.8,34.7c3.5,5.6,7.6,9,13.9,10.4C402,600.3,408.2,601,415.2,601.7z"/>
	<path class="st0" d="M1905.1,358.1c31.9,0.7,58.3,11.8,76.3,39.6c25.7,40.9,13.9,111-53.4,127.7c-27.8,6.9-54.1,4.2-78.4-11.1
		c-53.4-34.7-49.3-114.5,7.6-144.3C1871.1,361.6,1887.8,358.1,1905.1,358.1z M1848.2,440.7c0,3.5,0,7.6,0.7,11.1
		c1.4,17.3,4.9,33.3,15.3,47.9c11.8,16.7,27.8,24.3,48.6,20.1c16.7-3.5,27.8-13.9,36.1-28.5c6.9-12.5,9.7-25.7,11.1-40.2
		c1.4-23.6-2.8-45.8-17.3-64.5c-22.2-29.1-61.8-27.1-80.5,4.2C1852.4,406.7,1848.9,423.3,1848.2,440.7L1848.2,440.7z"/>
	<path class="st0" d="M342.3,453.2v-65.2c0-3.5,0.7-4.9,4.9-4.9h59c3.5,0,4.2,1.4,4.2,4.2v49.3c0,4.2,1.4,4.9,4.9,4.9
		c11.1,0,11.1,0,11.1-11.1v-22.9c0-5.6,3.5-4.9,6.9-4.9c3.5,0,5.6,0.7,5.6,4.9v29.1c0,3.5,0.7,4.9,4.9,4.9c13.2,0,13.2,0,13.2-13.2
		v-4.9c0-6.2,1.4-7.6,7.6-6.9c2.8,0,4.2,1.4,4.2,4.9v16.7c0,2.8,0.7,4.2,3.5,4.2h1.4c11.8,0,11.8,0,12.5-11.8c0-4.9,3.5-4.9,6.2-4.9
		s5.6,0,5.6,4.9c0,11.8,0.7,11.8,12.5,11.8c4.2,0,5.6-1.4,4.9-5.6c-0.7-4.9,2.8-4.9,6.2-4.9c2.8,0,6.2,0,6.2,4.9v84
		c0,2.8-1.4,3.5-3.5,3.5c-8.3,0.7-8.3,0.7-8.3-7.6v-56.2c0-10.4,0-10.4-10.4-10.4c-5.6,0-7.6,0.7-6.9,6.9c0.7,20.8,0,42.3,0,63.2
		c0,5.6-2.8,4.9-6.2,4.9c-3.5,0-6.2,0.7-6.2-4.9c0.7-21.5,0-43,0-64.5c0-4.2-0.7-6.2-5.6-5.6c-11.8,0-11.8,0-11.8,12.5v57.6
		c0,5.6-2.8,5.6-6.2,5.6s-6.2,0-6.2-4.9c0.7-21.5,0-43,0-65.2c0-4.2-1.4-4.9-4.9-4.9c-12.5,0-12.5,0-12.5,12.5v56.9
		c0,4.9-1.4,5.6-6.2,5.6c-4.2,0-6.2,0-6.2-5.6c0.7-21.5,0-43,0-64.5c0-4.2-1.4-5.6-5.6-5.6c-11.1,0-11.1,0-11.1,11.1v59.7
		c0,4.2-1.4,4.9-4.9,4.9c-9,0-9,0-9-9V404.6c0-4.2-0.7-5.6-5.6-5.6c-9.7,0.7-19.4,0.7-29.1,0c-4.2,0-5.6,0.7-5.6,4.9v114.5
		c0,5.6-1.4,6.9-6.2,6.2h-4.2c-3.5,0.7-4.2-1.4-4.2-4.2C342.3,497.6,342.3,475.4,342.3,453.2L342.3,453.2z M59.9,302.6v-45.1
		c0-2.1,2.1-3.5,2.8-4.2c19.4-20.8,45.1-32.6,72.2-39.6c48.6-13.2,90.2-0.7,126.3,34c3.5,2.8,4.2,2.1,6.9,0
		c25.7-25.7,56.9-39.6,93-38.2c40.2,1.4,77,14.6,106.2,44.4c1.4,1.4,2.8,2.8,2.8,4.9v44.4c-2.8-1.4-3.5-3.5-4.2-5.6
		c-16.7-26.4-38.9-47.9-67.3-61.1c-34-16-70.1-17.3-104.8-1.4c-9.7,4.9-18,11.1-25.7,18.7c-2.1,2.1-3.5,2.1-5.6,0
		c-42.3-43-118-35.4-157.5-0.7C87.6,267.9,71,282.4,59.9,302.6L59.9,302.6z M264.6,185.3c-7.6-12.5-15.3-22.9-23.6-34
		c-21.5-26.4-50.7-39.6-81.9-48.6c-12.5-3.5-25-4.9-37.5-5.6c-4.2,0-4.9-1.4-4.9-5.6c0-8.3,0.7-16,0-24.3c0-4.9,1.4-4.9,5.6-4.2
		c31.9,4.9,59,20.1,85.4,38.2c25.7,18,44.4,40.2,55.5,69.4c0.7,1.4,1.4,2.1,1.4,3.5l0.7,0.7c3.5-6.9,6.2-14.6,10.4-21.5
		c10.4-19.4,24.3-35.4,42.3-48.6c21.5-15.3,43.7-29.8,70.1-36.8c6.9-2.1,13.9-3.5,20.8-4.9c3.5-0.7,4.9-0.7,4.9,3.5v25.7
		c0,3.5-1.4,4.2-4.9,4.2c-23.6,1.4-46.5,6.9-68.7,16c-31.9,13.2-54.1,37.5-71.5,66.6C266.7,181.1,266,182.5,264.6,185.3L264.6,185.3
		z"/>
	<path class="st0" d="M264.6,211.7c-9.7-10.4-19.4-20.1-30.5-29.1c-20.8-17.3-43.7-29.1-70.1-33.3c-22.9-3.5-45.1-0.7-66.6,5.6
		c-5.6,1.4-6.2,0-6.2-4.9v-27.8c0-3.5,0.7-4.9,4.9-4.9c25,0,48.6,5.6,71.5,13.2c38.9,13.2,69.4,36.8,93.7,70.1
		c1.4,1.4,2.8,3.5,4.2,4.9c8.3-10.4,16-20.8,24.3-29.8c24.3-25.7,54.1-40.9,88.1-50.7c18.7-5.6,36.8-8.3,56.2-8.3
		c4.9,0,5.6,1.4,5.6,5.6c0,9.7-0.7,18.7,0,28.5c0,4.2-0.7,4.9-4.9,3.5c-13.2-3.5-26.4-6.2-39.6-6.9c-40.9-2.1-74.9,12.5-104.1,38.2
		C281.9,193.6,272.9,201.9,264.6,211.7L264.6,211.7z"/>
	<path class="st0" d="M458.9,219.3c-18-17.3-38.9-26.4-61.8-30.5c-24.3-4.2-47.2,0-69.4,8.3s-42.3,19.4-59.7,35.4
		c-2.8,2.8-4.2,0.7-6.2-0.7c-24.3-22.2-53.4-35.4-84.7-42.3c-36.8-7.6-70.1,0.7-99.2,24.3c-2.1,1.4-3.5,2.8-6.2,4.9v-35.4
		c0-3.5,2.8-2.8,4.9-4.2c42.3-16,83.3-14.6,124.2,4.2c22.9,10.4,44.4,23.6,61.8,42.3c2.8,2.8,4.2,2.1,6.2-0.7
		c28.5-28.5,61.8-46.5,101.3-54.8c29.8-6.2,59-2.1,86.7,9c1.4,0.7,2.8,1.4,2.8,3.5C458.9,195.7,458.9,206.8,458.9,219.3L458.9,219.3
		z M93.9,335.2v-38.9c0-2.1,1.4-2.8,2.1-4.2c31.2-34.7,69.4-52,115.9-49.3c18.7,0.7,34.7,11.1,48.6,22.9c2.8,2.8,4.9,3.5,8.3,0
		c29.1-27.1,63.2-28.5,98.5-17.3c25.7,7.6,47.2,22.2,65.2,41.6c2.8,2.8,4.2,6.2,3.5,9.7v32.6c-1.4,0.7-1.4-0.7-2.1-1.4
		c-13.2-21.5-31.2-39.6-51.4-54.8c-23.6-17.3-50.7-26.4-80.5-20.8c-12.5,2.1-22.9,8.3-33.3,16c-2.8,2.1-4.2,2.1-7.6,0
		c-21.5-16.7-45.8-20.8-72.2-14.6c-27.8,6.2-48.6,22.2-67.3,41.6C111.2,310.2,102.2,321.3,93.9,335.2L93.9,335.2z"/>
	<path class="st0" d="M1994.6,524.6c12.5-6.2,13.9-16.7,13.9-28.5c-0.7-36.1,0-72.2-0.7-107.6c0-11.1-2.8-20.8-13.9-25.7h59
		c0,0.7,0,0.7-0.7,1.4c-9.7,5.6-13.9,14.6-13.9,26.4v113.1c0,10.4,2.8,13.2,13.2,13.9h5.6c23.6,1.4,40.2-7.6,50-29.8
		c1.4-2.8,1.4-2.1,4.2-4.9c0.7,3.5-0.7,6.9-1.4,9.7l-6.2,29.1c-0.7,2.1-0.7,4.2-4.2,4.2C2064,523.2,2030,523.9,1994.6,524.6
		L1994.6,524.6z"/>
	<path class="st0" d="M319.4,358.8c-9,9-16,17.3-23.6,25c-2.1,2.1-3.5,4.2-3.5,7.6v83.3c0,4.9,1.4,6.2,6.2,5.6
		c6.2-0.7,12.5,0,18.7,0c2.8,0,4.2,0.7,4.2,4.2c0,9,0,9-8.3,9h-17.3c8.3,10.4,15.3,20.1,23.6,31.2h-18c-2.1,0-2.8-1.4-4.2-2.8
		c-6.9-9.7-13.2-18.7-20.1-28.5c-1.4-2.1-1.4-4.2-1.4-6.2V386.5c0-2.8,0.7-5.6,2.8-7.6c5.6-5.6,11.1-11.8,18-18.7h-18
		c6.9-10.4,12.5-19.4,19.4-29.1h-21.5c7.6-9,14.6-17.3,21.5-25.7c7.6-9,7.6-9.7,19.4-5.6c11.1,3.5,20.8,9,29.8,16.7
		c1.4,1.4,2.8,2.8,2.8,4.9c0,10.4,0,20.8-0.7,31.2c-0.7-2.1-2.1-3.5-2.8-5.6c-6.2-13.2-15.3-24.3-26.4-34c-2.8-2.1-4.2-2.1-6.2,0.7
		c-4.2,5.6-8.3,10.4-13.2,16.7h19.4c-6.9,9.7-13.2,19.4-20.1,29.1C306.2,358.8,311.8,358.8,319.4,358.8L319.4,358.8z M238.9,360.2
		c0.7,0.7,0.7,1.4,1.4,2.1c11.8,12.5,13.9,27.8,13.2,44.4c-1.4,26.4-0.7,52,0,78.4c0,4.2-1.4,6.9-3.5,10.4
		c-6.2,8.3-11.8,16-17.3,24.3c-2.1,3.5-4.2,4.2-8.3,4.2h-14.6c7.6-10.4,15.3-20.1,23.6-31.2h-22.2c-3.5,0-4.9-0.7-4.2-4.2v-4.2
		c-0.7-3.5,0.7-4.2,4.2-4.2H232c3.5,0,4.2-0.7,4.2-4.2c0-28.5-0.7-57.6-0.7-86.7c0-2.8-1.4-4.9-2.8-6.2
		c-5.6-7.6-11.1-15.3-17.3-23.6h20.1c-9-10.4-17.3-19.4-26.4-29.1h19.4c-5.6-6.9-10.4-13.2-15.3-18.7c-1.4-2.1-2.8,0.7-4.2,1.4
		c-11.1,9.7-20.8,21.5-27.1,35.4l-2.1,4.2l-1.4,1.4v-32.6c0-2.1,0.7-2.8,2.1-3.5c11.8-9.7,25-16.7,39.6-20.1c2.1-0.7,3.5,0,4.9,1.4
		c8.3,10.4,17.3,20.8,27.1,31.9h-21.5c9,10.4,17.3,19.4,25.7,29.1C250.7,360.2,244.5,358.8,238.9,360.2L238.9,360.2z M264.6,151.3
		c-6.9-18.7-16.7-35.4-28.5-50c-17.3-21.5-38.9-38.2-65.2-47.9c-3.5-1.4-4.9-2.8-4.9-6.9c0.7-9,0-18.7,0-28.5
		c7.6,2.1,13.9,5.6,19.4,9.7c37.5,27.8,64.5,63.8,78.4,109c0,0.7,0.7,0.7,0.7,2.1c1.4-4.9,2.8-9,4.2-12.5c1.4-4.2,3.5-8.3,4.9-12.5
		c15.3-35.4,39.6-63.2,70.1-86.1c4.9-3.5,10.4-6.2,16-8.3c2.1-0.7,3.5-0.7,3.5,2.1v27.8c0,1.4-0.7,2.8-2.1,3.5
		C313.8,70.1,284,104.8,264.6,151.3z"/>
	<path class="st0" d="M2163.3,525.3h-53.4c13.2-6.9,12.5-18,12.5-29.1c0-36.1,0-71.5,0.7-107.6c0-10.4-0.7-19.4-12.5-26.4h52.7v0.7
		c-9.7,5.6-11.8,15.3-11.8,25.7v111.7C2150.8,510.8,2154.2,519.8,2163.3,525.3z"/>
	<path class="st0" d="M258.3,650.2c-31.2-0.7-65.2-11.1-95.1-33.3c-4.2-2.8-4.9-5.6-1.4-9c0.7-0.7,1.4-2.1,2.1-3.5
		c1.4-3.5,3.5-2.8,6.2-0.7c56.2,43,131.9,43,188.1,0c2.8-2.1,4.2-2.8,6.2,0.7c4.9,8.3,5.6,8.3-2.8,14.6
		C332.6,639.8,300,650.2,258.3,650.2L258.3,650.2z M1116.8,303.3c-15.3,2.8-26.4,0-35.4-12.5c-4.9-6.9-11.1-12.5-16.7-19.4
		c-1.4-2.1-3.5-2.8-5.6-2.8c-2.8,0.7-1.4,3.5-1.4,4.9v16c0,4.9,0.7,9.7,6.2,13.9h-29.1c6.2-5.6,5.6-12.5,5.6-19.4v-43.7
		c0-4.9-0.7-9-5.6-13.9c16.7,0,31.9-2.1,47.9,0c10.4,1.4,16.7,8.3,17.3,18c0.7,10.4-5.6,17.3-18,20.8
		C1092.5,279,1102.9,292.2,1116.8,303.3L1116.8,303.3z M1057.1,247.7C1057.1,247.7,1057.8,247.7,1057.1,247.7
		c0.7,4.2,0.7,9,0.7,13.9c0,1.4,0,2.8,2.1,3.5c9,2.8,20.8-3.5,22.2-13.2c2.8-14.6-7.6-24.3-22.2-21.5c-2.8,0.7-2.1,2.1-2.1,3.5
		C1057.1,238.7,1057.1,243.6,1057.1,247.7z M1517.9,224.8c6.2,0,11.8,1.4,17.3,3.5c16,6.2,25,19.4,25.7,36.8
		c0,16.7-9.7,30.5-25,37.5c-11.1,4.2-22.9,5.6-34.7,2.1c-18.7-4.9-31.2-20.1-31.2-38.9s12.5-34,31.9-38.9
		C1506.1,224.8,1511.6,224.1,1517.9,224.8L1517.9,224.8z M1540.8,265.1c0-10.4-2.1-18-6.9-25c-9.7-14.6-27.8-15.3-37.5-0.7
		c-10.4,16-11.1,33.3-2.1,50c7.6,13.9,24.3,16,35.4,4.9C1538,286.6,1540.8,276.2,1540.8,265.1L1540.8,265.1z M719.8,241.5
		c0,19.4-0.7,36.8,1.4,54.1c0.7,3.5,2.8,5.6,6.2,7.6h-21.5c9-5.6,8.3-13.9,8.3-22.2v-37.5c0-9.7-0.7-11.1-9-17.3h22.2
		c2.1,0,2.8,2.1,4.2,3.5c13.9,16.7,28.5,32.6,42.3,49.3c0.7,1.4,1.4,2.8,4.2,2.8c-0.7-15.3,2.1-30.5-0.7-45.8
		c-0.7-3.5-2.8-6.9-7.6-9h22.9c-6.2,5.6-6.9,11.8-7.6,18.7l-2.1,52c0,2.1,2.1,5.6-1.4,6.2c-3.5,0.7-6.9,1.4-10.4-2.8
		c-11.1-13.9-22.2-27.1-34-40.9C731.6,254.7,726.1,248.4,719.8,241.5L719.8,241.5z M603.9,226.2h31.9c-9,4.2-7.6,10.4-7.6,16.7v36.8
		c0,7.6,2.1,14.6,9.7,17.3c9,3.5,17.3,4.2,25.7-1.4c4.2-2.8,5.6-7.6,6.2-12.5c1.4-14.6,0-29.1,0-43.7c0-5.6-2.8-9-8.3-12.5h23.6
		c-9.7,6.9-8.3,16.7-9,26.4c0,9.7-0.7,19.4-0.7,29.1c-0.7,13.2-6.2,20.1-20.1,22.2c-9.7,1.4-19.4,1.4-29.1-2.1
		c-11.1-3.5-16-9.7-16.7-21.5c-0.7-13.9-0.7-27.8-0.7-41.6C610.2,234.6,610.2,230.4,603.9,226.2L603.9,226.2z M1179.9,226.9v19.4
		c-2.1-3.5-3.5-6.2-5.6-8.3c-5.6-5.6-11.8-9.7-19.4-9.7c-6.2,0-11.1,3.5-12.5,9c-1.4,5.6,0.7,11.1,6.9,13.9
		c6.9,2.8,13.9,5.6,20.1,8.3c9,4.2,16.7,9.7,16.7,20.8c0.7,9.7-4.2,18-13.9,22.2c-15.3,6.2-30.5,3.5-45.1-4.2
		c-1.4-0.7-2.8-1.4-2.8-3.5v-15.3c2.1,1.4,2.1,3.5,2.8,4.9c5.6,11.1,13.9,17.3,27.1,17.3c7.6,0,13.2-4.9,14.6-11.1
		c1.4-6.2-0.7-10.4-7.6-14.6c-6.2-3.5-13.2-5.6-20.1-8.3c-6.9-3.5-13.9-6.9-15.3-16c-2.8-12.5,6.2-24.3,19.4-27.1
		c8.3-1.4,16.7,0,25,2.8C1173,229,1176.4,230.4,1179.9,226.9L1179.9,226.9z M1004.3,274.8c-4.9-8.3-16.7-12.5-25-9.7
		c-2.1,0.7-1.4,2.1-1.4,2.8v25c0,4.9,2.8,6.9,7.6,6.9c11.8,0,22.9-2.8,30.5-14.6c-3.5,18-3.5,18-20.1,18h-42.3
		c6.2-2.8,6.9-6.9,6.9-11.1c0.7-18,0.7-36.1,0-53.4c0-4.9-1.4-8.3-5.6-11.8c5.6-0.7,10.4,0,15.3,0c12.5,0,25,0,37.5-0.7
		c2.1,0,3.5,0,3.5,2.1c0,4.2,0.7,9,0.7,13.9c-6.9-11.8-18.7-12.5-29.8-12.5c-2.8,0-3.5,0.7-3.5,3.5v24.3c0,1.4-0.7,3.5,1.4,3.5
		c5.6,0,11.8,0.7,17.3-1.4c3.5-1.4,5.6-4.2,7.6-8.3C1004.3,259.5,1004.3,267.2,1004.3,274.8L1004.3,274.8z M924.5,226.9h18.7
		c-16,22.2-25,47.9-36.1,73.6c-1.4,3.5-2.8,4.9-6.9,4.9c-3.5,0-6.2,0-8.3-4.9c-7.6-19.4-16-38.2-24.3-57.6c-2.1-5.6-4.9-11.1-9.7-16
		h30.5c-7.6,4.2-4.9,9.7-2.8,15.3c6.2,14.6,11.8,29.1,18,43.7c0.7,0.7,0.7,2.1,2.1,2.8c6.9-16.7,15.3-31.9,20.1-49.3
		C929.4,234.6,928.7,230.4,924.5,226.9L924.5,226.9z M1252.1,244.3c2.1-6.2,3.5-11.1,4.9-16.7c0.7-2.1,1.4-2.8,2.8-2.1
		c20.8,2.1,41.6,0.7,61.8,0c6.2,0,6.2,0,4.2,5.6c-1.4,3.5-3.5,7.6-4.9,11.1c-0.7,0-1.4,0-1.4-0.7c-1.4-9.7-11.1-15.3-20.8-11.1
		c-2.1,0.7-1.4,2.1-1.4,3.5c0,19.4,0,39.6,0.7,59c0,4.2,2.1,7.6,6.9,9.7h-31.9c6.2-3.5,6.2-9,6.2-15.3c0-17.3,0-34.7,0.7-52.7
		c0-4.2-1.4-4.9-4.9-4.2C1267.3,231.8,1263.2,234.6,1252.1,244.3L1252.1,244.3z M1395.7,226.9h24.3c-2.8,2.8-5.6,5.6-7.6,8.3
		c-8.3,10.4-16,22.2-22.9,33.3c-0.7,1.4-1.4,2.1-1.4,3.5v19.4c0,4.2,1.4,8.3,5.6,11.1h-29.8c8.3-4.9,6.2-12.5,6.9-19.4
		c0.7-7.6-0.7-13.9-5.6-20.8c-9-11.8-16-25.7-26.4-36.8h31.2c-5.6,4.9-5.6,6.2-1.4,12.5c5.6,8.3,10.4,16.7,16.7,25.7
		c4.9-7.6,9.7-14.6,13.2-22.2C1401.3,236.6,1402.7,231.8,1395.7,226.9L1395.7,226.9z M1629.6,252.6v22.9
		c-4.2-10.4-13.2-10.4-22.2-10.4c-2.8,0-4.2,0.7-4.2,4.2c0,7.6,0,16,0.7,23.6c0,4.2,1.4,7.6,4.9,11.1H1581
		c6.9-6.2,4.9-14.6,4.9-22.2c0.7-14.6,0.7-28.5,0-43c0-4.2-1.4-8.3-6.2-12.5h16.7c10.4,0,21.5,0,31.9-0.7c3.5,0,4.9,0.7,4.2,4.2
		v13.9c-4.2-14.6-14.6-15.3-25.7-14.6c-2.8,0-4.2,0.7-4.2,4.2v24.3c0,2.1,0,3.5,2.8,3.5C1615,261.6,1624.7,263,1629.6,252.6
		L1629.6,252.6z M243.8,272c-50,3.5-84.7,26.4-101.3,74.9v-38.9c0-2.1,0.7-3.5,2.1-4.9C165.3,274.1,209.1,260.2,243.8,272z
		 M288.9,272c23.6-6.9,47.2-5.6,69.4,6.9c11.1,6.2,20.8,13.2,28.5,23.6c1.4,1.4,2.1,2.8,2.1,4.9v38.2
		C371.4,298.4,337.4,275.5,288.9,272L288.9,272z M1234,304h-27.8c6.2-4.2,5.6-11.1,5.6-16.7v-47.9c0-4.2-0.7-8.3-5.6-11.8h28.5
		c-5.6,4.2-5.6,9.7-5.6,15.3v48.6C1229.2,295.6,1229.9,299.8,1234,304L1234,304z M107.7,359.5h89.5l-8.3,14.6
		c-1.4,2.1-2.8,2.1-4.9,2.1h-63.2c-2.1,0-3.5,0-4.9-2.1C114,369.2,110.5,364.3,107.7,359.5L107.7,359.5z M330.5,359.5H420
		c-2.8,4.9-6.2,9.7-9,13.9c-1.4,2.1-2.8,2.1-4.9,2.1h-63.8c-2.1,0-3.5-0.7-4.2-2.8C336.1,369.2,333.3,364.3,330.5,359.5L330.5,359.5
		z M841.3,304h-27.8c5.6-4.2,5.6-10.4,5.6-16v-48.6c0-4.2-0.7-8.3-5.6-11.8h27.1c-4.9,4.9-4.9,10.4-4.9,16V288
		C836.4,293.5,836.4,299.1,841.3,304L841.3,304z"/>
	<path class="st0" d="M236.8,603.7c-5.6-6.9-5.6-13.2-0.7-16.7c5.6-4.2,16.7-1.4,20.1,4.2c3.5,5.6,0.7,9.7-6.9,11.8
		c0,2.1,2.1,2.8,3.5,4.2c2.8,3.5,3.5,7.6,2.1,11.8s-4.9,6.9-9,7.6c-3.5,0.7-7.6,0.7-11.1-1.4c-4.9-2.1-9.7-4.9-9-11.1
		C225.7,607.2,230.6,605.1,236.8,603.7L236.8,603.7z M233.3,615.5c0,5.6,2.8,9,6.9,9s7.6-3.5,7.6-8.3c0-4.2-5.6-11.1-8.3-9.7
		C234.7,607.2,234,612.1,233.3,615.5L233.3,615.5z M250.7,594c0-3.5-2.1-6.2-5.6-6.2c-3.5,0-4.9,2.8-5.6,6.2c0,2.8,4.2,8.3,6.2,7.6
		C249.3,600.3,250,597.5,250.7,594L250.7,594z M286.1,592.6c9,0,15.3,4.9,16,12.5c1.4,8.3-3.5,14.6-11.8,17.3
		c-11.8,3.5-21.5-0.7-23.6-11.1C265.3,600.3,272.9,592.6,286.1,592.6L286.1,592.6z M293.7,611.4c0-5.6-2.1-11.1-5.6-13.9
		c-4.9-4.2-9.7-2.8-11.8,2.8c-2.1,4.9-0.7,9.7,1.4,13.9c2.1,3.5,4.9,6.9,9.7,6.2C293,619.7,293.7,615.5,293.7,611.4L293.7,611.4z
		 M209.8,612.1c-3.5-1.4-6.9-3.5-10.4-4.9c6.2-5.6,7.6-13.9,11.1-20.8c0.7-0.7-1.4-2.8,0.7-2.8c2.8,0,5.6,0.7,7.6,1.4
		c1.4,0.7,0,2.1-0.7,3.5c-2.1,4.9-4.9,10.4-6.9,15.3C210.4,607.2,209.1,609.3,209.8,612.1L209.8,612.1z M321.5,611.4
		c-2.1-9-5.6-16.7-11.8-23.6c2.1-1.4,4.2-3.5,6.9-5.6c4.9,7.6,7.6,17.3,13.2,24.3C327.7,607.9,324.3,610,321.5,611.4L321.5,611.4z"
		/>
	<path class="st0" d="M1057.1,247.7v-13.2c0-1.4,0-2.8,2.1-3.5c14.6-2.8,25,6.9,22.2,21.5c-2.1,9-13.2,16-22.2,13.2
		c-2.1-0.7-2.1-2.1-2.1-3.5C1057.8,256.8,1057.8,252.6,1057.1,247.7C1057.8,247.7,1057.1,247.7,1057.1,247.7z"/>
</g>
</svg>
